<?xml version="1.0" encoding="UTF-8"?>
<svg width="40px" height="28px" viewBox="0 0 40 28" version="1.1" xmlns="http://www.w3.org/2000/svg" xmlns:xlink="http://www.w3.org/1999/xlink">
    <title>编组 7</title>
    <g id="04-新建视频" stroke="none" stroke-width="1" fill="none" fill-rule="evenodd">
        <g id="07-生成字幕（中/英文字幕）" transform="translate(-48.000000, -901.000000)">
            <g id="编组-7" transform="translate(48.000000, 901.000000)">
                <rect id="矩形备份-27" fill="#333337" x="0" y="0" width="40" height="28" rx="4"></rect>
                <path d="M19.9506259,7 C20.2458198,7 20.4648516,7.05777239 20.6077213,7.17331718 C20.7505909,7.28833195 20.822551,7.50511093 20.822551,7.82259408 L20.822551,9.64109942 L24.3412414,9.64109942 C24.6942134,9.64109942 24.9778517,9.65806012 25.1921562,9.6914515 C25.4064606,9.72590293 25.5740173,9.800106 25.6927252,9.91512077 C25.8119583,10.0306656 25.893373,10.1949724 25.9353935,10.4059211 C25.9789898,10.6179299 26,10.8972515 26,11.2433558 L26,15.616567 C26,15.9345801 25.9810908,16.196411 25.9432723,16.4036496 C25.9054539,16.6103581 25.8261402,16.7709548 25.7069071,16.8864996 C25.587674,17.0015143 25.4211678,17.0841978 25.2073886,17.1324298 C25.0351046,17.1701673 24.8187832,17.1936579 24.5586932,17.2015446 L24.3554233,17.2045128 L24.3554233,17.2045128 L20.822551,17.2045128 L20.822551,20.1774059 C20.822551,20.4270463 20.7605708,20.6268645 20.6371356,20.7768608 C20.5308838,20.9045203 20.3478374,20.977274 20.0873349,20.9954554 L19.9506259,21 L19.9506259,21 C19.5787446,21 19.3402784,20.9369274 19.2352272,20.8123722 C19.1296507,20.6878171 19.0771251,20.4705081 19.0771251,20.1625653 L19.0771251,17.2045128 L15.6303948,17.2045128 C15.2874026,17.2045128 15.0090169,17.1796017 14.7936619,17.1324298 C14.5788322,17.0841978 14.4128513,16.9999243 14.2930929,16.8790793 C14.1738598,16.7592943 14.0950713,16.5955175 14.0572529,16.3882789 C14.0189092,16.1821004 14,15.9245097 14,15.616567 L14,11.2290452 C14,10.9020217 14.0189092,10.6348906 14.0572529,10.427652 C14.0950713,10.2214735 14.1738598,10.0598168 14.2930929,9.94427198 C14.4128513,9.82872719 14.5788322,9.74975392 14.7936619,9.70629212 C15.0090169,9.66336034 15.2874026,9.64109942 15.6303948,9.64109942 L19.0771251,9.64109942 L19.0771251,7.82259408 C19.0771251,7.50511093 19.1443579,7.28833195 19.2782982,7.17331718 C19.4106627,7.05777239 19.6354723,7 19.9506259,7 Z M23.7545303,11.3589006 L20.822551,11.3589006 L20.822551,15.4867116 L23.8695614,15.4867116 C24.0602294,15.4867116 24.1747352,15.4570304 24.2120284,15.400318 C24.2503721,15.3420156 24.2692813,15.2026198 24.2692813,14.9816007 L24.2692813,11.7919285 C24.2692813,11.609601 24.2393417,11.4914061 24.176311,11.4384039 C24.1153812,11.3854017 23.9746126,11.3589006 23.7545303,11.3589006 Z M19.0771251,11.3589006 L16.0600543,11.3589006 C15.9161341,11.3589006 15.8252648,11.3827516 15.7879716,11.4309836 C15.7496279,11.4792156 15.731244,11.5995306 15.731244,11.7919285 L15.731244,14.9816007 C15.731244,15.2126902 15.7522542,15.3542061 15.7953252,15.4072083 C15.837871,15.4596805 15.9408212,15.4867116 16.1026,15.4867116 L19.0771251,15.4867116 L19.0771251,11.3589006 Z" id="形状结合备份-6" fill="#FFFFFF"></path>
            </g>
        </g>
    </g>
</svg>