<?xml version="1.0" encoding="UTF-8"?>
<svg width="52px" height="36px" viewBox="0 0 52 36" version="1.1" xmlns="http://www.w3.org/2000/svg" xmlns:xlink="http://www.w3.org/1999/xlink">
    <title>编组 7</title>
    <g id="04-新建视频" stroke="none" stroke-width="1" fill="none" fill-rule="evenodd">
        <g id="05-编辑视频" transform="translate(-40.000000, -928.000000)">
            <g id="编组-7" transform="translate(40.000386, 928.000000)">
                <path d="M23.6985071,3.36368571 L24.81965,32.5185429 L32.6689357,32.5185429 L27.0619357,35.8819714 L49.6393643,35.8819714 C50.8723643,35.8819714 51.88165,34.8733286 51.88165,33.6396857 L51.88165,5.60661429 C51.88165,4.37297143 50.8723643,3.36368571 49.6393643,3.36368571 L23.6985071,3.36368571 Z" id="Fill-1" fill="#9E9EA6"></path>
                <path d="M32.669,32.5182857 L25.9408571,3.05533376e-13 L2.24228571,3.05533376e-13 C1.00864286,3.05533376e-13 8.45545856e-13,1.00928571 8.45545856e-13,2.24228571 L8.45545856e-13,30.276 C8.45545856e-13,31.509 1.00864286,32.5182857 2.24228571,32.5182857 L32.669,32.5182857 Z" id="Fill-7" fill="#333337"></path>
                <polygon id="Fill-9" fill="#2B2C2E" points="32.6688714 32.5182857 27.0618714 35.8817143 25.9407286 32.5182857"></polygon>
                <path d="M13.8594,9.50145714 C14.1493286,9.50145714 14.3646857,9.55738571 14.5048286,9.66988571 C14.6456143,9.78238571 14.7156857,9.99324286 14.7156857,10.3018143 L14.7156857,12.0716 L18.1710429,12.0716 C18.5175429,12.0716 18.7965429,12.0883143 19.0067571,12.1211 C19.2169714,12.1538857 19.3815429,12.2265286 19.4979,12.3383857 C19.6149,12.4508857 19.6952571,12.6103143 19.7370429,12.8166714 C19.7794714,13.0223857 19.8000429,13.2943143 19.8000429,13.6311714 L19.8000429,17.8868857 C19.8000429,18.1961 19.7814,18.4506714 19.7441143,18.6525286 C19.7068286,18.8537429 19.6296857,19.0099571 19.5120429,19.1224571 C19.3950429,19.2349571 19.2311143,19.3146714 19.0209,19.3616 C18.8522143,19.3991429 18.6403286,19.4218743 18.3845846,19.4294651 L18.1845429,19.4323143 L18.1845429,19.4323143 L14.7156857,19.4323143 L14.7156857,22.3251714 C14.7156857,22.5688143 14.6546143,22.7623143 14.5337571,22.9082429 C14.4290633,23.0322224 14.2492732,23.1037764 13.9935772,23.1216902 L13.8594,23.1261714 L13.8594,23.1261714 C13.4942571,23.1261714 13.2596143,23.0644571 13.1567571,22.9436 C13.0532571,22.8214571 13.0018286,22.6106 13.0018286,22.3110286 L13.0018286,19.4323143 L9.61718571,19.4323143 C9.28032857,19.4323143 9.00647143,19.4085286 8.79561429,19.3616 C8.58475714,19.3146714 8.42147143,19.2330286 8.30382857,19.1153857 C8.18682857,18.9990286 8.10968571,18.8396 8.0724,18.6377429 C8.03447143,18.4371714 8.01582857,18.1864571 8.01582857,17.8868857 L8.01582857,13.6170286 C8.01582857,13.2988143 8.03447143,13.0384571 8.0724,12.8372429 C8.10968571,12.6360286 8.18682857,12.4791714 8.30382857,12.3666714 C8.42147143,12.2548143 8.58475714,12.1770286 8.79561429,12.1352429 C9.00647143,12.0934571 9.28032857,12.0716 9.61718571,12.0716 L13.0018286,12.0716 L13.0018286,10.3018143 C13.0018286,9.99324286 13.0680429,9.78238571 13.1991857,9.66988571 C13.3296857,9.55738571 13.5501857,9.50145714 13.8594,9.50145714 Z M17.5950429,13.7436714 L14.7156857,13.7436714 L14.7156857,17.7602429 L17.7075429,17.7602429 C17.8946143,17.7602429 18.0071143,17.7319571 18.0444,17.6760286 C18.0816857,17.6194571 18.1009714,17.4838143 18.1009714,17.2684571 L18.1009714,14.1647429 C18.1009714,13.9873143 18.0707571,13.8722429 18.0090429,13.8208143 C17.9486143,13.7693857 17.8104,13.7436714 17.5950429,13.7436714 Z M13.0018286,13.7436714 L10.0389,13.7436714 C9.89811429,13.7436714 9.80875714,13.7668143 9.77211429,13.8131 C9.73418571,13.8606714 9.71618571,13.9776714 9.71618571,14.1647429 L9.71618571,17.2684571 C9.71618571,17.4934571 9.73675714,17.6316714 9.77854286,17.6831 C9.82097143,17.7345286 9.9219,17.7602429 10.0806857,17.7602429 L13.0018286,17.7602429 L13.0018286,13.7436714 Z" id="形状结合" fill="#9E9EA6"></path>
                <path d="M38.0496143,25.098 C38.4136143,25.098 38.6096143,24.818 38.6096143,24.482 C38.6096143,24.132 38.4136143,23.88 38.0496143,23.88 L33.0376143,23.88 C32.7296143,23.88 32.5196143,23.754 32.5196143,23.432 L32.5196143,19.988 L37.2936143,19.988 C37.6296143,19.988 37.8396143,19.722 37.8396143,19.4 C37.8396143,19.05 37.6436143,18.798 37.2936143,18.798 L32.5196143,18.798 L32.5196143,15.9 C32.5196143,15.564 32.6596143,15.41 32.9956143,15.41 L37.9236143,15.41 C38.2876143,15.41 38.4836143,15.144 38.4836143,14.794 C38.4836143,14.444 38.2876143,14.192 37.9236143,14.192 L32.6316143,14.192 C31.6376143,14.192 31.2036143,14.626 31.2036143,15.704 L31.2036143,23.6 C31.2036143,24.664 31.6376143,25.098 32.6316143,25.098 L38.0496143,25.098 Z M45.3476143,25.182 C45.7116143,25.182 45.9916143,25 45.9916143,24.622 L45.9916143,19.876 C45.9916143,18.154 45.0956143,17.146 43.4296143,17.146 C42.0996143,17.146 41.2596143,17.776 40.7696143,18.77 C40.7836143,18.504 40.8256143,18.364 40.8256143,18.182 L40.8256143,17.804 C40.8256143,17.44 40.5736143,17.258 40.2096143,17.258 C39.8176143,17.258 39.5516143,17.44 39.5516143,17.804 L39.5516143,24.622 C39.5516143,25 39.8036143,25.182 40.1956143,25.182 C40.5596143,25.182 40.8256143,25 40.8256143,24.622 L40.8256143,20.702 C40.8256143,20.156 40.9656143,19.75 41.3156143,19.274 C41.7916143,18.616 42.4216143,18.28 43.1776143,18.28 C44.2276143,18.28 44.7036143,18.952 44.7036143,20.142 L44.7036143,24.622 C44.7036143,25 44.9696143,25.182 45.3476143,25.182 Z" id="En" stroke="#333337" stroke-width="0.6" fill="#333337" fill-rule="nonzero"></path>
            </g>
        </g>
    </g>
</svg>