<?xml version="1.0" encoding="UTF-8"?>
<svg width="22px" height="16px" viewBox="0 0 22 16" version="1.1" xmlns="http://www.w3.org/2000/svg" xmlns:xlink="http://www.w3.org/1999/xlink">
    <title>形状结合</title>
    <g id="04-新建视频" stroke="none" stroke-width="1" fill="none" fill-rule="evenodd">
        <g id="01-默认界面" transform="translate(-477.000000, -32.000000)" fill="#CCCCD1">
            <path d="M496,32 C497.656854,32 499,33.3431458 499,35 L499,45 C499,46.6568542 497.656854,48 496,48 L480,48 C478.343146,48 477,46.6568542 477,45 L477,35 C477,33.3431458 478.343146,32 480,32 L496,32 Z M496,34 L480,34 C479.487164,34 479.064493,34.3860402 479.006728,34.8833789 L479,35 L479,45 C479,45.5128358 479.38604,45.9355072 479.883379,45.9932723 L480,46 L496,46 C496.512836,46 496.935507,45.6139598 496.993272,45.1166211 L497,45 L497,35 C497,34.4477153 496.552285,34 496,34 Z M494.5,37 C494.776142,37 495,37.2238576 495,37.5 L495,42.5 C495,42.7454599 494.823125,42.9496084 494.589876,42.9919443 L494.5,43 L489.5,43 C489.223858,43 489,42.7761424 489,42.5 L489,41.5 C489,41.2238576 489.223858,41 489.5,41 L493,41 L493,37.5 C493,37.2238576 493.223858,37 493.5,37 L494.5,37 Z M483.5,41 C483.776142,41 484,41.2238576 484,41.5 L484,42.5 C484,42.7761424 483.776142,43 483.5,43 L481.5,43 C481.223858,43 481,42.7761424 481,42.5 L481,41.5 C481,41.2238576 481.223858,41 481.5,41 L483.5,41 Z M487.5,41 C487.776142,41 488,41.2238576 488,41.5 L488,42.5 C488,42.7761424 487.776142,43 487.5,43 L485.5,43 C485.223858,43 485,42.7761424 485,42.5 L485,41.5 C485,41.2238576 485.223858,41 485.5,41 L487.5,41 Z M483.5,37 C483.776142,37 484,37.2238576 484,37.5 L484,38.5 C484,38.7761424 483.776142,39 483.5,39 L481.5,39 C481.223858,39 481,38.7761424 481,38.5 L481,37.5 C481,37.2238576 481.223858,37 481.5,37 L483.5,37 Z M487.5,37 C487.776142,37 488,37.2238576 488,37.5 L488,38.5 C488,38.7761424 487.776142,39 487.5,39 L485.5,39 C485.223858,39 485,38.7761424 485,38.5 L485,37.5 C485,37.2238576 485.223858,37 485.5,37 L487.5,37 Z M491.5,37 C491.776142,37 492,37.2238576 492,37.5 L492,38.5 C492,38.7761424 491.776142,39 491.5,39 L489.5,39 C489.223858,39 489,38.7761424 489,38.5 L489,37.5 C489,37.2238576 489.223858,37 489.5,37 L491.5,37 Z" id="形状结合"></path>
        </g>
    </g>
</svg>