<?xml version="1.0" encoding="UTF-8"?>
<svg width="30px" height="26px" viewBox="0 0 30 26" version="1.1" xmlns="http://www.w3.org/2000/svg" xmlns:xlink="http://www.w3.org/1999/xlink">
    <title>形状结合</title>
    <g id="04-新建视频" stroke="none" stroke-width="1" fill="none" fill-rule="evenodd">
        <g id="01-默认界面" transform="translate(-262.000000, -341.000000)" fill="#F2F2F5" fill-rule="nonzero">
            <g id="编组-4" transform="translate(148.000000, 341.000000)">
                <path d="M127.325162,0 C128.615556,0 129.665255,1.05341935 129.665255,2.3483871 C129.665255,2.3958545 129.660277,2.44221179 129.65082,2.48695922 C129.668229,2.54898072 129.678627,2.6152664 129.678627,2.68387097 L129.678627,3.03277419 C129.678627,3.58967742 130.126588,4.03922581 130.681524,4.03922581 L136.638734,4.03922581 L136.723,4.045 L137.775351,4.04593548 C139.065745,4.04593548 140.115445,5.09935484 140.115445,6.39432258 L140.115,7.501 L141.659906,7.50141935 C142.950301,7.50141935 144,8.55483871 144,9.84980645 L144,23.6516129 C144,24.9394988 142.961751,25.988471 141.681055,25.9999056 C141.674173,25.99989 141.667054,26 141.659906,26 L116.340094,26 C115.049699,26 114,24.9465806 114,23.6516129 L114,2.3483871 C114,1.05341935 115.049699,0 116.340094,0 L127.325162,0 Z M127.325162,1.34193548 L116.340094,1.34193548 C115.785157,1.34193548 115.337196,1.79148387 115.337196,2.3483871 L115.337196,23.6516129 C115.337196,24.2085161 115.785157,24.6580645 116.340094,24.6580645 L118.546468,24.6580645 C119.101404,24.6580645 119.549365,24.2085161 119.549365,23.6516129 L119.549963,18.9597084 C119.545165,18.9274455 119.542679,18.8944516 119.542679,18.8609032 L119.542679,9.84980645 C119.542679,8.55483871 120.592378,7.50141935 121.882772,7.50141935 L138.778,7.501 L138.778248,6.39432258 C138.778248,5.83741935 138.330287,5.38787097 137.775351,5.38787097 L134.753287,5.38787097 L134.668,5.381 L130.681524,5.38116129 C129.39113,5.38116129 128.341431,4.32774194 128.341431,3.03277419 L128.341431,2.68387097 C128.341431,2.6358438 128.346527,2.58895308 128.356203,2.54371645 C128.338343,2.48254886 128.328059,2.41661472 128.328059,2.3483871 C128.328059,1.79148387 127.880098,1.34193548 127.325162,1.34193548 Z M139.36,8.843 L121.882772,8.84335484 C121.327836,8.84335484 120.879875,9.29290323 120.879875,9.84980645 L120.879277,17.8965497 C120.884075,17.9288126 120.886561,17.9618065 120.886561,17.9953548 L120.886561,23.6516129 C120.8847,24.0121082 120.802527,24.3538843 120.657063,24.6594264 L141.659906,24.6580645 L141.659906,24.6580645 C142.214843,24.6580645 142.662804,24.2085161 142.662804,23.6516129 L142.662804,9.84980645 C142.662804,9.29290323 142.214843,8.84335484 141.659906,8.84335484 L139.53358,8.84440306 C139.505175,8.84813745 139.476224,8.85006452 139.446846,8.85006452 L139.36,8.843 Z M132.297633,12.7043045 L132.350941,12.7243333 C132.362581,12.7291253 132.374058,12.7342383 132.385363,12.7396611 C132.398964,12.7459898 132.41176,12.7527404 132.424373,12.7599374 C132.4412,12.7694547 132.457817,12.7797968 132.473935,12.7908261 C132.482585,12.7971993 132.491363,12.8036086 132.500016,12.8102594 C132.547307,12.8454725 132.589231,12.8868214 132.625283,12.9329811 L135.435257,15.7476129 C135.696011,16.0092903 135.696011,16.432 135.435257,16.6936774 C135.301538,16.827871 135.134388,16.8882581 134.960553,16.8882581 C134.786717,16.8882581 134.619568,16.8211613 134.485848,16.6936774 L132.767,14.968 L132.767551,20.4645161 C132.767551,20.8335484 132.466682,21.1354839 132.098953,21.1354839 C131.731224,21.1354839 131.430354,20.8335484 131.430354,20.4645161 L131.43,14.955 L129.698685,16.6936774 C129.571651,16.827871 129.404502,16.8882581 129.230666,16.8882581 C129.056831,16.8882581 128.889681,16.8211613 128.755962,16.6936774 C128.495208,16.432 128.495208,16.0092903 128.755962,15.7476129 L131.624248,12.8691613 C131.806775,12.6859871 132.06793,12.6310348 132.297633,12.7043045 Z" id="形状结合"></path>
            </g>
        </g>
    </g>
</svg>