<?xml version="1.0" encoding="UTF-8"?>
<svg width="40px" height="28px" viewBox="0 0 40 28" version="1.1" xmlns="http://www.w3.org/2000/svg" xmlns:xlink="http://www.w3.org/1999/xlink">
    <title>编组 8</title>
    <g id="04-新建视频" stroke="none" stroke-width="1" fill="none" fill-rule="evenodd">
        <g id="07-生成字幕（中/英文字幕）" transform="translate(-48.000000, -961.000000)">
            <g id="编组-8" transform="translate(48.000000, 961.000000)">
                <rect id="矩形备份-28" fill="#333337" x="0" y="0" width="40" height="28" rx="4"></rect>
                <path d="M19.846,19.906 C20.21,19.906 20.406,19.626 20.406,19.29 C20.406,18.94 20.21,18.688 19.846,18.688 L14.834,18.688 C14.526,18.688 14.316,18.562 14.316,18.24 L14.316,14.796 L19.09,14.796 C19.426,14.796 19.636,14.53 19.636,14.208 C19.636,13.858 19.44,13.606 19.09,13.606 L14.316,13.606 L14.316,10.708 C14.316,10.372 14.456,10.218 14.792,10.218 L19.72,10.218 C20.084,10.218 20.28,9.952 20.28,9.602 C20.28,9.252 20.084,9 19.72,9 L14.428,9 C13.434,9 13,9.434 13,10.512 L13,18.408 C13,19.472 13.434,19.906 14.428,19.906 L19.846,19.906 Z M27.144,19.99 C27.508,19.99 27.788,19.808 27.788,19.43 L27.788,14.684 C27.788,12.962 26.892,11.954 25.226,11.954 C23.896,11.954 23.056,12.584 22.566,13.578 C22.58,13.312 22.622,13.172 22.622,12.99 L22.622,12.612 C22.622,12.248 22.37,12.066 22.006,12.066 C21.614,12.066 21.348,12.248 21.348,12.612 L21.348,19.43 C21.348,19.808 21.6,19.99 21.992,19.99 C22.356,19.99 22.622,19.808 22.622,19.43 L22.622,15.51 C22.622,14.964 22.762,14.558 23.112,14.082 C23.588,13.424 24.218,13.088 24.974,13.088 C26.024,13.088 26.5,13.76 26.5,14.95 L26.5,19.43 C26.5,19.808 26.766,19.99 27.144,19.99 Z" id="En备份" stroke="#FFFFFF" stroke-width="0.6" fill="#FFFFFF" fill-rule="nonzero"></path>
            </g>
        </g>
    </g>
</svg>