<?xml version="1.0" encoding="UTF-8"?>
<svg width="19px" height="20px" viewBox="0 0 19 20" version="1.1" xmlns="http://www.w3.org/2000/svg" xmlns:xlink="http://www.w3.org/1999/xlink">
    <title>路径</title>
    <g id="04-新建视频" stroke="none" stroke-width="1" fill="none" fill-rule="evenodd">
        <g id="01-默认界面" transform="translate(-270.000000, -30.000000)" fill="#CCCCD1" fill-rule="nonzero">
            <path d="M288.066488,35.8650187 L279.969745,30.1370262 C279.712781,29.9546921 279.369335,29.9542917 279.11195,30.1360262 L270.925541,35.8720187 L270.806984,35.9570185 C270.447328,36.2140182 270,36.5350178 270,37.098017 L270,48.6310018 C270.00055,49.3872404 270.611475,50 271.3649,50 L276.608306,50 C277.020977,50 277.355514,49.664214 277.355514,49.250001 L277.355514,43.1110091 L281.644486,43.1110091 L281.644486,45.1220064 C281.644486,45.5362195 281.979023,45.8720055 282.391694,45.8720055 C282.804366,45.8720055 283.138902,45.5362195 283.138902,45.1220064 L283.138902,42.9800093 C283.138353,42.224161 282.528034,41.6115626 281.774999,41.6110111 L277.225001,41.6110111 C276.471966,41.6115626 275.861647,42.224161 275.861098,42.9800093 L275.861098,48.5 L271.494416,48.5 L271.494416,37.3100168 C271.550207,37.2680168 271.61895,37.2190169 271.675738,37.1780169 L279.53736,31.6660242 L287.251534,37.122017 C287.319281,37.1670169 287.428871,37.2410169 287.506581,37.3000168 L287.506581,48.5 L282.702533,48.5 C282.289861,48.4997259 281.955102,48.835288 281.954827,49.249501 C281.954552,49.663714 282.288865,49.9997238 282.701536,50 L287.636097,50 C288.389132,49.9994485 288.999451,49.3868501 289,48.6310018 L289,37.0840171 C288.989041,36.4810179 288.463007,36.1290183 288.066488,35.8650187 Z" id="路径"></path>
        </g>
    </g>
</svg>