<?xml version="1.0" encoding="UTF-8"?>
<svg width="130px" height="28px" viewBox="0 0 130 28" version="1.1" xmlns="http://www.w3.org/2000/svg" xmlns:xlink="http://www.w3.org/1999/xlink">
    <title>编组 7</title>
    <defs>
        <path d="M5.4,14.0002014 C5.4,18.7391554 9.18099056,22.5611511 13.87878,22.5611511 L21.5,22.5611511 L21.5,28 L13.87878,28 C6.21388157,28 1.16529009e-13,21.7321367 1.16529009e-13,14.0002014 L1.16529009e-13,1.12921413 C1.16529009e-13,0.505609251 0.501038991,0 1.11925324,0 L28.1012,0 C28.7206,0 29.2226,0.50581295 29.2226,1.12966906 L29.2226,20.7482014 L29.2226,20.7482014 C29.2226,21.1574357 27.4191778,21.2416355 23.8123335,21.0008009 L23.8398,5.43884892 L5.4,5.438 L5.4,14.0002014 L5.4,14.0002014 Z" id="path-1"></path>
        <path d="M22,28 L13.87878,28 C6.21388157,28 0,21.7321367 0,14.0002014 L0,1.12921413 C0,0.505609251 0.501038991,0 1.11925324,0 L5.4,0 C5.4,2.40908264 5.4,4.22264587 5.4,5.4406897 C5.4,7.33380173 5.4,10.1869723 5.4,14.0002014 C5.4,18.7391554 9.18099056,22.5611511 13.87878,22.5611511 L22,22.5611511 L22,28 Z" id="path-3"></path>
        <filter x="-40.9%" y="-32.1%" width="181.8%" height="164.3%" filterUnits="objectBoundingBox" id="filter-4">
            <feOffset dx="0" dy="0" in="SourceAlpha" result="shadowOffsetOuter1"></feOffset>
            <feGaussianBlur stdDeviation="3" in="shadowOffsetOuter1" result="shadowBlurOuter1"></feGaussianBlur>
            <feColorMatrix values="0 0 0 0 0   0 0 0 0 0   0 0 0 0 0  0 0 0 0.5 0" type="matrix" in="shadowBlurOuter1"></feColorMatrix>
        </filter>
        <path d="M5.4,0 L5.4,14.0002014 L5.4,14.0002014 C5.4,18.7391554 9.18099056,22.5611511 13.87878,22.5611511 L23.809,22.561 L23.8398,5.43884892 L12.9,5.43884892 L12.9,0 L28.1012,0 C28.7206,0 29.2226,0.50581295 29.2226,1.12966906 L29.2226,22.5897554 L29.6712,22.5897554 C32.0246,22.5897554 34,24.4208345 34,26.7913669 L34,28 L25,27.989 L25,28 L13.87878,28 C6.21388157,28 0,21.7321367 0,14.0002014 L0,1.12921413 C0,0.505609251 0.501038991,0 1.11925324,0 L5.4,0 Z" id="path-5"></path>
        <path d="M34,28 L23.8,27.9887194 L23.8398,5.43884892 L8.7,5.43884892 L8.7,0 L28.1012,0 C28.7206,0 29.2226,0.50581295 29.2226,1.12966906 L29.2226,22.5897554 L29.6712,22.5897554 C32.0246,22.5897554 34,24.4208345 34,26.7913669 L34,28 Z" id="path-7"></path>
        <filter x="-35.6%" y="-32.1%" width="171.1%" height="164.3%" filterUnits="objectBoundingBox" id="filter-8">
            <feOffset dx="0" dy="0" in="SourceAlpha" result="shadowOffsetOuter1"></feOffset>
            <feGaussianBlur stdDeviation="3" in="shadowOffsetOuter1" result="shadowBlurOuter1"></feGaussianBlur>
            <feColorMatrix values="0 0 0 0 0.0311846472   0 0 0 0 0.234598527   0 0 0 0 0.749688632  0 0 0 1 0" type="matrix" in="shadowBlurOuter1"></feColorMatrix>
        </filter>
        <radialGradient cx="52.1074849%" cy="50%" fx="52.1074849%" fy="50%" r="58.3333333%" gradientTransform="translate(0.521075,0.500000),scale(1.000000,0.857143),rotate(90.000000),translate(-0.521075,-0.500000)" id="radialGradient-9">
            <stop stop-color="#27A7F7" offset="0%"></stop>
            <stop stop-color="#007CFF" offset="100%"></stop>
        </radialGradient>
    </defs>
    <g id="web-创作者中心" stroke="none" stroke-width="1" fill="none" fill-rule="evenodd">
        <g id="加盟学者备份-7" transform="translate(-250.000000, -26.000000)">
            <g id="编组-7" transform="translate(250.000000, 26.000000)">
                <g id="LOGO">
                    <g id="编组">
                        <path d="M34,28 L23.8,27.9887194 L23.8398,5.43884892 L5,5.43884892 L5,0 L28.1012,0 C28.7206,0 29.2226,0.50581295 29.2226,1.12966906 L29.2226,22.5897554 L29.6712,22.5897554 C32.0246,22.5897554 34,24.4208345 34,26.7913669 L34,28 Z" id="Fill-1" fill="#007CFF"></path>
                        <path d="M25,28 L13.87878,28 C6.21388157,28 0,21.7321367 0,14.0002014 L0,1.12921413 C0,0.505609251 0.501038991,0 1.11925324,0 L5.4,0 C5.4,2.40908264 5.4,4.22264587 5.4,5.4406897 C5.4,7.33380173 5.4,10.1869723 5.4,14.0002014 C5.4,18.7391554 9.18099056,22.5611511 13.87878,22.5611511 L25,22.5611511 L25,28 Z" id="Fill-7" fill="#007CFF"></path>
                        <g id="左">
                            <mask id="mask-2" fill="white">
                                <use xlink:href="#path-1"></use>
                            </mask>
                            <use id="形状结合" fill="#007CFF" xlink:href="#path-1"></use>
                            <g id="Fill-7" mask="url(#mask-2)">
                                <use fill="black" fill-opacity="1" filter="url(#filter-4)" xlink:href="#path-3"></use>
                                <use fill="#083CBF" fill-rule="evenodd" xlink:href="#path-3"></use>
                            </g>
                        </g>
                        <g id="右边">
                            <mask id="mask-6" fill="white">
                                <use xlink:href="#path-5"></use>
                            </mask>
                            <use id="蒙版" fill="#007CFF" xlink:href="#path-5"></use>
                            <g id="Fill-1" mask="url(#mask-6)">
                                <use fill="black" fill-opacity="1" filter="url(#filter-8)" xlink:href="#path-7"></use>
                                <use fill="#007CFF" fill-rule="evenodd" xlink:href="#path-7"></use>
                            </g>
                        </g>
                    </g>
                    <path d="M15,17 C17,15.3679801 18,14.0121242 18,12.9324324 C18,11.3128947 16.6568542,10 15,10 C13.3431458,10 12,11.3128947 12,12.9324324 C12,14.0121242 13,15.3679801 15,17 Z" id="椭圆形" fill="url(#radialGradient-9)"></path>
                </g>
                <g id="编组-2" transform="translate(42.000000, 4.000000)" fill="#007CFF">
                    <path d="M59.8161956,5.46835443 L59.8161956,17.0126582 L57.0695336,17.0126582 L57.0695336,5.46835443 L59.8161956,5.46835443 Z M58.4428498,4.31722169e-15 C59.2012007,4.31722169e-15 59.8159005,0.612169975 59.8159005,1.36707388 C59.8159005,2.12197779 59.2012007,2.73414777 58.4428498,2.73414777 C57.6842333,2.73414777 57.0695336,2.12197779 57.0695336,1.36707388 C57.0695336,0.612169975 57.6842333,4.31722169e-15 58.4428498,4.31722169e-15 Z" id="形状结合"></path>
                    <path d="M48.5243628,4.86075949 C49.7371383,4.86075949 50.9010796,5.22482766 51.8816269,5.86795766 L51.8813941,5.46835443 L54.6280562,5.46835443 L54.6280562,17.902481 C54.6280562,21.5696203 52.1380544,24 48.8295474,24 C46.1753563,24 43.7701959,22.2823291 43.0310387,19.7468354 L45.7777007,19.1392405 C46.169863,20.4850633 47.4198994,21.2658228 48.8295474,21.2658228 C50.5864956,21.2658228 51.8813941,19.6730127 51.8813941,17.9240506 L51.8820301,16.0154325 C50.9052184,16.6555596 49.7453063,17.0126582 48.5243628,17.0126582 C45.1586172,17.0126582 42.4206693,14.2872935 42.4206693,10.9370181 C42.4206693,7.58674268 45.1586172,4.86075949 48.5243628,4.86075949 Z M48.5243628,7.59493671 C46.6731132,7.59493671 45.1673314,9.09411208 45.1673314,10.9368612 C45.1673314,12.7793056 46.6731132,14.278481 48.5243628,14.278481 C49.7851036,14.278481 50.9284224,13.5855464 51.508734,12.469541 C51.7559381,11.9934722 51.8813941,11.477807 51.8813941,10.9368612 C51.8813941,10.4364253 51.7735514,9.95609222 51.5609559,9.50895906 C51.0078367,8.34635191 49.8160041,7.59493671 48.5243628,7.59493671 Z" id="形状结合"></path>
                    <path d="M26.2458817,1.03534621e-12 L26.2458817,2.74151756 L19.2261471,2.72525687 L19.2259723,7.29 L25.939073,7.26834279 L25.939073,9.68980219 L19.2259723,9.711 L19.2261471,14.278481 L26.2458817,14.278481 L26.2458817,17.0126582 L16.4799723,17.0126582 L16.4799723,1.03534621e-12 L26.2458817,1.03534621e-12 Z" id="形状结合"></path>
                    <path d="M2.74666204,0 L2.746,11.342 L3.97,8.815 L3.96740073,8.81012658 L3.972,8.81 L8.23998613,0 L10.9809107,0 L6.715,8.812 L10.9866482,17.0126582 L8.23998613,17.0126582 L5.392,11.546 L2.74666204,17.0125367 L1.11022302e-12,17.0126582 L1.11022302e-12,0 L2.74666204,0 Z" id="形状结合"></path>
                    <path d="M78.8772693,9.81509438 L84.921718,9.81509438 C84.921718,8.80530342 83.6862204,7.37033733 81.9731841,7.37033733 C80.1213107,7.37033733 78.8772693,8.59271585 78.8772693,9.81509438 M81.9817279,17.0126582 C78.6246162,17.0126582 75.9909832,14.3049316 75.9909832,10.9766458 C75.9909832,7.60442942 78.6783203,4.86075949 81.9817279,4.86075949 C85.2079361,4.86075949 87.5880007,7.54728883 87.5880007,10.9766458 L87.5880007,11.979371 L78.9260911,11.979371 C78.9260911,13.1065152 80.3040875,14.4155263 81.9817279,14.4155263 C83.7405347,14.4155263 84.7157509,13.8941952 85.3858306,13.2198748 L86.8272954,14.9439231 C85.8816774,16.4477037 83.5772866,17.0126582 81.9817279,17.0126582" id="Fill-1"></path>
                    <path d="M68.3169925,4.86075949 C71.4664984,4.86075949 73.5495058,7.47524051 73.5495058,10.0253165 L73.5495058,17.0126582 L70.8028438,17.0126582 L70.8028438,10.0253165 C70.8028438,8.52941772 69.2048968,7.59493671 67.7509971,7.59493671 C66.6525926,7.59493671 65.5839569,8.46091049 65.0027851,9.02818003 L65.004335,17.0126582 L62.257673,17.0126582 L62.257673,5.46835443 L65.004335,5.46835443 L65.004256,6.36071946 C65.8971502,5.60080293 67.0845446,4.86075949 68.3169925,4.86075949 Z" id="形状结合"></path>
                    <path d="M34.7466787,4.86075949 C37.8961845,4.86075949 39.979192,7.47524051 39.979192,10.0253165 L39.979192,17.0126582 L37.2325299,17.0126582 L37.2325299,10.0253165 C37.2325299,8.52941772 35.634583,7.59493671 34.1806832,7.59493671 C33.0822787,7.59493671 32.013643,8.46091049 31.4324713,9.02818003 L31.4340212,17.0126582 L28.6873591,17.0126582 L28.6873591,5.46835443 L31.4340212,5.46835443 L31.4339422,6.36071946 C32.3268363,5.60080293 33.5142307,4.86075949 34.7466787,4.86075949 Z" id="形状结合"></path>
                </g>
            </g>
        </g>
    </g>
</svg>