<?xml version="1.0" encoding="UTF-8"?>
<svg width="16px" height="12px" viewBox="0 0 16 12" version="1.1" xmlns="http://www.w3.org/2000/svg" xmlns:xlink="http://www.w3.org/1999/xlink">
    <title>Fill 1</title>
    <g id="04-新建视频" stroke="none" stroke-width="1" fill="none" fill-rule="evenodd">
        <g id="01-默认界面" transform="translate(-76.000000, -729.000000)" fill="#878791">
            <path d="M76.3984171,737.172611 C76.2170809,737.847019 76.0974174,738.535904 76.0408074,739.23058 C76.0046783,739.643956 75.9924818,740.059113 76.0044481,740.473825 C76.0313724,741.015044 76.7643111,741.198791 77.0590974,740.737753 C77.2013128,740.515697 77.344909,740.294532 77.4905762,740.074481 L77.5133583,740.040404 C77.6647786,739.811667 77.7849023,739.635715 77.8576209,739.537271 C78.027681,739.30742 78.3210866,738.981797 78.6803071,738.659293 C79.1985419,738.1938 79.7800603,737.798911 80.4117453,737.516719 C80.7721164,737.356358 81.2328207,737.232301 81.7683147,737.144993 C82.4246227,737.037863 83.1131478,736.993986 83.7342472,736.991536 L83.7342472,739.321897 C83.7342472,739.770017 84.2566242,740.031718 84.6344846,739.772467 L91.7590627,734.888132 C92.0163391,734.711957 92.0770913,734.36718 91.8950648,734.118398 C91.8577851,734.067394 91.8117606,734.023072 91.7590627,733.986991 L84.6344846,729.102655 C84.2566242,728.843404 83.7342472,729.105105 83.7342472,729.553225 L83.7342472,731.946171 C83.3708845,731.978244 83.0077519,732.01477 82.6676316,732.054861 C82.2338515,732.106087 81.8672672,732.159764 81.5830664,732.217004 C81.0627605,732.319902 80.5569523,732.483159 80.0766876,732.70321 C79.5897494,732.927716 79.2381229,733.156676 79.0268709,733.330623 C77.935172,733.985877 76.8460044,735.528463 76.3984171,737.172611 M77.5016221,737.454357 C77.8838548,736.051641 78.823443,734.733561 79.6576354,734.252032 C79.6893922,734.233769 79.719078,734.212387 79.7466926,734.188779 C79.7708554,734.16762 79.834139,734.118843 79.934012,734.051803 C80.1109758,733.933314 80.3222278,733.813266 80.5670777,733.700568 C80.9421766,733.527957 81.3584673,733.389422 81.8147993,733.298106 C82.0619504,733.248438 82.4004599,733.198771 82.8057048,733.150885 C83.3184167,733.090972 83.8327394,733.041973 84.3477525,733.003887 C84.6453003,732.982283 84.8754224,732.741964 84.8754224,732.453314 L84.8754224,730.621187 L90.4423044,734.437561 L84.8754224,738.253936 L84.8754224,736.44809 C84.8754224,736.153649 84.6367858,735.911103 84.3327946,735.896626 C84.3063306,735.895512 84.2598459,735.893508 84.1949515,735.891948 C83.4047124,735.871235 82.4759399,735.909544 81.5786941,736.055873 C80.9509212,736.158326 80.3974777,736.307551 79.934012,736.514016 C78.8393215,737.00245 77.918143,737.744789 77.2848471,738.458174 C77.3398463,738.120524 77.4116444,737.784434 77.5016221,737.454357" id="Fill-1"></path>
        </g>
    </g>
</svg>