<?xml version="1.0" encoding="UTF-8"?>
<svg width="16px" height="12px" viewBox="0 0 16 12" version="1.1" xmlns="http://www.w3.org/2000/svg" xmlns:xlink="http://www.w3.org/1999/xlink">
    <title>Fill 1</title>
    <g id="04-新建视频" stroke="none" stroke-width="1" fill="none" fill-rule="evenodd">
        <g id="01-默认界面" transform="translate(-40.000000, -729.000000)" fill="#878791">
            <path d="M40.3984171,737.172611 C40.2170809,737.847019 40.0974174,738.535904 40.0408074,739.23058 C40.0046783,739.643956 39.9924818,740.059113 40.0044481,740.473825 C40.0313724,741.015044 40.7643111,741.198791 41.0590974,740.737753 C41.2013128,740.515697 41.344909,740.294532 41.4905762,740.074481 L41.5133583,740.040404 C41.6647786,739.811667 41.7849023,739.635715 41.8576209,739.537271 C42.027681,739.30742 42.3210866,738.981797 42.6803071,738.659293 C43.1985419,738.1938 43.7800603,737.798911 44.4117453,737.516719 C44.7721164,737.356358 45.2328207,737.232301 45.7683147,737.144993 C46.4246227,737.037863 47.1131478,736.993986 47.7342472,736.991536 L47.7342472,739.321897 C47.7342472,739.770017 48.2566242,740.031718 48.6344846,739.772467 L55.7590627,734.888132 C56.0163391,734.711957 56.0770913,734.36718 55.8950648,734.118398 C55.8577851,734.067394 55.8117606,734.023072 55.7590627,733.986991 L48.6344846,729.102655 C48.2566242,728.843404 47.7342472,729.105105 47.7342472,729.553225 L47.7342472,731.946171 C47.3708845,731.978244 47.0077519,732.01477 46.6676316,732.054861 C46.2338515,732.106087 45.8672672,732.159764 45.5830664,732.217004 C45.0627605,732.319902 44.5569523,732.483159 44.0766876,732.70321 C43.5897494,732.927716 43.2381229,733.156676 43.0268709,733.330623 C41.935172,733.985877 40.8460044,735.528463 40.3984171,737.172611 M41.5016221,737.454357 C41.8838548,736.051641 42.823443,734.733561 43.6576354,734.252032 C43.6893922,734.233769 43.719078,734.212387 43.7466926,734.188779 C43.7708554,734.16762 43.834139,734.118843 43.934012,734.051803 C44.1109758,733.933314 44.3222278,733.813266 44.5670777,733.700568 C44.9421766,733.527957 45.3584673,733.389422 45.8147993,733.298106 C46.0619504,733.248438 46.4004599,733.198771 46.8057048,733.150885 C47.3184167,733.090972 47.8327394,733.041973 48.3477525,733.003887 C48.6453003,732.982283 48.8754224,732.741964 48.8754224,732.453314 L48.8754224,730.621187 L54.4423044,734.437561 L48.8754224,738.253936 L48.8754224,736.44809 C48.8754224,736.153649 48.6367858,735.911103 48.3327946,735.896626 C48.3063306,735.895512 48.2598459,735.893508 48.1949515,735.891948 C47.4047124,735.871235 46.4759399,735.909544 45.5786941,736.055873 C44.9509212,736.158326 44.3974777,736.307551 43.934012,736.514016 C42.8393215,737.00245 41.918143,737.744789 41.2848471,738.458174 C41.3398463,738.120524 41.4116444,737.784434 41.5016221,737.454357" id="Fill-1" transform="translate(48.000000, 735.000000) scale(-1, 1) translate(-48.000000, -735.000000) "></path>
        </g>
    </g>
</svg>