<?xml version="1.0" encoding="UTF-8"?>
<svg width="114px" height="60px" viewBox="0 0 114 60" version="1.1" xmlns="http://www.w3.org/2000/svg" xmlns:xlink="http://www.w3.org/1999/xlink">
    <title>编组 3</title>
    <g id="04-新建视频" stroke="none" stroke-width="1" fill="none" fill-rule="evenodd">
        <g id="04-拖拽视频" transform="translate(-903.000000, -857.000000)" stroke="#9E9EA6">
            <g id="编组-3" transform="translate(903.000000, 857.000000)">
                <path d="M71.5,11.1198049 L44.3067055,35.5 L71.5,35.5 L71.5,11.1198049 Z" id="矩形" fill="#1B1B1D"></path>
                <rect id="矩形" fill="#1B1B1D" x="64.5" y="25.5" width="18" height="18"></rect>
                <circle id="椭圆形" fill="#1B1B1D" cx="65" cy="40" r="10.5"></circle>
                <rect id="矩形" x="18.5" y="0.5" width="95" height="59" rx="4"></rect>
                <path d="M4.5,14.5 L4.5,18.5 L11.5,18.5 L11.5,14.5 L24.5,14.5 L24.5,18.5 L31.5,18.5 L31.5,14.5 L32,14.5 C32.9664983,14.5 33.8414983,14.8917508 34.4748737,15.5251263 C35.1082492,16.1585017 35.5,17.0335017 35.5,18 L35.5,18 L35.5,56 C35.5,56.9664983 35.1082492,57.8414983 34.4748737,58.4748737 C33.8414983,59.1082492 32.9664983,59.5 32,59.5 L32,59.5 L31.5,59.5 L31.5,55.5 L24.5,55.5 L24.5,59.5 L11.5,59.5 L11.5,55.5 L4.5,55.5 L4.5,59.5 L4,59.5 C3.03350169,59.5 2.15850169,59.1082492 1.52512627,58.4748737 C0.891750844,57.8414983 0.5,56.9664983 0.5,56 L0.5,56 L0.5,18 C0.5,17.0335017 0.891750844,16.1585017 1.52512627,15.5251263 C2.15850169,14.8917508 3.03350169,14.5 4,14.5 L4,14.5 L4.5,14.5 Z M11.5,44.5 L4.5,44.5 L4.5,51.5 L11.5,51.5 L11.5,44.5 Z M31.5,44.5 L24.5,44.5 L24.5,51.5 L31.5,51.5 L31.5,44.5 Z M11.5,33.5 L4.5,33.5 L4.5,40.5 L11.5,40.5 L11.5,33.5 Z M31.5,33.5 L24.5,33.5 L24.5,40.5 L31.5,40.5 L31.5,33.5 Z M11.5,22.5 L4.5,22.5 L4.5,29.5 L11.5,29.5 L11.5,22.5 Z M31.5,22.5 L24.5,22.5 L24.5,29.5 L31.5,29.5 L31.5,22.5 Z" id="形状结合" fill="#1B1B1D"></path>
            </g>
        </g>
    </g>
</svg>