<?xml version="1.0" encoding="UTF-8"?>
<svg width="32px" height="20px" viewBox="0 0 32 20" version="1.1" xmlns="http://www.w3.org/2000/svg" xmlns:xlink="http://www.w3.org/1999/xlink">
    <title>形状结合备份</title>
    <defs>
        <filter x="0.0%" y="0.0%" width="100.0%" height="100.0%" filterUnits="objectBoundingBox" id="filter-1">
            <feGaussianBlur stdDeviation="0" in="SourceGraphic"></feGaussianBlur>
        </filter>
    </defs>
    <g id="04-新建视频" stroke="none" stroke-width="1" fill="none" fill-rule="evenodd">
        <g id="01-默认界面" transform="translate(-1872.000000, -655.000000)" fill="#878791">
            <path d="M1888.5,655 L1888.5,657 L1902,657 L1902,664.5 L1904,664.5 L1904,665.5 L1902,665.5 L1902,673 L1888.5,673 L1888.5,675 L1887.5,675 L1887.5,673 L1874,673 L1874,665.5 L1872,665.5 L1872,664.5 L1874,664.5 L1874,657 L1887.5,657 L1887.5,655 L1888.5,655 Z M1901,658 L1888.5,658 L1888.5,660 L1887.5,660 L1887.5,658 L1875,658 L1875,664.5 L1877,664.5 L1877,665.5 L1875,665.5 L1875,672 L1887.5,672 L1887.5,670 L1888.5,670 L1888.5,672 L1901,672 L1901,665.5 L1899,665.5 L1899,664.5 L1901,664.5 L1901,658 Z M1888.5,662.5 L1888.5,664.5 L1890.5,664.5 L1890.5,665.5 L1888.5,665.5 L1888.5,667.5 L1887.5,667.5 L1887.5,665.5 L1885.5,665.5 L1885.5,664.5 L1887.5,664.5 L1887.5,662.5 L1888.5,662.5 Z" id="形状结合备份" filter="url(#filter-1)"></path>
        </g>
    </g>
</svg>