<?xml version="1.0" encoding="UTF-8"?>
<svg width="52px" height="36px" viewBox="0 0 52 36" version="1.1" xmlns="http://www.w3.org/2000/svg" xmlns:xlink="http://www.w3.org/1999/xlink">
    <title>编组 27</title>
    <g id="04-新建视频" stroke="none" stroke-width="1" fill="none" fill-rule="evenodd">
        <g id="05-编辑视频" transform="translate(-40.000000, -807.000000)">
            <g id="编组-27" transform="translate(40.000000, 807.000000)">
                <path d="M48,0 C49.480515,-2.71966192e-16 50.7731656,0.804343236 51.4648015,1.99987956 L48,2 L48,7 L52,7 L52,29 L48,29 L48,34 L51.4642293,34.0011092 C50.7724528,35.1961002 49.4801068,36 48,36 L4,36 C2.5198932,36 1.22754725,35.1961002 0.535770667,34.0011092 L4,34 L4,29 L0,29 L0,7 L4,7 L4,2 L0.535198457,1.99987956 C1.22683444,0.804343236 2.51948501,2.71966192e-16 4,0 L48,0 Z M11,29 L6,29 L6,34 L11,34 L11,29 Z M18,29 L13,29 L13,34 L18,34 L18,29 Z M25,29 L20,29 L20,34 L25,34 L25,29 Z M32,29 L27,29 L27,34 L32,34 L32,29 Z M39,29 L34,29 L34,34 L39,34 L39,29 Z M46,29 L41,29 L41,34 L46,34 L46,29 Z M11,2 L6,2 L6,7 L11,7 L11,2 Z M18,2 L13,2 L13,7 L18,7 L18,2 Z M25,2 L20,2 L20,7 L25,7 L25,2 Z M32,2 L27,2 L27,7 L32,7 L32,2 Z M39,2 L34,2 L34,7 L39,7 L39,2 Z M46,2 L41,2 L41,7 L46,7 L46,2 Z" id="形状结合" fill="#878791"></path>
                <rect id="矩形备份-62" fill="#1B1B1D" x="2" y="9" width="48" height="18"></rect>
                <path d="M30.172986,16.5497956 L24.4815252,13.2246507 C23.6902793,12.7623494 22.6786251,13.0363058 22.2213749,13.837628 C22.0763695,14.092016 22,14.3806486 22,14.6741732 L22,21.3259307 C22.0009667,22.2510225 22.7424275,23.0004887 23.656928,23 C23.9464554,22.9995103 24.230666,22.9222155 24.4815252,22.7759424 L30.172986,19.4503083 C30.6838883,19.1504239 30.9990333,18.5981084 31,18.0002966 C30.9990333,17.4024847 30.6838883,16.84968 30.172986,16.5497956 Z" id="路径备份-6" fill="#878791"></path>
            </g>
        </g>
    </g>
</svg>