<?xml version="1.0" encoding="UTF-8"?>
<svg width="32px" height="20px" viewBox="0 0 32 20" version="1.1" xmlns="http://www.w3.org/2000/svg" xmlns:xlink="http://www.w3.org/1999/xlink">
    <title>形状结合</title>
    <g id="04-新建视频" stroke="none" stroke-width="1" fill="none" fill-rule="evenodd">
        <g id="01-默认界面" transform="translate(-1830.000000, -655.000000)" fill="#F2F2F5">
            <path d="M1846.5,655 L1846.5,657 L1860,657 L1860,664.5 L1862,664.5 L1862,665.5 L1860,665.5 L1860,673 L1846.5,673 L1846.5,675 L1845.5,675 L1845.5,673 L1832,673 L1832,665.5 L1830,665.5 L1830,664.5 L1832,664.5 L1832,657 L1845.5,657 L1845.5,655 L1846.5,655 Z M1859,658 L1846.5,658 L1846.5,660 L1845.5,660 L1845.5,658 L1833,658 L1833,664.5 L1835,664.5 L1835,665.5 L1833,665.5 L1833,672 L1845.5,672 L1845.5,670 L1846.5,670 L1846.5,672 L1859,672 L1859,665.5 L1857,665.5 L1857,664.5 L1859,664.5 L1859,658 Z M1846.5,662.5 L1846.5,664.5 L1848.5,664.5 L1848.5,665.5 L1846.5,665.5 L1846.5,667.5 L1845.5,667.5 L1845.5,665.5 L1843.5,665.5 L1843.5,664.5 L1845.5,664.5 L1845.5,662.5 L1846.5,662.5 Z" id="形状结合"></path>
        </g>
    </g>
</svg>