<?xml version="1.0" encoding="UTF-8"?>
<svg width="60px" height="60px" viewBox="0 0 60 60" version="1.1" xmlns="http://www.w3.org/2000/svg" xmlns:xlink="http://www.w3.org/1999/xlink">
    <title>编组 13</title>
    <g id="频道+优秀创作者+我的订阅" stroke="none" stroke-width="1" fill="none" fill-rule="evenodd">
        <g id="画板" transform="translate(-26.000000, -41.000000)">
            <g id="编组-13" transform="translate(26.000000, 41.000000)">
                <rect id="矩形" fill="#FFFFFF" x="0" y="0" width="60" height="60"></rect>
                <g id="金融" transform="translate(5.000000, 5.000000)">
                    <path d="M25,4 C13.4018988,4 4,13.4018988 4,25 C4,36.597818 13.4018988,46 25,46 C36.597818,46 46,36.597818 46,25 C45.9866897,13.4072795 36.5927205,4.01302712 25,4 M25,50 C11.1928994,50 0,38.8071006 0,25 C0,11.1928994 11.1928994,0 25,0 C38.8071006,0 50,11.1928994 50,25 C49.9837278,38.8002959 38.8005917,49.9837278 25,50" id="Fill-1" fill="#2C2C3B"></path>
                    <path d="M25.0001013,18.0010815 C24.9038939,18.0010815 24.81147,18.0392029 24.7433681,18.1073349 L18.1064092,24.7420888 C17.9645303,24.8840304 17.9645303,25.1141109 18.1064092,25.2557821 L24.7430979,31.89351 C24.8847065,32.0354516 25.1144152,32.0354516 25.2562941,31.8937804 C25.2565643,31.8937804 25.2565643,31.8937804 25.2565643,31.89351 L31.8937935,25.2557821 C32.0354022,25.1138405 32.0354022,24.8840304 31.8937935,24.7420888 L25.2565643,18.1062534 C25.1887327,18.0381214 25.0963087,18 25.0001013,18 L25.0001013,18.0010815 Z M24.9991271,36 C24.0590969,36.001514 23.1570202,35.6285349 22.4926836,34.9633686 L15.0359005,27.5071279 C13.6546998,26.1221241 13.6546998,23.8799974 15.0359005,22.4952973 L22.4938981,15.0378416 C23.8784387,13.6540528 26.1222445,13.6540528 27.506785,15.0378416 L34.9638718,22.4943861 C36.3453761,23.8790862 36.3453761,26.1212129 34.9638718,27.505913 L27.5070887,34.9627612 C26.8424485,35.6285349 25.9397645,36.001514 24.9991271,36 L24.9991271,36 Z" id="Fill-3" fill="#007CFF"></path>
                </g>
            </g>
        </g>
    </g>
</svg>