<?xml version="1.0" encoding="UTF-8"?>
<svg width="60px" height="60px" viewBox="0 0 60 60" version="1.1" xmlns="http://www.w3.org/2000/svg" xmlns:xlink="http://www.w3.org/1999/xlink">
    <title>编组 7</title>
    <g id="频道+优秀创作者+我的订阅" stroke="none" stroke-width="1" fill="none" fill-rule="evenodd">
        <g id="画板备份" transform="translate(-1215.000000, -41.000000)">
            <g id="编组-7" transform="translate(1215.000000, 41.000000)">
                <rect id="矩形备份-2" fill="#FFFFFF" x="0" y="0" width="60" height="60"></rect>
                <path d="M30,4 C22.8202983,4 16.3202983,6.91014913 11.6152237,11.6152237 C6.91014913,16.3202983 4,22.8202983 4,30 C4,37.1797017 6.91014913,43.6797017 11.6152237,48.3847763 C16.3202983,53.0898509 22.8202983,56 30,56 C35.3848465,56 38.0559886,55.8289121 42.0193916,53.0777937 C42.2899531,52.3395824 42.2960865,51.7217251 42.0377707,51.2036705 C41.429689,49.9841579 39.9839751,49.2867956 38.9257796,48.6733219 C37.6823648,47.95247 36.766505,47.2576161 36.4063613,46.6727071 C35.9349048,45.9070153 35.8854593,45.1484488 36.1899634,44.3842524 C36.3218233,44.0533311 36.5462672,43.6795152 37.2521065,43.0720747 C38.0685417,42.4157539 40.0599902,42.2025569 42.8757159,42.4190994 C46.1847281,42.6735779 51.1408775,43.4169328 53.7090785,39.9872592 C54.8679093,37.0367088 56,33.3280056 56,30 C56,22.8202983 53.0898509,16.3202983 48.3847763,11.6152237 C43.6797017,6.91014913 37.1797017,4 30,4 Z" id="椭圆形" stroke="#2C2C3B" stroke-width="4"></path>
                <circle id="椭圆形" fill="#007CFF" cx="16" cy="23" r="3"></circle>
                <circle id="椭圆形备份-5" fill="#007CFF" cx="17" cy="37" r="3"></circle>
                <circle id="椭圆形备份" fill="#007CFF" cx="27" cy="15" r="3"></circle>
                <circle id="椭圆形备份-3" fill="#007CFF" cx="41" cy="17" r="3"></circle>
            </g>
        </g>
    </g>
</svg>