<?xml version="1.0" encoding="UTF-8"?>
<svg width="60px" height="60px" viewBox="0 0 60 60" version="1.1" xmlns="http://www.w3.org/2000/svg" xmlns:xlink="http://www.w3.org/1999/xlink">
    <title>编组 19</title>
    <g id="频道+优秀创作者+我的订阅" stroke="none" stroke-width="1" fill="none" fill-rule="evenodd">
        <g id="画板备份" transform="translate(-198.000000, -193.000000)">
            <g id="编组-19" transform="translate(198.000000, 193.000000)">
                <rect id="矩形" fill="#FFFFFF" x="0" y="0" width="60" height="60"></rect>
                <g id="数学" transform="translate(5.000000, 5.000000)">
                    <rect id="矩形" stroke="#565664" stroke-width="4" x="2" y="2" width="46" height="46"></rect>
                    <path d="M15,8 C16.1045695,8 17,8.8954305 17,10 L17,13 L20,13 C21.1045695,13 22,13.8954305 22,15 C22,16.1045695 21.1045695,17 20,17 L16.999,17 L17,20 C17,21.1045695 16.1045695,22 15,22 C13.8954305,22 13,21.1045695 13,20 L12.999,17 L10,17 C8.8954305,17 8,16.1045695 8,15 C8,13.8954305 8.8954305,13 10,13 L13,13 L13,10 C13,8.8954305 13.8954305,8 15,8 Z" id="形状结合" fill="#9E9EA6"></path>
                    <path d="M14.8994949,27.8994949 C16.0040644,27.8994949 16.8994949,28.7949254 16.8994949,29.8994949 L16.8994949,32.8994949 L19.8994949,32.8994949 C21.0040644,32.8994949 21.8994949,33.7949254 21.8994949,34.8994949 C21.8994949,36.0040644 21.0040644,36.8994949 19.8994949,36.8994949 L16.8994949,36.8994949 L16.8994949,39.8994949 C16.8994949,41.0040644 16.0040644,41.8994949 14.8994949,41.8994949 C13.7949254,41.8994949 12.8994949,41.0040644 12.8994949,39.8994949 L12.8994949,36.8994949 L9.89949494,36.8994949 C8.79492544,36.8994949 7.89949494,36.0040644 7.89949494,34.8994949 C7.89949494,33.7949254 8.79492544,32.8994949 9.89949494,32.8994949 L12.8994949,32.8994949 L12.8994949,29.8994949 C12.8994949,28.7949254 13.7949254,27.8994949 14.8994949,27.8994949 Z" id="形状结合" fill="#565664" transform="translate(14.899495, 34.899495) rotate(45.000000) translate(-14.899495, -34.899495) "></path>
                    <rect id="矩形备份-16" fill="#565664" x="28" y="10" width="14" height="4"></rect>
                    <path d="M35,38 C36.1045695,38 37,38.8954305 37,40 C37,41.1045695 36.1045695,42 35,42 C33.8954305,42 33,41.1045695 33,40 C33,38.8954305 33.8954305,38 35,38 Z M40,33 C41.1045695,33 42,33.8954305 42,35 C42,36.1045695 41.1045695,37 40,37 L30,37 C28.8954305,37 28,36.1045695 28,35 C28,33.8954305 28.8954305,33 30,33 L40,33 Z M35,28 C36.1045695,28 37,28.8954305 37,30 C37,31.1045695 36.1045695,32 35,32 C33.8954305,32 33,31.1045695 33,30 C33,28.8954305 33.8954305,28 35,28 Z" id="形状结合" fill="#9E9EA6"></path>
                    <rect id="矩形备份-17" fill="#565664" x="28" y="16" width="14" height="4"></rect>
                </g>
            </g>
        </g>
    </g>
</svg>