<?xml version="1.0" encoding="UTF-8"?>
<svg width="60px" height="60px" viewBox="0 0 60 60" version="1.1" xmlns="http://www.w3.org/2000/svg" xmlns:xlink="http://www.w3.org/1999/xlink">
    <title>编组</title>
    <g id="频道+优秀创作者+我的订阅" stroke="none" stroke-width="1" fill="none" fill-rule="evenodd">
        <g id="画板备份" transform="translate(-999.000000, -41.000000)">
            <g id="编组" transform="translate(999.000000, 41.000000)">
                <rect id="矩形" fill="#FFFFFF" x="0" y="0" width="60" height="60"></rect>
                <path d="M9,7.19323165 C7.8954305,7.19323165 6.8954305,7.6409469 6.17157288,8.36480452 C5.44771525,9.08866215 5,10.0886621 5,11.1932316 L5,42.1032717 C5,42.8932224 5.23248532,43.6461678 5.64538993,44.281939 C6.05829455,44.9177103 6.65161847,45.4363073 7.37329566,45.7575614 L29.1464702,55.4498739 C29.6634666,55.6800145 30.2537602,55.6803614 30.7710267,55.4508286 L52.6224085,45.7544558 C53.3452418,45.4337044 53.9396397,44.9150562 54.3533292,44.2788951 C54.7670188,43.642734 55,42.8890599 55,42.0982569 L55,11.2728594 C55,10.7078266 54.8802915,10.1492047 54.6487592,9.63378758 C54.196142,8.62621055 53.3779728,7.89748012 52.4210636,7.53379823 C51.4641544,7.17011635 50.3685052,7.17148302 49.3609282,7.62410021 L32.7280025,15.0958347 C31.1792304,15.7915639 29.4082024,15.7985425 27.8539956,15.1150403 L10.6102661,7.5316687 C10.1027649,7.30848209 9.55440927,7.19323165 9,7.19323165 Z" id="矩形" stroke="#2C2C3B" stroke-width="4"></path>
                <rect id="矩形" fill="#007CFF" x="28" y="24" width="4" height="22"></rect>
            </g>
        </g>
    </g>
</svg>