<?xml version="1.0" encoding="UTF-8"?>
<svg width="48px" height="48px" viewBox="0 0 48 48" version="1.1" xmlns="http://www.w3.org/2000/svg" xmlns:xlink="http://www.w3.org/1999/xlink">
    <title>编组 18</title>
    <g id="频道+优秀创作者+我的订阅" stroke="none" stroke-width="1" fill="none" fill-rule="evenodd">
        <g id="画板备份" transform="translate(-504.000000, -206.000000)">
            <g id="编组-18" transform="translate(504.000000, 206.000000)">
                <rect id="矩形" fill="#FFFFFF" x="0" y="0" width="48" height="48"></rect>
                <g id="编组-13" transform="translate(5.000000, 1.000000)">
                    <path d="M22,36.5 L16,36.5 C15.5857864,36.5 15.2107864,36.6678932 14.9393398,36.9393398 C14.6678932,37.2107864 14.5,37.5857864 14.5,38 L14.5,43.5 L23.5,43.5 L23.5,38 C23.5,37.5857864 23.3321068,37.2107864 23.0606602,36.9393398 C22.7892136,36.6678932 22.4142136,36.5 22,36.5 Z" id="矩形" stroke="#9E9EA6" stroke-width="3"></path>
                    <path d="M26.3672292,30.4866059 C21.5654572,29.8405781 16.6991714,29.8348625 11.8958951,30.469609 L7.67247584,31.0277281 C7.05082344,31.1098786 6.50770448,31.4159633 6.11999862,31.8582746 C5.73229276,32.3005859 5.5,32.8791238 5.5,33.5061808 L5.5,41 C5.5,41.6903559 5.77982203,42.3153559 6.23223305,42.767767 C6.68464406,43.220178 7.30964406,43.5 8,43.5 L30,43.5 C30.6903559,43.5 31.3153559,43.220178 31.767767,42.767767 C32.220178,42.3153559 32.5,41.6903559 32.5,41 L32.5,33.4978815 C32.5,32.8719417 32.2685116,32.2942533 31.8819356,31.8521846 C31.4953596,31.4101158 30.9536959,31.1036667 30.3333453,31.020205 L26.3672292,30.4866059 Z" id="矩形" stroke="#565664" stroke-width="3"></path>
                    <path d="" id="路径" stroke="#565664" stroke-width="3" fill="#D8D8D8"></path>
                    <path d="" id="路径" stroke="#565664" stroke-width="3" fill="#D8D8D8"></path>
                    <path d="" id="路径" stroke="#565664" stroke-width="3" fill="#D8D8D8"></path>
                    <rect id="矩形" fill="#9E9EA6" x="18" y="0" width="3" height="5"></rect>
                </g>
            </g>
        </g>
    </g>
</svg>