<?xml version="1.0" encoding="UTF-8"?>
<svg width="60px" height="60px" viewBox="0 0 60 60" version="1.1" xmlns="http://www.w3.org/2000/svg" xmlns:xlink="http://www.w3.org/1999/xlink">
    <title>编组 26</title>
    <g id="频道+优秀创作者+我的订阅" stroke="none" stroke-width="1" fill="none" fill-rule="evenodd">
        <g id="画板" transform="translate(-1159.000000, -41.000000)">
            <g id="编组-26" transform="translate(1159.000000, 41.000000)">
                <rect id="矩形备份-11" fill="#FFFFFF" x="0" y="0" width="60" height="60"></rect>
                <g id="编组-14" transform="translate(5.000000, 5.000000)">
                    <path d="M44,2 L6,2 C4.8954305,2 3.8954305,2.44771525 3.17157288,3.17157288 C2.44771525,3.8954305 2,4.8954305 2,6 L2,36 C2,37.1045695 2.44771525,38.1045695 3.17157288,38.8284271 C3.8954305,39.5522847 4.8954305,40 6,40 L44,40 C45.1045695,40 46.1045695,39.5522847 46.8284271,38.8284271 C47.5522847,38.1045695 48,37.1045695 48,36 L48,6 C48,4.8954305 47.5522847,3.8954305 46.8284271,3.17157288 C46.1045695,2.44771525 45.1045695,2 44,2 Z" id="形状结合" stroke="#2C2C3B" stroke-width="4"></path>
                    <path d="M36.4751782,14.621862 L36.5828198,14.7447464 L40.5235216,19.6280884 C40.8136296,19.987592 40.969353,20.4130945 40.9960881,20.8428699 L41.0000779,21.0042658 C41.0061841,21.4878799 40.8498931,21.9758513 40.5235216,22.3802928 L36.5828198,27.2636348 C35.8925457,28.1190267 34.6395357,28.2528811 33.7841438,27.562607 C33.7642961,27.5465906 33.7447582,27.5301941 33.7255408,27.5134267 C32.8553204,26.7541504 32.7406868,25.4428981 33.4659566,24.5441392 L36.3217848,21.0039975 L33.4659566,17.464242 C32.7769503,16.6104211 32.8459568,15.3843248 33.6006851,14.6128652 L33.7255408,14.4949545 C33.7447582,14.4781871 33.7642961,14.4617906 33.7841438,14.4457742 C34.5967661,13.7900138 35.7682387,13.8780294 36.4751782,14.621862 Z M16.2158562,14.4457742 C16.2357039,14.4617906 16.2552418,14.4781871 16.2744592,14.4949545 C17.1446796,15.2542307 17.2593132,16.5654831 16.5340434,17.464242 L13.6773065,21.0039975 L16.5340434,24.5441392 C17.2230497,25.3979601 17.1540432,26.6240564 16.3993149,27.395516 L16.2744592,27.5134267 C16.2552418,27.5301941 16.2357039,27.5465906 16.2158562,27.562607 C15.4032339,28.2183674 14.2317613,28.1303518 13.5248218,27.3865192 L13.4171802,27.2636348 L9.47647835,22.3802928 C9.15010692,21.9758513 8.99381594,21.4878799 8.99992205,21.0042658 L9.00391193,20.8428699 C9.03064703,20.4130945 9.18637041,19.987592 9.47647835,19.6280884 L13.4171802,14.7447464 C14.1074543,13.8893545 15.3604643,13.7555001 16.2158562,14.4457742 Z M27.9776208,14.9129969 C28.933512,15.371362 29.3368366,16.5178432 28.8784715,17.4737343 L28.8667938,17.4976604 L28.8667938,17.4976604 L24.3802175,26.5305947 C23.9001214,27.497184 22.7326081,27.8988306 21.7594529,27.4321872 C20.8035617,26.9738221 20.4002371,25.8273409 20.8586022,24.8714497 L20.8702799,24.8475236 L20.8702799,24.8475236 L25.3568562,15.8145893 C25.8369523,14.848 27.0044656,14.4463534 27.9776208,14.9129969 Z" id="形状结合" fill="#007CFF"></path>
                </g>
            </g>
        </g>
    </g>
</svg>