<?xml version="1.0" encoding="UTF-8"?>
<svg width="60px" height="60px" viewBox="0 0 60 60" version="1.1" xmlns="http://www.w3.org/2000/svg" xmlns:xlink="http://www.w3.org/1999/xlink">
    <title>编组 19</title>
    <g id="频道+优秀创作者+我的订阅" stroke="none" stroke-width="1" fill="none" fill-rule="evenodd">
        <g id="画板" transform="translate(-366.000000, -41.000000)">
            <g id="编组-19" transform="translate(366.000000, 41.000000)">
                <rect id="矩形" fill="#FFFFFF" x="0" y="0" width="60" height="60"></rect>
                <g id="数学" transform="translate(5.000000, 5.000000)">
                    <rect id="矩形" stroke="#2C2C3B" stroke-width="4" x="2" y="2" width="46" height="46"></rect>
                    <rect id="矩形" fill="#007CFF" x="8" y="13" width="14" height="4"></rect>
                    <path d="M14.8994949,27.8994949 C16.0040644,27.8994949 16.8994949,28.7949254 16.8994949,29.8994949 L16.8994949,32.8994949 L19.8994949,32.8994949 C21.0040644,32.8994949 21.8994949,33.7949254 21.8994949,34.8994949 C21.8994949,36.0040644 21.0040644,36.8994949 19.8994949,36.8994949 L16.8994949,36.8994949 L16.8994949,39.8994949 C16.8994949,41.0040644 16.0040644,41.8994949 14.8994949,41.8994949 C13.7949254,41.8994949 12.8994949,41.0040644 12.8994949,39.8994949 L12.8994949,36.8994949 L9.89949494,36.8994949 C8.79492544,36.8994949 7.89949494,36.0040644 7.89949494,34.8994949 C7.89949494,33.7949254 8.79492544,32.8994949 9.89949494,32.8994949 L12.8994949,32.8994949 L12.8994949,29.8994949 C12.8994949,28.7949254 13.7949254,27.8994949 14.8994949,27.8994949 Z" id="形状结合" fill="#2C2C3B" transform="translate(14.899495, 34.899495) rotate(45.000000) translate(-14.899495, -34.899495) "></path>
                    <rect id="矩形备份-16" fill="#2C2C3B" x="28" y="10" width="14" height="4"></rect>
                    <g id="编组-12" transform="translate(28.000000, 28.000000)" fill="#007CFF">
                        <rect id="矩形备份-25" x="0" y="5" width="14" height="4"></rect>
                        <circle id="椭圆形" cx="7" cy="2" r="2"></circle>
                        <circle id="椭圆形备份-2" cx="7" cy="12" r="2"></circle>
                    </g>
                    <rect id="矩形备份-17" fill="#2C2C3B" x="28" y="16" width="14" height="4"></rect>
                    <rect id="矩形备份-13" fill="#007CFF" transform="translate(15.000000, 15.000000) rotate(-270.000000) translate(-15.000000, -15.000000) " x="8" y="13" width="14" height="4"></rect>
                </g>
            </g>
        </g>
    </g>
</svg>