<?xml version="1.0" encoding="UTF-8"?>
<svg width="48px" height="48px" viewBox="0 0 48 48" version="1.1" xmlns="http://www.w3.org/2000/svg" xmlns:xlink="http://www.w3.org/1999/xlink">
    <title>编组 13备份 4</title>
    <g id="频道+优秀创作者+我的订阅" stroke="none" stroke-width="1" fill="none" fill-rule="evenodd">
        <g id="画板备份" transform="translate(-85.000000, -50.000000)">
            <g id="编组-13备份-4" transform="translate(85.000000, 50.000000)">
                <rect id="矩形" fill="#FFFFFF" x="0" y="0" width="48" height="48"></rect>
                <path d="M31,4.5 L18,4.5 C16.4812169,4.5 15.1062169,5.11560847 14.1109127,6.1109127 C13.1156085,7.10621694 12.5,8.48121694 12.5,10 L12.5,17.5 C12.5,20.8137085 13.8431458,23.8137085 16.0147186,25.9852814 C18.1862915,28.1568542 21.1862915,29.5 24.5,29.5 C27.8137085,29.5 30.8137085,28.1568542 32.9852814,25.9852814 C35.1568542,23.8137085 36.5,20.8137085 36.5,17.5 L36.5,10 C36.5,8.48121694 35.8843915,7.10621694 34.8890873,6.1109127 C33.8937831,5.11560847 32.5187831,4.5 31,4.5 Z" id="矩形" stroke="#303234" stroke-width="3"></path>
                <path d="M24.5,12.7595515 L23.4007098,14.9869568 L20.942622,15.3441378 L22.721311,17.0779311 L22.3014195,19.5260864 L24.5,18.3702243 L26.6985805,19.5260864 L26.278689,17.0779311 L28.057378,15.3441378 L25.5992902,14.9869568 L24.5,12.7595515 Z" id="星形" stroke="#007CFF" stroke-width="2"></path>
                <path d="M12.5,11.5 L6.5,12 L6.5,15.5 C6.5,16.6045695 6.94771525,17.6045695 7.67157288,18.3284271 C8.3954305,19.0522847 9.3954305,19.5 10.5,19.5 L12.5,19.5 L12.5,11.5 Z" id="矩形" stroke="#303234" stroke-width="3"></path>
                <path d="M42.5,11.5 L36.5,12 L36.5,15.5 C36.5,16.6045695 36.9477153,17.6045695 37.6715729,18.3284271 C38.3954305,19.0522847 39.3954305,19.5 40.5,19.5 L42.5,19.5 L42.5,11.5 Z" id="矩形备份-25" stroke="#303234" stroke-width="3" transform="translate(39.500000, 15.500000) scale(-1, 1) translate(-39.500000, -15.500000) "></path>
                <line x1="24.5" y1="31.5" x2="24.5" y2="42.5" id="直线" stroke="#303234" stroke-width="3" stroke-linecap="square"></line>
                <line x1="15.5" y1="43.5" x2="33.5" y2="43.5" id="直线-2" stroke="#303234" stroke-width="3" stroke-linecap="round"></line>
            </g>
        </g>
    </g>
</svg>