<?xml version="1.0" encoding="UTF-8"?>
<svg width="60px" height="60px" viewBox="0 0 60 60" version="1.1" xmlns="http://www.w3.org/2000/svg" xmlns:xlink="http://www.w3.org/1999/xlink">
    <title>编组 23</title>
    <g id="频道+优秀创作者+我的订阅" stroke="none" stroke-width="1" fill="none" fill-rule="evenodd">
        <g id="画板" transform="translate(-819.000000, -41.000000)">
            <g id="编组-23" transform="translate(819.000000, 41.000000)">
                <rect id="矩形" fill="#FFFFFF" x="0" y="0" width="60" height="60"></rect>
                <g id="编组-11" transform="translate(0.000000, 7.000000)">
                    <path d="M43.8823529,2 L35.1935751,2.00425496 C33.7509932,2.06068634 32.4532068,2.6778184 31.5151861,3.64299422 C30.5776455,4.60767603 30,5.92085408 30,7.36842105 L30,17.9995167 L14.7076493,18.0032126 C11.1847781,18.0807321 8.00761508,19.5600543 5.71123575,21.9050017 C3.41536821,24.2494265 2,27.4594332 2,31 C2,34.5898509 3.45507456,37.8398509 5.80761184,40.1923882 C8.16014913,42.5449254 11.4101491,44 15,44 C19.162218,44 22.8674189,42.0437878 25.2469479,39.0010565 L34.7530521,39.0010565 C37.1325811,42.0437878 40.837782,44 45,44 C48.5898509,44 51.8398509,42.5449254 54.1923882,40.1923882 C56.5449254,37.8398509 58,34.5898509 58,31 C58,27.4101491 56.5449254,24.1601491 54.1923882,21.8076118 C51.8398509,19.4550746 48.5898509,18 45,18 L30.2337097,18 L30.2407195,7.13094314 C30.3042345,5.7459284 30.9148941,4.50204252 31.8653512,3.61115127 C32.7911261,2.7433954 34.0387014,2.21052632 35.4117647,2.21052632 L43.8823529,2 Z" id="形状结合" stroke="#2C2C3B" stroke-width="4"></path>
                    <path d="M10,29 L20,29 C21.1045695,29 22,29.8954305 22,31 C22,32.1045695 21.1045695,33 20,33 L10,33 C8.8954305,33 8,32.1045695 8,31 C8,29.8954305 8.8954305,29 10,29 Z" id="矩形备份-55" fill="#007CFF" transform="translate(15.000000, 31.000000) rotate(-270.000000) translate(-15.000000, -31.000000) "></path>
                    <path d="M10,29 L20,29 C21.1045695,29 22,29.8954305 22,31 C22,32.1045695 21.1045695,33 20,33 L10,33 C8.8954305,33 8,32.1045695 8,31 C8,29.8954305 8.8954305,29 10,29 Z" id="矩形备份-55" fill="#007CFF"></path>
                    <circle id="椭圆形" stroke="#007CFF" stroke-width="4" cx="45" cy="31" r="5"></circle>
                </g>
            </g>
        </g>
    </g>
</svg>