<?xml version="1.0" encoding="UTF-8"?>
<svg width="60px" height="60px" viewBox="0 0 60 60" version="1.1" xmlns="http://www.w3.org/2000/svg" xmlns:xlink="http://www.w3.org/1999/xlink">
    <title>编组</title>
    <g id="页面-1" stroke="none" stroke-width="1" fill="none" fill-rule="evenodd">
        <g id="画板备份" transform="translate(-671.000000, -193.000000)">
            <g id="编组" transform="translate(671.000000, 193.000000)">
                <rect id="蒙版备份" fill="#FFFFFF" x="0" y="0" width="60" height="60"></rect>
                <path d="M21.2368471,21.1455011 C21.931401,19.5227499 24.2061489,19.5451861 24.8993108,21.1101595 L24.9613476,21.2664205 L28.0185813,29.923 L30.8660654,29.9236684 C31.4148435,29.9236684 31.931309,30.1484903 32.3031949,30.532678 L32.4235813,30.668 L33.8265517,25.2160314 C34.2851655,23.433006 36.6769383,23.1844852 37.5194221,24.7553033 L37.5937598,24.9079063 L39.8025813,29.923 L46.4712143,29.9236684 C47.5255761,29.9236684 48.3893794,30.7395462 48.4657286,31.7744061 L48.4712143,31.9236684 C48.4712143,32.9780302 47.6553365,33.8418335 46.6204767,33.9181827 L46.4712143,33.9236684 L38.4991134,33.9236684 C37.7592267,33.9236684 37.0845175,33.5158011 36.737995,32.8715979 L36.6688593,32.7299995 L36.2615813,31.805 L35.072218,36.4306737 C34.6374776,38.1208827 32.4215753,38.4638127 31.4792785,37.054915 L31.3947627,36.9176862 L29.6995813,33.923 L26.6042417,33.9236684 C25.8094225,33.9236684 25.0955656,33.4538581 24.7767974,32.7364358 L24.7184047,32.5897156 L22.8965813,27.432 L20.6378388,32.710635 C20.3438907,33.3974134 19.6942036,33.8588923 18.9581296,33.9173705 L18.7991753,33.9236684 L3.90201249,33.9236684 C2.79744299,33.9236684 1.90201249,33.0282379 1.90201249,31.9236684 C1.90201249,30.8693066 2.71789028,30.0055033 3.75275014,29.9291541 L3.90201249,29.9236684 L17.4785813,29.923 L21.2368471,21.1455011 Z" id="路径-5备份" fill="#9E9EA6" fill-rule="nonzero"></path>
                <path d="M54.0757919,6.6095795 C60.015733,11.9656807 60.7210178,21.245665 55.7229196,27.4964188 L55.5020157,27.7662608 L31.6362114,56.2447274 C31.5853559,56.3054118 31.531018,56.3628591 31.4734935,56.4167561 C31.0308239,56.8315115 30.4534991,56.9936948 29.9058632,56.9119718 C29.379949,56.9722355 28.832237,56.8094922 28.4067058,56.4148198 C28.3465012,56.3589811 28.289739,56.299273 28.2367549,56.2360484 L15.9011209,41.5156268 L14.5394689,39.9520819 C13.7671904,39.0652973 13.860016,37.7203609 14.7468006,36.9480824 C15.1491616,36.5976763 15.6666081,36.4125254 16.1957814,36.4251421 L16.372465,36.4367169 L29.9507657,52.3675849 L52.4650314,25.4583136 C56.3420748,20.8244332 55.9708587,13.8343482 51.6265887,9.67024588 C47.4407462,5.65800067 40.9118354,5.92529253 37.0438584,10.267259 L36.8494885,10.4917125 L29.9266614,18.7148514 L22.9390702,10.5173073 C19.1015271,6.08948027 12.5301869,5.72699291 8.2615711,9.70766909 C4.01157914,13.6709777 3.54007347,20.3868975 7.14045581,24.9427465 C8.14917257,27.2477967 4.78801343,28.7848639 3.01742671,25.8598596 C-0.297384013,20.421051 0.363865081,11.5154044 5.80444767,6.6095795 C11.7132274,1.28157686 20.6230017,1.84441796 25.8686358,7.81464758 L26.1451793,8.1385375 L29.8784703,12.6392436 L33.6888629,8.08834434 C38.9248913,1.84032285 48.0524303,1.17825728 54.0757919,6.6095795 Z" id="路径备份" fill="#2C2C3B" fill-rule="nonzero"></path>
            </g>
        </g>
    </g>
</svg>