<?xml version="1.0" encoding="UTF-8"?>
<svg width="60px" height="60px" viewBox="0 0 60 60" version="1.1" xmlns="http://www.w3.org/2000/svg" xmlns:xlink="http://www.w3.org/1999/xlink">
    <title>编组 5备份</title>
    <g id="频道+优秀创作者+我的订阅" stroke="none" stroke-width="1" fill="none" fill-rule="evenodd">
        <g id="画板备份" transform="translate(-557.000000, -193.000000)">
            <g id="编组-5备份" transform="translate(557.000000, 193.000000)">
                <rect id="矩形" fill="#FFFFFF" x="0" y="0" width="60" height="60"></rect>
                <path d="M30,10 L30,20 C30,21.1045695 29.1045695,22 28,22 L20,22 C18.8954305,22 18,21.1045695 18,20 L18,15 L22,16 C22,17.0543618 22.8158778,17.9181651 23.8507377,17.9945143 L24,18 C25.0543618,18 25.9181651,17.1841222 25.9945143,16.1492623 L26,16 L26,10 L30,10 Z" id="路径" fill="#9E9EA6"></path>
                <path d="M43,10 L43,20 C43,21.1045695 42.1045695,22 41,22 L33,22 C31.8954305,22 31,21.1045695 31,20 L31,15 L35,16 C35,17.0543618 35.8158778,17.9181651 36.8507377,17.9945143 L37,18 C38.0543618,18 38.9181651,17.1841222 38.9945143,16.1492623 L39,16 L39,10 L43,10 Z" id="路径备份" fill="#9E9EA6" transform="translate(37.000000, 16.000000) scale(-1, 1) translate(-37.000000, -16.000000) "></path>
                <path d="M50,10 L10,10 L10,31.5283019 C10,32.055455 10.2207819,32.5309042 10.5722542,32.8757449 C10.9376462,33.2342428 11.4432929,33.4528302 12,33.4528302 L16,33.4528302 L16.1472408,56.194217 L16.1472408,37.4528302 C16.1472408,36.3482607 16.594956,35.3482607 17.3188136,34.6244031 C18.0426713,33.9005454 19.0426713,33.4528302 20.1472408,33.4528302 L25.9231974,33.4528302 C27.0277669,33.4528302 28.0277669,33.9005454 28.7516246,34.6244031 C29.4754822,35.3482607 29.9231974,36.3482607 29.9231974,37.4528302 L30.0768026,56.1161637 L30.0768026,37.4528302 C30.0768026,36.3482607 30.5245178,35.3482607 31.2483754,34.6244031 C31.9722331,33.9005454 32.9722331,33.4528302 34.0768026,33.4528302 L39.8527592,33.4528302 C40.9573287,33.4528302 41.9573287,33.9005454 42.6811864,34.6244031 C43.405044,35.3482607 43.8527592,36.3482607 43.8527592,37.4528302 L44,56.0377358 L44,33.4528302 L48,33.4528302 C48.5567071,33.4528302 49.0623538,33.2342428 49.4277458,32.8757449 C49.7792181,32.5309042 50,32.055455 50,31.5283019 L50,10 Z" id="路径" stroke="#565664" stroke-width="4"></path>
                <rect id="矩形" fill="#565664" x="12" y="31" width="36" height="4"></rect>
                <path d="M7,2 C9.76142375,2 12,4.23857625 12,7 L12,12 L12,12 L8,12 L7,2 Z" id="矩形" fill="#565664"></path>
                <path d="M48,2 C50.7614237,2 53,4.23857625 53,7 L53,12 L53,12 L49,12 L48,2 Z" id="矩形备份-4" fill="#565664" transform="translate(50.500000, 7.000000) scale(-1, 1) translate(-50.500000, -7.000000) "></path>
                <path d="M0,8 L60,8 C60,10.209139 58.209139,12 56,12 L4,12 C1.790861,12 2.705415e-16,10.209139 0,8 L0,8 L0,8 Z" id="矩形" fill="#565664"></path>
            </g>
        </g>
    </g>
</svg>