<?xml version="1.0" encoding="UTF-8"?>
<svg width="60px" height="60px" viewBox="0 0 60 60" version="1.1" xmlns="http://www.w3.org/2000/svg" xmlns:xlink="http://www.w3.org/1999/xlink">
    <title>编组 20</title>
    <g id="频道+优秀创作者+我的订阅" stroke="none" stroke-width="1" fill="none" fill-rule="evenodd">
        <g id="画板" transform="translate(-479.000000, -41.000000)">
            <g id="编组-20" transform="translate(479.000000, 41.000000)">
                <rect id="矩形" fill="#FFFFFF" x="0" y="0" width="60" height="60"></rect>
                <g id="物理" transform="translate(5.000000, 5.000000)" fill-rule="nonzero">
                    <path d="M15,12 L15,16 L6,16 C4.9456382,16 4.08183488,16.8158778 4.00548574,17.8507377 L4,18 L4,39 C4,40.0543618 4.81587779,40.9181651 5.85073766,40.9945143 L6,41 L13,41 L13,40 C13,37.8578046 14.6839685,36.1089211 16.8003597,36.0048953 L17,36 L33,36 C35.209139,36 37,37.790861 37,40 L37,40 L37,41 L44,41 L44.1492623,40.9945143 C45.1841222,40.9181651 46,40.0543618 46,39 L46,39 L46,18 L45.9945143,17.8507377 C45.9181651,16.8158778 45.0543618,16 44,16 L44,16 L35,16 L34.8507377,15.9945143 C33.8158778,15.9181651 33,15.0543618 33,14 C33,12.8954305 33.8954305,12 35,12 L35,12 L44,12 L44.2249383,12.0041385 C47.4344251,12.1224282 50,14.7616031 50,18 L50,18 L50,39 L49.9958615,39.2249383 C49.8775718,42.4344251 47.2383969,45 44,45 L44,45 L37,45 L37,46 C37,48.1421954 35.3160315,49.8910789 33.1996403,49.9951047 L33,50 L17,50 C14.790861,50 13,48.209139 13,46 L13,46 L13,45 L6,45 C2.76160306,45 0.122428238,42.4344251 0.00413847206,39.2249383 L0,39 L0,18 C0,14.7616031 2.56557489,12.1224282 5.77506174,12.0041385 L6,12 L15,12 Z M33,40 L17,40 L17,46 L33,46 L33,40 Z" id="形状结合" fill="#2C2C3B"></path>
                    <path d="M17,8 C13.6862915,8 11,10.6862915 11,14 C11,17.3137085 13.6862915,20 17,20 C20.3137085,20 23,17.3137085 23,14 C23,10.6862915 20.3137085,8 17,8 Z M17,12 C18.1045695,12 19,12.8954305 19,14 C19,15.1045695 18.1045695,16 17,16 C15.8954305,16 15,15.1045695 15,14 C15,12.8954305 15.8954305,12 17,12 Z" id="椭圆形" fill="#007CFF"></path>
                    <path d="M33.8374229,0.372680132 C34.7362325,-0.269323602 35.9853111,-0.0611448591 36.627318,0.837660368 C37.2199398,1.66732673 37.0881421,2.79544564 36.3574208,3.46904646 L36.1623355,3.62754178 L22.1625771,13.6273199 C21.2637675,14.2693236 20.0146889,14.0611449 19.372682,13.1623396 C18.7800602,12.3326733 18.9118579,11.2045544 19.6425792,10.5309535 L19.8376645,10.3724582 L33.8374229,0.372680132 Z" id="路径-6" fill="#007CFF"></path>
                </g>
            </g>
        </g>
    </g>
</svg>