<?xml version="1.0" encoding="UTF-8"?>
<svg width="60px" height="60px" viewBox="0 0 60 60" version="1.1" xmlns="http://www.w3.org/2000/svg" xmlns:xlink="http://www.w3.org/1999/xlink">
    <title>编组 28</title>
    <g id="频道+优秀创作者+我的订阅" stroke="none" stroke-width="1" fill="none" fill-rule="evenodd">
        <g id="画板" transform="translate(-1386.000000, -41.000000)">
            <g id="编组-28" transform="translate(1386.000000, 41.000000)">
                <rect id="矩形备份-14" fill="#FFFFFF" x="0" y="0" width="60" height="60"></rect>
                <g id="编组-10" transform="translate(6.000000, 5.000000)" fill-rule="nonzero">
                    <path d="M5.0959567,13.9944876 C3.17513053,15.1790548 2,17.2289133 2,19.4393674 L2,41.5315234 C2,43.3110261 2.74816514,44.9191471 3.94893091,46.0843057 C5.17181523,47.2709269 6.86254113,48 8.72727273,48 L39.2727273,48 C41.1374589,48 42.8281848,47.2709269 44.0510691,46.0843057 C45.2518349,44.9191471 46,43.3110261 46,41.5315234 L46,19.4418602 C46,17.2316177 44.8250923,15.1819227 42.9045597,13.9972989 L27.6315746,3.0239005 C26.5236682,2.34043536 25.261618,2.00005587 24.0000724,2.00000001 C22.7385244,1.99994415 21.4764399,2.34021317 20.3684673,3.02358199 L5.0959567,13.9944876 Z" id="路径" stroke="#2C2C3B" stroke-width="4"></path>
                    <path d="M24.4057224,17.1133904 C25.8911401,15.6288699 28.2984308,15.6288699 29.7838484,17.1133904 L29.7838484,17.1133904 L34.8860216,22.2153519 C36.3712884,23.7006192 36.3712884,26.1088296 34.8860082,27.594559 L34.8860082,27.594559 L23.642455,38.8379023 C22.9376218,39.5431845 21.9840146,39.943536 20.9872849,39.9525115 L20.9872849,39.9525115 L15.8383404,40 C13.9150462,40.0173601 12.2884892,38.5979322 12.0212023,36.5813529 L12.0212023,36.5813529 L12,36.212924 L12.0473293,31.0129309 C12.0563082,30.0158278 12.4566594,29.0622206 13.1614777,28.3578509 L13.1614777,28.3578509 Z M22.172,25.001 L16.0459997,31.127999 L16.0019997,35.9979986 L20.8679994,35.9519987 L26.995,29.824 L22.172,25.001 Z M27.093999,20.0799997 L25.001,22.172 L29.824,26.995 L31.9179987,24.9039994 L27.093999,20.0799997 Z" id="形状结合" fill="#007CFF"></path>
                </g>
            </g>
        </g>
    </g>
</svg>