<?xml version="1.0" encoding="UTF-8"?>
<svg width="60px" height="60px" viewBox="0 0 60 60" version="1.1" xmlns="http://www.w3.org/2000/svg" xmlns:xlink="http://www.w3.org/1999/xlink">
    <title>编组 21</title>
    <g id="频道+优秀创作者+我的订阅" stroke="none" stroke-width="1" fill="none" fill-rule="evenodd">
        <g id="画板" transform="translate(-593.000000, -41.000000)">
            <g id="编组-21" transform="translate(593.000000, 41.000000)">
                <rect id="矩形" fill="#FFFFFF" x="0" y="0" width="60" height="60"></rect>
                <g id="电子工程" transform="translate(5.000000, 5.000000)">
                    <rect id="矩形" stroke="#007CFF" stroke-width="4" x="19" y="19" width="12" height="12"></rect>
                    <path d="M15,42 C16.1045695,42 17,42.8954305 17,44 L17,50 L17,50 L13,50 L13,44 C13,42.8954305 13.8954305,42 15,42 Z" id="矩形备份-31" fill="#2C2C3B" transform="translate(15.000000, 46.000000) scale(1, -1) translate(-15.000000, -46.000000) "></path>
                    <path d="M46,27 C47.1045695,27 48,27.8954305 48,29 L48,35 L48,35 L44,35 L44,29 C44,27.8954305 44.8954305,27 46,27 Z" id="矩形备份-38" fill="#2C2C3B" transform="translate(46.000000, 31.000000) scale(1, -1) rotate(-270.000000) translate(-46.000000, -31.000000) "></path>
                    <path d="M23,42 C24.1045695,42 25,42.8954305 25,44 L25,50 L25,50 L21,50 L21,44 C21,42.8954305 21.8954305,42 23,42 Z" id="矩形备份-32" fill="#2C2C3B" transform="translate(23.000000, 46.000000) scale(1, -1) translate(-23.000000, -46.000000) "></path>
                    <path d="M46,19 C47.1045695,19 48,19.8954305 48,21 L48,27 L48,27 L44,27 L44,21 C44,19.8954305 44.8954305,19 46,19 Z" id="矩形备份-39" fill="#2C2C3B" transform="translate(46.000000, 23.000000) scale(1, -1) rotate(-270.000000) translate(-46.000000, -23.000000) "></path>
                    <path d="M31,42 C32.1045695,42 33,42.8954305 33,44 L33,50 L33,50 L29,50 L29,44 C29,42.8954305 29.8954305,42 31,42 Z" id="矩形备份-33" fill="#2C2C3B" transform="translate(31.000000, 46.000000) scale(1, -1) translate(-31.000000, -46.000000) "></path>
                    <path d="M4,15 C5.1045695,15 6,15.8954305 6,17 L6,23 L6,23 L2,23 L2,17 C2,15.8954305 2.8954305,15 4,15 Z" id="矩形备份-36" fill="#2C2C3B" transform="translate(4.000000, 19.000000) scale(-1, -1) rotate(-270.000000) translate(-4.000000, -19.000000) "></path>
                    <path d="M27,0 C28.1045695,-2.02906125e-16 29,0.8954305 29,2 L29,8 L29,8 L25,8 L25,2 C25,0.8954305 25.8954305,2.02906125e-16 27,0 Z" id="矩形备份-64" fill="#2C2C3B" transform="translate(27.000000, 4.000000) scale(-1, 1) translate(-27.000000, -4.000000) "></path>
                    <path d="M4,23 C5.1045695,23 6,23.8954305 6,25 L6,31 L6,31 L2,31 L2,25 C2,23.8954305 2.8954305,23 4,23 Z" id="矩形备份-62" fill="#2C2C3B" transform="translate(4.000000, 27.000000) scale(-1, -1) rotate(-270.000000) translate(-4.000000, -27.000000) "></path>
                    <path d="M35,0 C36.1045695,-2.02906125e-16 37,0.8954305 37,2 L37,8 L37,8 L33,8 L33,2 C33,0.8954305 33.8954305,2.02906125e-16 35,0 Z" id="矩形备份-65" fill="#2C2C3B" transform="translate(35.000000, 4.000000) scale(-1, 1) translate(-35.000000, -4.000000) "></path>
                    <path d="M4,31 C5.1045695,31 6,31.8954305 6,33 L6,39 L6,39 L2,39 L2,33 C2,31.8954305 2.8954305,31 4,31 Z" id="矩形备份-63" fill="#2C2C3B" transform="translate(4.000000, 35.000000) scale(-1, -1) rotate(-270.000000) translate(-4.000000, -35.000000) "></path>
                    <path d="M19,0 C20.1045695,-2.02906125e-16 21,0.8954305 21,2 L21,8 L21,8 L17,8 L17,2 C17,0.8954305 17.8954305,2.02906125e-16 19,0 Z" id="矩形备份-66" fill="#2C2C3B" transform="translate(19.000000, 4.000000) scale(-1, 1) translate(-19.000000, -4.000000) "></path>
                    <path d="M46,11 C47.1045695,11 48,11.8954305 48,13 L48,19 L48,19 L44,19 L44,13 C44,11.8954305 44.8954305,11 46,11 Z" id="矩形备份-40" fill="#2C2C3B" transform="translate(46.000000, 15.000000) scale(1, -1) rotate(-270.000000) translate(-46.000000, -15.000000) "></path>
                    <path d="M41,9 L14.1953658,9 L9,14.7820054 L9,41 L35.6745074,41 L41,35.7251546 L41,9 Z" id="矩形" stroke="#2C2C3B" stroke-width="4"></path>
                </g>
            </g>
        </g>
    </g>
</svg>