<?xml version="1.0" encoding="UTF-8"?>
<svg width="60px" height="60px" viewBox="0 0 60 60" version="1.1" xmlns="http://www.w3.org/2000/svg" xmlns:xlink="http://www.w3.org/1999/xlink">
    <title>编组 27</title>
    <g id="频道+优秀创作者+我的订阅" stroke="none" stroke-width="1" fill="none" fill-rule="evenodd">
        <g id="画板" transform="translate(-1273.000000, -41.000000)">
            <g id="编组-27" transform="translate(1273.000000, 41.000000)">
                <rect id="矩形备份-12" fill="#FFFFFF" x="0" y="0" width="60" height="60"></rect>
                <g id="计算机系统" transform="translate(5.000000, 5.000000)">
                    <path d="M47.2195282,28 L2.6948773,28 C1.7593466,28.0006779 1.00057515,27.1063106 1,26.0023419 C0.9994255,24.8990514 1.7573347,24.0033275 2.69257799,24.0026491 L2.6948773,24.0026491 L47.2195282,24.0026491 C48.1539092,23.9463484 48.9500444,24.7942507 48.9977551,25.8965237 C49.0454657,26.9991358 48.3269321,27.9382723 47.3928385,27.994573 C47.3350684,27.9983038 47.2775857,27.9983038 47.2195282,27.994573 L47.2195282,28 Z" id="路径" fill="#007CFF"></path>
                    <path d="M12.1001962,50 C10.9409394,50.0010173 10.0007127,49.1057181 10,48.0013573 C9.99928811,46.8966572 10.9384464,46.0006792 12.0973471,46 L16.273,46 L17.491,40 L3.90510521,40 C1.75106969,39.9971692 0.00498212297,38.1253932 0,35.8135878 L0,4.18641225 C0,1.87775215 1.74960436,-1.88293825e-13 3.90510521,-1.88293825e-13 L46.0948948,-1.88293825e-13 C48.2459996,-1.88293825e-13 50,1.87775215 50,4.18641225 L50,35.8135878 C49.9950179,38.1253932 48.2489303,39.9971692 46.0948948,40 L32.501,40 L33.725,46 L37.9001599,46 C39.0590606,45.9993216 39.9996434,46.8942815 40,47.9989816 C40.0007119,49.1033424 39.0619098,49.9993204 37.9026529,50 L12.1001962,50 Z M29.015,40 L20.984,40 L20,46 L30,46 L29.015,40 Z M45.5603994,4 L4.43960065,4 C4.19680627,4 4,4.21228139 4,4.47416699 L4,35.525833 C4,35.7877186 4.19680627,36 4.43960065,36 L45.5603994,36 C45.8031937,36 46,35.7877186 46,35.525833 L46,4.47416699 C46,4.21228139 45.8031937,4 45.5603994,4 Z" id="形状结合" fill="#2C2C3B"></path>
                </g>
            </g>
        </g>
    </g>
</svg>