<?xml version="1.0" encoding="UTF-8"?>
<svg width="60px" height="60px" viewBox="0 0 60 60" version="1.1" xmlns="http://www.w3.org/2000/svg" xmlns:xlink="http://www.w3.org/1999/xlink">
    <title>编组 22</title>
    <g id="频道+优秀创作者+我的订阅" stroke="none" stroke-width="1" fill="none" fill-rule="evenodd">
        <g id="画板" transform="translate(-706.000000, -41.000000)">
            <g id="编组-22" transform="translate(706.000000, 41.000000)">
                <rect id="矩形" fill="#FFFFFF" x="0" y="0" width="60" height="60"></rect>
                <g id="编组-2" transform="translate(6.000000, 5.000000)">
                    <path d="M29.4927085,45.5209181 L30.3561605,45.2439407 L30.7256033,45.1248777 L31.0991232,44.9796364 L31.5722154,44.7767631 L31.8629367,44.5614502 C32.1090112,44.3473974 32.2224039,44.0553921 32.2637611,43.358955 L32.2860823,42.7147481 L32.3174769,41.589854 C32.3387514,41.1155379 32.3695686,40.7598993 32.4233085,40.3675706 C32.5310853,39.5214541 32.9860566,38.7243152 33.6312972,38.0430455 L33.9190204,37.7583618 L34.343285,37.407198 L34.8118785,37.0860691 L35.0020616,36.9739944 L35.3845241,36.7969174 L35.4191232,36.7847273 L35.4926706,36.7532715 L35.7199965,36.6706964 C35.905974,36.6095784 36.0955838,36.5647499 36.2915855,36.5416552 L36.5907268,36.5239938 L36.841478,36.5243035 C37.4015689,36.5337409 37.9614931,36.5606828 38.5114327,36.6041288 L40.1275175,36.7552893 L40.3542838,36.7639319 C40.6472941,36.7639319 40.8794025,36.707069 41.0584086,36.6072755 C41.2811512,36.483598 41.4834416,36.2680036 41.660524,35.929967 L42.4438218,34.3721399 C42.7964288,33.6674311 42.7849363,33.2416372 42.3610132,32.7107098 L42.182615,32.5059338 L40.9409356,31.1975602 L40.8549482,31.1029634 C40.6044624,30.8262478 40.3877609,30.570876 40.1899016,30.3150781 C38.9663426,28.7364611 39.0786944,25.830979 40.4622098,24.3781957 C40.6536208,24.179345 40.8562986,23.9847093 41.079668,23.7835702 L41.6749322,23.2703908 L42.9355403,22.2461755 C43.6227616,21.6798389 43.7722068,21.1959712 43.5219396,20.3872123 L43.2769279,19.6212907 C43.2109069,19.423373 43.1350092,19.2001962 43.0449133,18.9381928 C42.7736715,18.1554308 42.4476638,17.8577396 41.6975589,17.7733709 L40.9541946,17.7297255 L36.0456489,18.5232916 C35.3321026,18.6289637 35.0442269,18.6470575 34.7529726,18.6277739 L34.6650659,18.6209177 L35.0503495,14.2743238 L35.2762083,14.2288827 L40.0100754,13.4610572 C40.4995059,13.3896431 40.7513778,13.3668033 40.9715088,13.3663428 L41.5960057,13.3924379 C44.3468269,13.5219839 46.2773962,14.939245 47.1697003,17.514315 L47.613346,18.8467245 C47.6416883,18.9369984 47.6686528,19.0245493 47.6948239,19.1112276 C48.4233257,21.4649406 47.8317817,23.6574188 46.0456066,25.3196843 L45.6967298,25.6250556 L44.472852,26.6190609 L44.2642991,26.794697 C43.9950656,27.0244934 43.7832424,27.2202675 43.6141213,27.3959164 C43.7422536,27.2613648 43.7233257,27.7508526 43.6401658,27.6435627 L43.9207894,27.9839394 L44.6288194,28.74941 L45.3522397,29.5068707 C47.1060048,31.3779334 47.5168705,33.6313566 46.5318308,35.9250347 L46.3434992,36.3301497 L46.2056433,36.6034791 C45.9587726,37.1069465 45.744531,37.5340849 45.5293666,37.948215 C44.9665421,39.0226883 44.1717189,39.8697846 43.1799718,40.4204471 C42.3352451,40.8913887 41.3711841,41.1275683 40.360055,41.1275606 L40.0718086,41.1223601 L38.8771601,41.0217683 C38.409656,40.9699652 37.9409658,40.9327506 37.4827442,40.9102736 L36.9703959,40.8909091 L36.7965544,41.0426848 L36.7303959,41.0872727 L36.7262906,41.1239587 C36.6913878,41.435488 36.6729935,41.7747063 36.6582382,42.3081344 L36.6375491,43.2134884 C36.5729264,45.348557 35.9511058,46.8857016 34.5253428,48.0178457 L34.2256687,48.2392727 L34.0253885,48.3815739 C33.7531263,48.5518024 33.4580668,48.7084695 33.2157162,48.8173758 L32.6536722,49.0605514 L31.9722056,49.3092443 L31.1179067,49.5870994 L30.7007753,49.7139802 C30.1136707,49.9010698 29.509384,49.9971984 28.8911615,50 C27.323332,50 25.8948723,49.3518019 24.7789476,48.1660313 L24.4759683,47.8212625 L22.9028885,45.9472967 L22.7340323,45.7389091 L22.6411157,45.7277666 L22.4940323,45.7149091 L22.2082141,45.7258182 L21.9865369,45.9469969 L21.3426554,46.5458586 L20.3622852,47.4326373 C19.2402201,48.4757257 17.901455,49.0413031 16.4547717,49.0413031 C15.55716,49.0413031 14.6617617,48.8175185 13.7950291,48.3922664 L12.4009918,47.6946535 L11.9693772,47.4720364 C9.83430017,46.3513408 8.70351782,44.2821387 8.89837737,41.8521567 L9.08982456,39.6456088 C9.10595689,39.4137669 9.11552962,39.2213895 9.11989263,39.0419763 L9.12166866,38.8138182 L9.22968077,38.8250041 L9.12166866,38.8050909 L9.12166866,38.7003636 L9.11521648,38.7955509 L9.11075957,38.8029091 L9.05008312,38.7940958 C8.69899307,38.7377694 8.32626573,38.7023432 7.74438861,38.6684016 L6.40302398,38.6008776 C3.65165843,38.471306 1.7209392,37.0560353 0.828969804,34.4804169 C0.648794135,33.9556066 0.474818879,33.4258742 0.304166856,32.8823142 C-0.424284838,30.5282606 0.16700883,28.3361657 1.95637886,26.6712557 L2.30589599,26.3653522 L3.7386625,25.1973654 C4.00763165,24.9682093 4.21598763,24.7757033 4.37934174,24.6053598 C4.25715378,24.7345651 4.27616025,24.2439721 4.36401702,24.3571879 L4.02518636,23.9541695 L2.64818617,22.4921548 C0.893170141,20.6232638 0.481983534,18.3691542 1.4640327,16.0812925 L1.65180821,15.6772734 L2.30068127,14.3803517 L2.44097642,14.1085477 C2.95672154,13.0499867 3.77733899,12.1717211 4.84099225,11.563267 C5.71207324,11.0906508 6.68953538,10.8505092 7.64439677,10.8660991 L7.92437807,10.8722019 L10.3628082,11.0775019 C10.5240504,11.0883675 10.6674347,11.0959411 10.8035831,11.1007983 L11.0220323,11.1047273 L11.2029384,10.94543 L11.2663959,10.8996364 L11.2726408,10.8622136 C11.2935693,10.6761321 11.3086179,10.4788719 11.3204938,10.2357107 L11.361146,8.77477815 C11.4261862,6.64129205 12.0473666,5.10555847 13.4735742,3.9699548 L13.7916027,3.73266357 L13.9787543,3.60398091 C14.2653466,3.42589164 14.5622548,3.2664058 14.8832334,3.12083925 L15.3844737,2.91234339 L15.928768,2.71769892 L17.0856625,2.34264862 L17.3686217,2.26131821 L17.4474868,2.24218182 L17.7623536,2.15875792 C18.0596698,2.08851846 18.3583717,2.04137254 18.6579373,2.01774631 L19.1078682,2 C20.6778529,2 22.1099536,2.64873711 23.218072,3.82985298 L23.5121137,4.16508754 L24.3039037,5.11139228 L28.444309,10.4205055 L25.0033507,13.1039973 L20.9175297,7.86208282 L20.126636,6.91817595 C19.8046426,6.52575405 19.479459,6.36363636 19.1078682,6.36363636 C19.008885,6.36363636 18.9062959,6.3746809 18.7831359,6.40258967 L18.5043961,6.47999282 L18.4423959,6.488 L17.6428692,6.74937479 L17.6588255,6.74015624 L16.8802141,7.00945455 L16.5964945,7.13303025 L16.4061943,7.22702749 L16.2400292,7.34487654 C15.9272045,7.56360369 15.7862042,7.82791597 15.7370958,8.59366874 L15.6815153,10.3973779 C15.6601638,10.8726059 15.6292345,11.2290442 15.5756216,11.617446 C15.4685627,12.4640614 15.0129091,13.2639039 14.3674455,13.94588 L14.0796601,14.2307319 L13.6372208,14.597866 L13.1420278,14.9360901 L12.6795797,15.1729903 L12.4469966,15.2665003 L12.3228542,15.310026 C12.128118,15.3779288 11.9286089,15.4270308 11.723784,15.4522207 L11.412492,15.4714326 L11.2009424,15.4714326 C10.6644813,15.4714326 10.2123943,15.4485042 9.50553692,15.3877693 L7.87129366,15.2401474 C7.78295626,15.2331428 7.70569861,15.2297354 7.6094197,15.2294551 C7.37055279,15.2256253 7.13386268,15.283775 6.96573314,15.3743414 C6.70623278,15.5229482 6.49649176,15.7474235 6.33883994,16.0693894 L5.55520783,17.6278601 C5.19832076,18.3411231 5.2144899,18.7679295 5.67755488,19.3322246 L6.14319892,19.8376547 L7.28479609,21.0530892 C7.47604223,21.2679705 7.64630267,21.4702944 7.80807194,21.6776775 C9.03193837,23.2549679 8.9195794,26.1551647 7.53963331,27.6142902 C7.3482095,27.8139887 7.14588886,28.0085307 6.92197703,28.2100106 L6.23928464,28.7949517 L5.06353655,29.7471011 C4.3760464,30.3136916 4.2267321,30.7972334 4.47009069,31.5837306 C4.62658643,32.0821429 4.78855025,32.575302 4.95424578,33.0579591 C5.22748653,33.8469518 5.55652722,34.1416659 6.35111038,34.2234418 L8.36619106,34.3350999 C9.02331213,34.3802151 9.48729324,34.4358012 10.0216424,34.533839 C11.6895115,34.8434752 13.4562382,36.9217362 13.4852501,38.6304818 L13.4834143,39.1093731 C13.4785488,39.3465846 13.4674608,39.5879379 13.4487955,39.8671511 L13.2469673,42.2139786 C13.1924041,42.8945439 13.4155615,43.3028964 13.9905834,43.6047391 L15.380742,44.3078703 C15.4867407,44.3605208 15.6008644,44.4171263 15.7247782,44.4785321 C16.006384,44.6166925 16.2503519,44.6776668 16.4547717,44.6776668 C16.6968896,44.6776668 16.9323485,44.5986515 17.1998787,44.3969714 L17.4071449,44.2220297 L18.8097594,42.9465862 C19.0217693,42.7469586 19.1992113,42.5709163 19.370726,42.3903944 C19.9467705,41.7706019 20.9204573,41.4330022 22.0044183,41.3656318 L22.5155527,41.3534215 L22.7410967,41.3602303 C24.0494977,41.4247163 25.2407716,41.8693021 25.8619416,42.6624323 L26.0604893,42.9138553 L27.7356592,44.9131393 L27.8700323,45.08 C28.1410746,45.4075472 28.4128126,45.5756159 28.7039931,45.6224836 L28.881194,45.6363864 C28.9890874,45.6358935 29.0965729,45.6243518 29.2223567,45.5958411 L29.4927085,45.5209181 Z" id="路径" fill="#2C2C3B" fill-rule="nonzero"></path>
                    <path d="M24.9998961,23.2681257 C25.6195325,22.9106248 26.3804675,22.9106248 26.9998961,23.2681257 C27.6180779,23.6256267 28,24.285129 28,24.9999215 C28,26.1046769 27.1037922,27 26,27 C24.896,27 24,26.1046769 24,24.9999215 C24,24.285129 24.3804675,23.6256267 24.9998961,23.2681257 L24.9998961,23.2681257 Z" id="路径" fill="#007CFF"></path>
                    <path d="M34.7092249,2.00067577 C34.0496224,1.99125028 33.3923053,2.08179462 32.7489078,2.27219602 C31.0934652,2.75228184 29.700306,3.89373685 28.8796761,5.43552589 C28.4703999,6.19372315 28.2217011,7.03069659 28.1216363,8.07097953 C27.2789713,12.8050262 24.9779492,17.103123 21.5614768,20.3622722 C20.8363934,21.0784046 20.070551,21.9226061 19.7640318,22.4979083 C18.9504992,24.0172688 18.7792378,25.8009234 19.2858059,27.447803 C19.6855955,28.7717338 20.4791668,29.889161 21.517721,30.6871695 C22.5496572,31.4800929 23.8237536,31.9573888 25.1899959,31.9973084 C25.952324,32.0198476 26.7220746,31.8996881 27.4706301,31.6537081 C29.1079962,31.1207984 30.4616005,29.955129 31.2434984,28.4210637 L31.4572723,27.9412216 C31.6206178,27.5304128 31.7395905,27.1091524 31.8155026,26.6779319 L31.8994014,26.0606385 L32.1445518,24.8661241 C33.0356324,20.9372516 34.9340316,17.3737738 37.6819687,14.4626255 L38.5866486,13.5418895 C39.1911158,13.0772289 39.7185585,12.4712284 40.1275302,11.7777162 C40.9957416,10.2651043 41.2258152,8.48130901 40.7684619,6.79342375 C40.3316798,5.12210446 39.2497105,3.66975406 37.7467672,2.83591091 C36.8905211,2.36085973 35.901349,2.09907057 34.7092249,2.00067577 Z" id="路径" stroke="#007CFF" stroke-width="4" fill-rule="nonzero"></path>
                </g>
            </g>
        </g>
    </g>
</svg>