<?xml version="1.0" encoding="UTF-8"?>
<svg width="60px" height="60px" viewBox="0 0 60 60" version="1.1" xmlns="http://www.w3.org/2000/svg" xmlns:xlink="http://www.w3.org/1999/xlink">
    <title>编组 3备份 2</title>
    <g id="频道+优秀创作者+我的订阅" stroke="none" stroke-width="1" fill="none" fill-rule="evenodd">
        <g id="画板备份" transform="translate(-85.000000, -41.000000)">
            <g id="编组-3备份-2" transform="translate(85.000000, 41.000000)">
                <rect id="矩形" fill="#FFFFFF" x="0" y="0" width="60" height="60"></rect>
                <g id="编组-5" transform="translate(6.000000, 0.156391)">
                    <path d="M32.5565762,4.00701623 L27.8911334,7.01150506 C22.7484177,10.3233518 18.6351463,15.0098901 16.0186011,20.5411232 L13.5846316,24.0859086 C9.61919876,22.9055135 6.23893666,20.4429696 3.76683326,16.6778892 L3.11337405,32.2882587 L3.00202497,34.9482568 C2.9897667,35.2410923 2.98363556,35.5341523 2.98363556,35.8272443 C2.98363556,41.6512446 5.35371834,46.9219189 9.24068095,50.7262378 C13.1096029,54.5128995 18.4773042,56.8436088 24.5,56.8436088 C30.4370611,56.8436088 35.8120611,54.4371393 39.7027958,50.5464046 C43.5935305,46.6556698 46,41.2806698 46,35.3436088 L46,17.1749505 L33.9281989,31.0003663 L32.6089171,24.4848804 C31.5253377,19.1334487 31.3256053,13.6406651 32.0176521,8.22466684 L32.5565762,4.00701623 Z" id="矩形" stroke="#2C2C3B" stroke-width="4"></path>
                    <rect id="矩形" fill="#007CFF" x="12" y="32.8436088" width="4" height="6"></rect>
                    <rect id="矩形备份-3" fill="#007CFF" x="24" y="32.8436088" width="4" height="6"></rect>
                </g>
            </g>
        </g>
    </g>
</svg>