<?xml version="1.0" encoding="UTF-8"?>
<svg width="60px" height="60px" viewBox="0 0 60 60" version="1.1" xmlns="http://www.w3.org/2000/svg" xmlns:xlink="http://www.w3.org/1999/xlink">
    <title>编组 25</title>
    <g id="频道+优秀创作者+我的订阅" stroke="none" stroke-width="1" fill="none" fill-rule="evenodd">
        <g id="画板" transform="translate(-1046.000000, -41.000000)">
            <g id="编组-25" transform="translate(1046.000000, 41.000000)">
                <rect id="矩形备份-9" fill="#FFFFFF" x="0" y="0" width="60" height="60"></rect>
                <g id="编组-16" transform="translate(5.000000, 5.000000)">
                    <rect id="矩形备份-52" stroke="#2C2C3B" stroke-width="4" x="2" y="2" width="46" height="38"></rect>
                    <path d="M11.3192555,27.9987197 C12.0364998,28.0247518 12.5002353,27.6537954 12.7104621,26.8858508 L12.7104621,26.8858508 L15.0476893,18.1195675 L17.3478177,26.6906106 C17.4838468,27.172203 17.6817073,27.5106193 17.9413992,27.7058595 C18.2010911,27.9010997 18.4731493,27.9987197 18.7575738,27.9987197 C19.1656611,27.9987197 19.5088254,27.8848296 19.7870668,27.6570495 C20.0653081,27.4292693 20.2538939,27.0225189 20.3528241,26.4367984 L20.3528241,26.4367984 L22.0964698,15.0738209 C22.145935,14.7874687 22.0933783,14.5369105 21.9387997,14.3221463 C21.7842212,14.1073821 21.4967052,14 21.0762516,14 C20.742362,14 20.4857617,14.0748421 20.3064506,14.2245262 C20.1271395,14.3742103 20.0065682,14.6703246 19.9447368,15.1128689 L19.9447368,15.1128689 L18.8503209,23.0200956 C18.7884895,23.501688 18.7297497,23.7229602 18.6741014,23.6839121 C18.6184531,23.6448641 18.5349807,23.4235919 18.4236842,23.0200956 C18.065062,21.6794464 17.7095315,20.3648293 17.3570924,19.0762443 L17.0036229,17.7789818 C16.7672895,16.9083553 16.5295821,16.026159 16.2905006,15.1323929 C16.1668378,14.6768326 16.0029846,14.3742103 15.7989409,14.2245262 C15.5948973,14.0748421 15.3321138,14 15.0105905,14 C14.726166,14 14.4664741,14.0911121 14.2315148,14.2733362 C13.9965554,14.4555604 13.8357938,14.7158806 13.7492298,15.0542969 L13.7492298,15.0542969 L11.782991,23.0396196 C11.6840608,23.4561319 11.5974968,23.6708961 11.5232991,23.6839121 C11.4491014,23.6969281 11.3810869,23.4821639 11.3192555,23.0396196 L11.3192555,23.0396196 L10.1877407,15.0152489 C10.1259093,14.5466725 9.99297176,14.2603202 9.78892811,14.1561921 C9.58488447,14.052064 9.34683355,14 9.07477535,14 C8.6419555,14 8.34516474,14.1203981 8.18440308,14.3611943 C8.02364142,14.6019905 7.96799315,14.8720727 8.01745828,15.171441 L8.01745828,15.171441 L9.63125802,26.0463181 C9.69308943,26.4498144 9.78274497,26.7784687 9.90022465,27.0322809 C10.0177043,27.2860931 10.1506418,27.4845873 10.2990372,27.6277634 C10.4474326,27.7709395 10.6081943,27.8685596 10.7813222,27.9206237 C10.9544501,27.9726877 11.1337612,27.9987197 11.3192555,27.9987197 Z M30.1654685,27.8034796 C30.6353872,27.8034796 30.9692769,27.7253835 31.1671374,27.5691914 C31.3649979,27.4129992 31.4639281,27.126647 31.4639281,26.7101347 C31.4639281,26.2936223 31.3649979,26.0072701 31.1671374,25.8510779 C30.9692769,25.6948858 30.6353872,25.6167897 30.1654685,25.6167897 L30.1654685,25.6167897 L25.6765083,25.6167897 L25.6765083,21.8681786 L29.9799743,21.8681786 C30.3756953,21.8681786 30.6601198,21.7868285 30.8332478,21.6241284 C31.0063757,21.4614283 31.0929397,21.184838 31.0929397,20.7943577 C31.0929397,20.4038774 31.0063757,20.1207791 30.8332478,19.945063 C30.6601198,19.7693468 30.3756953,19.6814888 29.9799743,19.6814888 L29.9799743,19.6814888 L25.6765083,19.6814888 L25.6765083,16.38193 L30.1654685,16.38193 C30.5240907,16.38193 30.802332,16.3005799 31.0001926,16.1378798 C31.1980531,15.9751797 31.2908002,15.6920814 31.2784339,15.2885851 C31.2660676,14.8850887 31.1702289,14.6019905 30.9909178,14.4392904 C30.8116068,14.2765902 30.5426401,14.1952402 30.184018,14.1952402 L30.184018,14.1952402 L24.4522465,14.1952402 C24.0565255,14.1952402 23.7597347,14.2733362 23.5618742,14.4295284 C23.3640137,14.5857205 23.2650834,14.8655647 23.2650834,15.2690611 L23.2650834,15.2690611 L23.2650834,26.7296587 C23.2650834,27.146171 23.3701968,27.4292693 23.5804236,27.5789534 C23.7906504,27.7286375 24.081258,27.8034796 24.4522465,27.8034796 L24.4522465,27.8034796 L30.1654685,27.8034796 Z M37.9933248,27.8034796 C39.3041506,27.8034796 40.2996363,27.4748253 40.9797818,26.8175167 C41.6599273,26.1602082 42,25.2393254 42,24.0548684 C42,23.4691479 41.9165276,22.9647775 41.7495828,22.5417572 C41.582638,22.1187368 41.3662281,21.7673045 41.100353,21.4874603 C40.834478,21.207616 40.5315041,20.9895979 40.1914313,20.8334057 C39.8513586,20.6772136 39.5081943,20.5665775 39.1619384,20.5014975 C39.495828,20.4364174 39.8080766,20.3290353 40.0986842,20.1793512 C40.3892918,20.0296671 40.6428006,19.8344269 40.8592105,19.5936307 C41.0756205,19.3528345 41.2456568,19.0632282 41.3693196,18.724812 C41.4929825,18.3863957 41.5548139,17.9894073 41.5548139,17.533847 C41.5548139,17.1043186 41.4898909,16.6878063 41.3600449,16.2843099 C41.230199,15.8808136 41.0076059,15.5261273 40.6922657,15.220251 C40.3769255,14.9143748 39.9595635,14.6670706 39.4401797,14.4783384 C38.9207959,14.2896062 38.2777493,14.1952402 37.5110398,14.1952402 L37.5110398,14.1952402 L34.1350449,14.1952402 C33.8135216,14.1952402 33.566196,14.2863522 33.393068,14.4685764 C33.2199401,14.6508005 33.1333761,14.8525487 33.1333761,15.0738209 L33.1333761,15.0738209 L33.1333761,26.9248988 C33.1333761,27.146171 33.2168485,27.3479192 33.3837933,27.5301433 C33.5507381,27.7123675 33.8011553,27.8034796 34.1350449,27.8034796 L34.1350449,27.8034796 L37.9933248,27.8034796 Z M37.4553915,19.4276766 L35.544801,19.4276766 L35.544801,16.38193 L37.4553915,16.38193 C37.7645486,16.38193 38.027332,16.424232 38.243742,16.5088361 C38.4601519,16.5934402 38.6363714,16.7073303 38.7724005,16.8505064 C38.9084296,16.9936825 39.0073599,17.1531286 39.0691913,17.3288448 C39.1310227,17.5045609 39.1619384,17.6900391 39.1619384,17.8852793 C39.1619384,18.3278236 39.035184,18.6955259 38.7816752,18.9883862 C38.5281665,19.2812464 38.0860719,19.4276766 37.4553915,19.4276766 L37.4553915,19.4276766 Z M37.3626444,25.6167897 L35.544801,25.6167897 L35.544801,21.7315105 L37.0658537,21.7315105 C37.4739409,21.7315105 37.8356547,21.7607965 38.1509949,21.8193686 C38.466335,21.8779406 38.7322101,21.9820687 38.94862,22.1317528 C39.16503,22.2814369 39.3288832,22.4831851 39.4401797,22.7369973 C39.5514763,22.9908095 39.6071245,23.3194638 39.6071245,23.7229602 C39.6194908,24.3867767 39.4247219,24.8683691 39.0228177,25.1677374 C38.6209136,25.4671056 38.0675225,25.6167897 37.3626444,25.6167897 L37.3626444,25.6167897 Z" id="WEB" fill="#007CFF" fill-rule="nonzero"></path>
                    <rect id="矩形备份-53" fill="#2C2C3B" x="7" y="46" width="36" height="4"></rect>
                </g>
            </g>
        </g>
    </g>
</svg>