<?xml version="1.0" encoding="UTF-8"?>
<svg width="48px" height="48px" viewBox="0 0 48 48" version="1.1" xmlns="http://www.w3.org/2000/svg" xmlns:xlink="http://www.w3.org/1999/xlink">
    <title>编组 7</title>
    <g id="频道+优秀创作者+我的订阅" stroke="none" stroke-width="1" fill="none" fill-rule="evenodd">
        <g id="画板备份" transform="translate(-1236.000000, -206.000000)">
            <g id="编组-7" transform="translate(1236.000000, 206.000000)">
                <rect id="矩形" fill="#FFFFFF" x="0" y="0" width="48" height="48"></rect>
                <path d="M38.1719437,25.5 L9.82805632,25.5 C9.64987893,25.5 9.47196167,25.5136059 9.29585618,25.5406991 C8.3405966,25.6876621 7.53533989,26.2079076 7.00563884,26.9302272 C6.47593778,27.6525468 6.22179237,28.5769406 6.36875538,29.5322001 L7.90721692,39.5322001 C8.03855622,40.3859056 8.47150676,41.1278556 9.08755982,41.6563792 C9.70361288,42.1849028 10.5027685,42.5 11.3665179,42.5 L36.6334821,42.5 C37.4972315,42.5 38.2963871,42.1849028 38.9124402,41.6563792 C39.5284932,41.1278556 39.9614438,40.3859056 40.0927831,39.5322001 L41.6312446,29.5322001 C41.6583378,29.3560947 41.6719437,29.1781774 41.6719437,29 C41.6719437,28.0335017 41.2801928,27.1585017 40.6468174,26.5251263 C40.013442,25.8917508 39.138442,25.5 38.1719437,25.5 Z" id="矩形" stroke="#565663" stroke-width="3"></path>
                <path d="M19.5,35 L28.5,35 C29.3284271,35 30,35.6715729 30,36.5 C30,37.3284271 29.3284271,38 28.5,38 L19.5,38 C18.6715729,38 18,37.3284271 18,36.5 C18,35.6715729 18.6715729,35 19.5,35 Z" id="矩形" fill="#9E9EA6"></path>
                <path d="" id="路径" stroke="#565663" stroke-width="3" fill="#D8D8D8"></path>
                <path d="M18,10 L30,10 C30,11.6568542 28.6568542,13 27,13 L21,13 C19.3431458,13 18,11.6568542 18,10 L18,10 L18,10 Z" id="矩形" fill="#9E9EA6"></path>
                <path d="M16,16 L32,16 C32,17.6568542 30.6568542,19 29,19 L19,19 C17.3431458,19 16,17.6568542 16,16 L16,16 L16,16 Z" id="矩形备份-23" fill="#9E9EA6"></path>
            </g>
        </g>
    </g>
</svg>