<?xml version="1.0" encoding="UTF-8"?>
<svg width="60px" height="60px" viewBox="0 0 60 60" version="1.1" xmlns="http://www.w3.org/2000/svg" xmlns:xlink="http://www.w3.org/1999/xlink">
    <title>切片</title>
    <defs>
        <rect id="path-1" x="0" y="0" width="60" height="60"></rect>
    </defs>
    <g id="页面-1" stroke="none" stroke-width="1" fill="none" fill-rule="evenodd">
        <g id="画板备份" transform="translate(-671.000000, -41.000000)">
            <rect id="矩形" fill="#FFFFFF" x="0" y="0" width="1656" height="354"></rect>
            <g id="编组-3" transform="translate(671.000000, 41.000000)">
                <mask id="mask-2" fill="white">
                    <use xlink:href="#path-1"></use>
                </mask>
                <use id="蒙版" fill="#FFFFFF" xlink:href="#path-1"></use>
                <g id="编组-6" mask="url(#mask-2)" fill-rule="nonzero">
                    <g transform="translate(0.999567, 2.932468)">
                        <path d="M20.2372802,18.2130334 C20.9318341,16.5902822 23.206582,16.6127184 23.8997439,18.1776918 L23.9617806,18.3339528 L27.0190144,26.9905322 L29.8664985,26.9912006 C30.4152766,26.9912006 30.9317421,27.2160226 31.3036279,27.6002103 L31.4240144,27.7355322 L32.8269848,22.2835637 C33.2855986,20.5005382 35.6773714,20.2520174 36.5198552,21.8228355 L36.5941929,21.9754385 L38.8030144,26.9905322 L45.4716474,26.9912006 C46.5260092,26.9912006 47.3898125,27.8070784 47.4661617,28.8419383 L47.4716474,28.9912006 C47.4716474,30.0455624 46.6557696,30.9093658 45.6209098,30.9857149 L45.4716474,30.9912006 L37.4995465,30.9912006 C36.7596598,30.9912006 36.0849506,30.5833333 35.7384281,29.9391302 L35.6692924,29.7975317 L35.2620144,28.8725322 L34.0726511,33.498206 C33.6379107,35.1884149 31.4220084,35.5313449 30.4797116,34.1224472 L30.3951958,33.9852184 L28.7000144,30.9905322 L25.6046748,30.9912006 C24.8098556,30.9912006 24.0959987,30.5213903 23.7772305,29.803968 L23.7188378,29.6572479 L21.8970144,24.4995322 L19.6382719,29.7781673 C19.3443238,30.4649456 18.6946367,30.9264246 17.9585627,30.9849027 L17.7996084,30.9912006 L2.90244558,30.9912006 C1.79787608,30.9912006 0.902445579,30.0957701 0.902445579,28.9912006 C0.902445579,27.9368388 1.71832337,27.0730355 2.75318323,26.9966864 L2.90244558,26.9912006 L16.4790144,26.9905322 L20.2372802,18.2130334 Z" id="路径-5" fill="#007CFF"></path>
                        <path d="M53.076225,3.67711174 C59.0161661,9.03321295 59.7214509,18.3131972 54.7233527,24.5639511 L54.5024488,24.833793 L30.6366445,53.3122596 C30.585789,53.3729441 30.5314511,53.4303913 30.4739266,53.4842884 C30.031257,53.8990438 29.4539322,54.0612271 28.9062963,53.979504 C28.380382,54.0397678 27.8326701,53.8770244 27.4071389,53.482352 C27.3469343,53.4265133 27.2901721,53.3668052 27.237188,53.3035806 L14.901554,38.5831591 L13.539902,37.0196142 C12.7676235,36.1328295 12.8604491,34.7878931 13.7472337,34.0156146 C14.1495947,33.6652085 14.6670412,33.4800577 15.1962145,33.4926743 L15.3728981,33.5042492 L28.9511988,49.4351171 L51.4654645,22.5258459 C55.3425079,17.8919655 54.9712918,10.9018804 50.6270218,6.73777811 C46.4411793,2.7255329 39.9122685,2.99282476 36.0442915,7.3347912 L35.8499216,7.5592447 L28.9270945,15.7823836 L21.9395033,7.58483951 C18.1019602,3.15701251 11.53062,2.79452514 7.2620042,6.77520133 C3.01201223,10.73851 2.54050656,17.4544298 6.14088891,22.0102787 C7.14960566,24.315329 3.78844652,25.8523961 2.0178598,22.9273919 C-1.29695092,17.4885833 -0.635701825,8.5829366 4.80488077,3.67711174 C10.7136605,-1.6508909 19.6234348,-1.0880498 24.8690689,4.88217982 L25.1456124,5.20606973 L28.8789034,9.70677579 L32.689296,5.15587658 C37.9253244,-1.09214492 47.0528634,-1.75421049 53.076225,3.67711174 Z" id="路径" fill="#2C2C3B"></path>
                    </g>
                </g>
            </g>
        </g>
    </g>
</svg>