<?xml version="1.0" encoding="UTF-8"?>
<svg width="60px" height="60px" viewBox="0 0 60 60" version="1.1" xmlns="http://www.w3.org/2000/svg" xmlns:xlink="http://www.w3.org/1999/xlink">
    <title>编组 24</title>
    <g id="频道+优秀创作者+我的订阅" stroke="none" stroke-width="1" fill="none" fill-rule="evenodd">
        <g id="画板" transform="translate(-933.000000, -41.000000)">
            <g id="编组-24" transform="translate(933.000000, 41.000000)">
                <rect id="矩形备份-9" fill="#FFFFFF" x="0" y="0" width="60" height="60"></rect>
                <g id="编组-18" transform="translate(5.000000, 5.000000)">
                    <path d="M29,0 C31.6887547,0 33.8818181,2.12230671 33.9953805,4.78311038 L34,5 L34,23 C34,24.1045695 33.1045695,25 32,25 C30.9456382,25 30.0818349,24.1841222 30.0054857,23.1492623 L30,23 L30,20 L5,20 C4.48716416,20 4.06449284,20.3860402 4.00672773,20.8833789 L4,21 L4,33 C4,33.5128358 4.38604019,33.9355072 4.88337887,33.9932723 L5,34 L10.5714286,34 C11.6759981,34 12.5714286,34.8954305 12.5714286,36 C12.5714286,37.0543618 11.7555508,37.9181651 10.7206909,37.9945143 L10.5714286,38 L5,38 C2.3112453,38 0.118181885,35.8776933 0.00461951385,33.2168896 L0,33 L0,21 C0,18.3112453 2.12230671,16.1181819 4.78311038,16.0046195 L5,16 L30,16 L30,5 C30,4.48716416 29.6139598,4.06449284 29.1166211,4.00672773 L29,4 L13,4 C12.4871642,4 12.0644928,4.38604019 12.0067277,4.88337887 L12,5 L12,10 C12,11.1045695 11.1045695,12 10,12 C8.9456382,12 8.08183488,11.1841222 8.00548574,10.1492623 L8,10 L8,5 C8,2.3112453 10.1223067,0.118181885 12.7831104,0.00461951385 L13,0 L29,0 Z M18,6 C19.1045695,6 20,6.8954305 20,8 C20,9.1045695 19.1045695,10 18,10 C16.8954305,10 16,9.1045695 16,8 C16,6.8954305 16.8954305,6 18,6 Z" id="形状结合" fill="#2C2C3B" fill-rule="nonzero"></path>
                    <path d="M45,14 C47.6887547,14 49.8818181,16.1223067 49.9953805,18.7831104 L50,19 L50,31 C50,33.6887547 47.8776933,35.8818181 45.2168896,35.9953805 L45,36 L20,36 L20,45 C20,45.5128358 20.3860402,45.9355072 20.8833789,45.9932723 L21,46 L37,46 C37.5128358,46 37.9355072,45.6139598 37.9932723,45.1166211 L38,45 L38,40 C38,38.8954305 38.8954305,38 40,38 C41.0543618,38 41.9181651,38.8158778 41.9945143,39.8507377 L42,40 L42,45 C42,47.6887547 39.8776933,49.8818181 37.2168896,49.9953805 L37,50 L21,50 C18.3112453,50 16.1181819,47.8776933 16.0046195,45.2168896 L16,45 L16,29 C16,27.8954305 16.8954305,27 18,27 C19.0543618,27 19.9181651,27.8158778 19.9945143,28.8507377 L20,29 L20,32 L45,32 C45.5128358,32 45.9355072,31.6139598 45.9932723,31.1166211 L46,31 L46,19 C46,18.4871642 45.6139598,18.0644928 45.1166211,18.0067277 L45,18 L39.4285714,18 C38.3240019,18 37.4285714,17.1045695 37.4285714,16 C37.4285714,14.9456382 38.2444492,14.0818349 39.2793091,14.0054857 L39.4285714,14 L45,14 Z M32,39 C33.1045695,39 34,39.8954305 34,41 C34,42.1045695 33.1045695,43 32,43 C30.8954305,43 30,42.1045695 30,41 C30,39.8954305 30.8954305,39 32,39 Z" id="形状结合" fill="#007CFF"></path>
                </g>
            </g>
        </g>
    </g>
</svg>