<?xml version="1.0" encoding="UTF-8"?>
<svg width="638px" height="381px" viewBox="0 0 638 381" version="1.1" xmlns="http://www.w3.org/2000/svg" xmlns:xlink="http://www.w3.org/1999/xlink">
    <title>编组</title>
    <defs>
        <rect id="path-1" x="0" y="0" width="638" height="381"></rect>
        <polygon id="path-3" points="0.514112961 0.830379947 633.737 0.830379947 633.737 183.999992 0.514112961 183.999992"></polygon>
        <path d="M18.541,33.678 C14.248,46.443 8.057,58.786 0.387,70.236 L0.387,70.236 L7.894,65.21 C63.949,27.677 137.576,29.549 191.652,69.881 L191.652,69.881 L192.128,70.236 L236.215,130.515 C243.826,136.133 255.067,144.599 264.435,145.923 L264.435,145.923 C308.424,152.14 342.261,189.943 342.261,235.648 L342.261,235.648 L342.261,268.933 L374.571,268.933 C383.236,268.933 390.26,261.908 390.26,253.243 L390.26,253.243 L386.057,191.353 C383.87,159.145 358.78,133.647 327.339,130.324 L327.339,130.324 C322.175,129.778 301.517,122.561 301.517,122.561 L301.517,122.561 C279.213,109.043 261.712,68.397 247.098,46.794 L247.098,46.794 C246.93,46.617 246.762,46.439 246.593,46.261 L246.593,46.261 C220.258,18.557 183.878,2.609 145.66,1.935 L145.66,1.935 L77.87,0.743 C76.652,0.721 75.439,0.622 74.226,0.506 L74.226,0.506 C72.475,0.339 70.729,0.256 68.995,0.256 L68.995,0.256 C47.23,0.256 27.217,13.229 18.541,33.678" id="path-5"></path>
        <linearGradient x1="50.0000826%" y1="99.9999569%" x2="50.0000826%" y2="0.000183342824%" id="linearGradient-7">
            <stop stop-color="#9CA8B1" offset="0%"></stop>
            <stop stop-color="#C8D1D6" offset="100%"></stop>
        </linearGradient>
        <polygon id="path-8" points="0 380 637.737 380 637.737 0.962 0 0.962"></polygon>
    </defs>
    <g id="缺省页" stroke="none" stroke-width="1" fill="none" fill-rule="evenodd">
        <g id="404" transform="translate(-641.000000, -225.000000)">
            <g id="编组" transform="translate(641.000000, 225.000000)">
                <mask id="mask-2" fill="white">
                    <use xlink:href="#path-1"></use>
                </mask>
                <use id="蒙版" fill="#FFFFFF" xlink:href="#path-1"></use>
                <g mask="url(#mask-2)">
                    <g transform="translate(4.000000, 196.038000)">
                        <mask id="mask-4" fill="white">
                            <use xlink:href="#path-3"></use>
                        </mask>
                        <g id="Clip-2"></g>
                        <path d="M286.8753,3.0673 C392.3793,6.8623 419.2123,11.1603 524.5433,38.8693 C546.2263,44.5733 557.5603,60.2643 549.1763,69.2853 C538.6923,80.5653 522.2633,87.7353 502.2453,91.6213 C544.4953,96.0893 583.9043,109.6443 611.6443,129.2503 C623.3113,137.4963 632.4783,143.0643 633.2463,153.8633 C633.4183,156.2883 635.7643,162.4483 628.4243,166.8713 C619.0833,172.4993 608.5603,172.9113 588.3213,174.5623 C488.4243,182.7103 398.5413,184.8123 298.0283,183.7413 C211.1873,182.8153 134.4573,174.2903 89.2693,152.9123 C80.5533,148.7893 68.0773,135.3733 68.6263,123.8373 C68.9393,117.2463 78.5213,106.6513 95.9693,106.4873 C66.8043,102.8823 46.7693,98.7723 22.4833,85.6523 C4.0613,75.6993 -0.2797,54.9393 0.6263,48.3243 C1.7843,39.8673 8.9763,30.3833 20.0673,24.9803 C43.7003,13.4683 77.0823,4.8903 107.4653,3.7203 C171.1523,1.2663 231.5503,-1.0067 286.8753,3.0673" id="Fill-1" fill="#F4F4F4" mask="url(#mask-4)"></path>
                    </g>
                    <g transform="translate(191.000000, 79.038000)">
                        <mask id="mask-6" fill="white">
                            <use xlink:href="#path-5"></use>
                        </mask>
                        <g id="Clip-4"></g>
                        <path d="M18.541,33.678 C14.248,46.443 8.057,58.786 0.387,70.236 L0.387,70.236 L7.894,65.21 C63.949,27.677 137.576,29.549 191.652,69.881 L191.652,69.881 L192.128,70.236 L236.215,130.515 C243.826,136.133 255.067,144.599 264.435,145.923 L264.435,145.923 C308.424,152.14 342.261,189.943 342.261,235.648 L342.261,235.648 L342.261,268.933 L374.571,268.933 C383.236,268.933 390.26,261.908 390.26,253.243 L390.26,253.243 L386.057,191.353 C383.87,159.145 358.78,133.647 327.339,130.324 L327.339,130.324 C322.175,129.778 301.517,122.561 301.517,122.561 L301.517,122.561 C279.213,109.043 261.712,68.397 247.098,46.794 L247.098,46.794 C246.93,46.617 246.762,46.439 246.593,46.261 L246.593,46.261 C220.258,18.557 183.878,2.609 145.66,1.935 L145.66,1.935 L77.87,0.743 C76.652,0.721 75.439,0.622 74.226,0.506 L74.226,0.506 C72.475,0.339 70.729,0.256 68.995,0.256 L68.995,0.256 C47.23,0.256 27.217,13.229 18.541,33.678" id="Fill-3" fill="url(#linearGradient-7)" mask="url(#mask-6)"></path>
                    </g>
                    <g transform="translate(0.000000, 0.038000)">
                        <path d="M455.4351,224.9228 C446.0671,223.5988 434.8261,215.1328 427.2141,209.5148 L383.1281,149.2358 L382.6521,148.8808 C328.5751,108.5488 254.9491,106.6768 198.8931,144.2098 L191.3871,149.2358 L191.3871,149.2358 C181.6891,163.7128 169.6261,176.7628 156.0271,187.4278 C147.1221,194.4118 136.9111,199.5448 126.0001,202.5488 L102.7341,208.9568 C74.2051,208.9568 50.5021,230.9548 48.3771,259.4048 L42.9361,332.2438 C42.9361,340.9088 49.9601,347.9328 58.6251,347.9328 L533.2611,347.9328 L533.2611,314.6488 C533.2611,268.9428 499.4251,231.1398 455.4351,224.9228" id="Fill-5" fill="#FFDEDE"></path>
                        <path d="M455.4351,224.9228 C446.0671,223.5988 434.8261,215.1328 427.2141,209.5148 L383.1281,149.2358 L382.6521,148.8808 C328.5751,108.5488 254.9491,106.6768 198.8931,144.2098 L191.3871,149.2358 L191.3871,149.2358 C181.6891,163.7128 169.6261,176.7628 156.0271,187.4278 C147.1221,194.4118 136.9111,199.5448 126.0001,202.5488 L102.7341,208.9568 C74.2051,208.9568 50.5021,230.9548 48.3771,259.4048 L42.9361,332.2438 C42.9361,340.9088 49.9601,347.9328 58.6251,347.9328 L533.2611,347.9328 L533.2611,314.6488 C533.2611,268.9428 499.4251,231.1398 455.4351,224.9228" id="Fill-7" fill="#DCE2E5"></path>
                        <path d="M440.8333,92.8779 L439.3033,107.1979 L426.0633,231.1979 C425.2633,238.7679 418.4633,244.2479 410.8933,243.4379 L193.9633,220.3279 C186.2133,219.4979 180.6833,212.4079 181.7733,204.6879 L199.4333,80.1579 L201.5233,65.3979 C202.5633,58.0079 209.3033,52.7879 216.7233,53.6379 L428.6733,77.7079 C436.2033,78.5679 441.6333,85.3379 440.8333,92.8779" id="Fill-9" fill="#F4F4F4"></path>
                        <path d="M440.8333,92.8779 L439.3033,107.1979 L199.4333,80.1579 L201.5233,65.3979 C202.5633,58.0079 209.3033,52.7879 216.7233,53.6379 L428.6733,77.7079 C436.2033,78.5679 441.6333,85.3379 440.8333,92.8779" id="Fill-11" fill="#DCDEE0"></path>
                        <path d="M264.9563,75.3622 C264.9563,77.5132 263.2133,79.2562 261.0623,79.2562 C258.9113,79.2562 257.1683,77.5132 257.1683,75.3622 C257.1683,73.2122 258.9113,71.4682 261.0623,71.4682 C263.2133,71.4682 264.9563,73.2122 264.9563,75.3622" id="Fill-13" fill="#BFC2C4"></path>
                        <path d="M242.8169,72.7578 C242.8169,74.9088 241.0739,76.6518 238.9229,76.6518 C236.7719,76.6518 235.0289,74.9088 235.0289,72.7578 C235.0289,70.6078 236.7719,68.8638 238.9229,68.8638 C241.0739,68.8638 242.8169,70.6078 242.8169,72.7578" id="Fill-15" fill="#9DA8B2"></path>
                        <mask id="mask-9" fill="white">
                            <use xlink:href="#path-8"></use>
                        </mask>
                        <g id="Clip-18"></g>
                        <polygon id="Fill-17" fill="#B8C3CB" mask="url(#mask-9)" points="396.008 347.933 409.075 347.933 409.075 253.329 396.008 253.329"></polygon>
                        <polygon id="Fill-19" fill="#F4F4F4" mask="url(#mask-9)" points="395.79 347.933 403.941 347.933 403.941 302.445 395.79 302.445"></polygon>
                        <path d="M221.7007,70.6181 C221.7007,72.7691 219.9567,74.5121 217.8067,74.5121 C215.6557,74.5121 213.9127,72.7691 213.9127,70.6181 C213.9127,68.4681 215.6557,66.7241 217.8067,66.7241 C219.9567,66.7241 221.7007,68.4681 221.7007,70.6181" id="Fill-20" fill="#8B8D8E" mask="url(#mask-9)"></path>
                        <path d="M258.2346,124.665 C246.8806,138.848 238.0716,149.434 231.8066,156.421 L254.1976,159.557 L258.2346,124.665 Z M263.4106,171.427 L261.1056,191.35 C260.7186,194.688 258.8926,196.168 255.6266,195.79 C251.8216,195.35 250.2196,192.528 250.8226,187.323 C250.8966,186.677 251.0386,185.765 251.2476,184.589 C251.4566,183.413 251.5856,182.609 251.6346,182.178 L252.9956,169.949 L229.3186,166.61 C224.4006,166.04 221.0076,165.485 219.1436,164.942 C215.9386,164.025 214.4536,162.562 214.6856,160.552 C214.8736,158.936 216.0966,157.004 218.3576,154.755 L223.6236,149.799 L254.5886,114.203 C257.3796,111.143 260.6246,109.827 264.3216,110.254 C268.3776,110.724 270.2026,112.718 269.7956,116.235 L264.6186,160.981 C265.2336,161.016 265.9716,161.083 266.8336,161.183 C273.4376,161.947 276.5356,164.105 276.1246,167.659 C275.8256,170.244 274.2716,171.72 271.4646,172.086 C270.2066,172.268 267.5216,172.048 263.4106,171.427 L263.4106,171.427 Z" id="Fill-21" fill="#9DA8B2" mask="url(#mask-9)"></path>
                        <path d="M319.0882,127.394 C312.4112,126.622 306.7242,129.402 302.0262,135.733 C298.1032,141.028 295.7202,147.318 294.8772,154.605 C293.5112,166.415 294.0822,175.466 296.5922,181.759 C299.1022,188.052 303.5512,191.567 309.9422,192.307 C317.5512,193.187 323.5102,189.475 327.8182,181.17 C330.8132,175.405 332.8462,167.892 333.9182,158.63 C335.0432,148.902 334.3692,141.44 331.8972,136.243 C329.4242,131.045 325.1542,128.096 319.0882,127.394 M308.7452,202.645 C297.8322,201.383 290.4412,195.472 286.5692,184.91 C283.6522,176.789 282.9072,166.571 284.3312,154.258 C285.5362,143.848 289.0642,135.052 294.9142,127.872 C301.8162,119.467 310.2932,115.846 320.3452,117.008 C329.7852,118.101 336.6792,122.972 341.0252,131.623 C344.7782,139.115 346.0762,147.869 344.9172,157.884 C343.0572,173.966 339.1112,185.742 333.0822,193.21 C327.0522,200.68 318.9402,203.825 308.7452,202.645" id="Fill-22" fill="#9DA8B2" mask="url(#mask-9)"></path>
                        <path d="M392.8489,140.2382 C381.4949,154.4212 372.6859,165.0072 366.4209,171.9942 L388.8119,175.1302 L392.8489,140.2382 Z M398.0259,187.0002 L395.7199,206.9232 C395.3339,210.2612 393.5069,211.7412 390.2419,211.3632 C386.4359,210.9232 384.8339,208.1012 385.4369,202.8962 C385.5119,202.2502 385.6529,201.3382 385.8619,200.1622 C386.0709,198.9862 386.2009,198.1822 386.2499,197.7512 L387.6099,185.5222 L363.9329,182.1832 C359.0149,181.6142 355.6219,181.0582 353.7579,180.5152 C350.5529,179.5982 349.0679,178.1352 349.2999,176.1252 C349.4879,174.5092 350.7109,172.5772 352.9719,170.3292 L358.2389,165.3722 L389.2029,129.7762 C391.9939,126.7162 395.2389,125.4002 398.9359,125.8272 C402.9919,126.2972 404.8179,128.2912 404.4109,131.8082 L399.2339,176.5542 C399.8479,176.5892 400.5859,176.6562 401.4479,176.7562 C408.0519,177.5202 411.1499,179.6782 410.7389,183.2322 C410.4399,185.8172 408.8859,187.2932 406.0789,187.6592 C404.8219,187.8412 402.1359,187.6212 398.0259,187.0002 L398.0259,187.0002 Z" id="Fill-23" fill="#9DA8B2" mask="url(#mask-9)"></path>
                        <polygon id="Fill-24" fill="#B8C3CB" mask="url(#mask-9)" points="269.756 347.933 282.823 347.933 282.823 253.329 269.756 253.329"></polygon>
                        <polygon id="Fill-25" fill="#F4F4F4" mask="url(#mask-9)" points="269.538 347.933 277.689 347.933 277.689 302.445 269.538 302.445"></polygon>
                        <path d="M429.7234,262.2475 L429.7234,291.2975 C429.7234,293.5975 427.8534,295.4675 425.5534,295.4675 L250.8334,295.4675 C248.9234,295.4675 247.3234,294.1975 246.8234,292.4575 C246.7134,292.0875 246.6534,291.6975 246.6534,291.2975 L246.6534,262.2475 C246.6534,259.9375 248.5234,258.0775 250.8334,258.0775 L425.5534,258.0775 C427.8534,258.0775 429.7234,259.9375 429.7234,262.2475" id="Fill-26" fill="#9DA8B2" mask="url(#mask-9)"></path>
                        <polygon id="Fill-27" fill="#B8C3CB" mask="url(#mask-9)" points="298.2845 295.4677 282.0895 295.4677 299.6135 258.0727 315.8075 258.0727"></polygon>
                        <path d="M279.1333,258.0776 L261.6033,295.4676 L250.8333,295.4676 C248.9233,295.4676 247.3233,294.1976 246.8233,292.4576 L262.9333,258.0776 L279.1333,258.0776 Z" id="Fill-28" fill="#B8C3CB" mask="url(#mask-9)"></path>
                        <polygon id="Fill-29" fill="#B8C3CB" mask="url(#mask-9)" points="374.1912 295.4677 357.9962 295.4677 375.5202 258.0727 391.7142 258.0727"></polygon>
                        <polygon id="Fill-30" fill="#B8C3CB" mask="url(#mask-9)" points="412.2027 295.4677 396.0077 295.4677 413.5317 258.0727 429.7257 258.0727"></polygon>
                        <polygon id="Fill-31" fill="#B8C3CB" mask="url(#mask-9)" points="337.5127 295.4677 321.3177 295.4677 338.8417 258.0727 355.0357 258.0727"></polygon>
                        <path d="M413.751,245.0922 C412.905,251.3552 407.143,255.7452 400.881,254.9002 C394.618,254.0542 390.228,248.2922 391.073,242.0292 C391.919,235.7672 397.681,231.3762 403.944,232.2222 C410.206,233.0682 414.597,238.8302 413.751,245.0922" id="Fill-32" fill="#9DA8B2" mask="url(#mask-9)"></path>
                        <path d="M406.9471,244.4682 C406.9471,246.9722 404.9171,249.0032 402.4121,249.0032 C399.9071,249.0032 397.8771,246.9722 397.8771,244.4682 C397.8771,241.9632 399.9071,239.9332 402.4121,239.9332 C404.9171,239.9332 406.9471,241.9632 406.9471,244.4682" id="Fill-33" fill="#B8C3CB" mask="url(#mask-9)"></path>
                        <path d="M287.4993,245.0922 C286.6533,251.3552 280.8913,255.7452 274.6293,254.9002 C268.3663,254.0542 263.9763,248.2922 264.8213,242.0292 C265.6673,235.7672 271.4293,231.3762 277.6923,232.2222 C283.9543,233.0682 288.3453,238.8302 287.4993,245.0922" id="Fill-34" fill="#9DA8B2" mask="url(#mask-9)"></path>
                        <path d="M280.6953,244.4682 C280.6953,246.9722 278.6653,249.0032 276.1603,249.0032 C273.6563,249.0032 271.6253,246.9722 271.6253,244.4682 C271.6253,241.9632 273.6563,239.9332 276.1603,239.9332 C278.6653,239.9332 280.6953,241.9632 280.6953,244.4682" id="Fill-35" fill="#B8C3CB" mask="url(#mask-9)"></path>
                        <path d="M499.4534,337.3276 L443.1634,337.4576 L450.4634,321.0676 L454.5634,311.8476 L457.4434,305.3676 L457.8634,304.4276 L458.0134,304.0776 L461.6034,296.0276 L461.6834,295.8576 L469.4934,278.3176 C470.1634,276.8076 472.3034,276.8076 472.9834,278.3176 L480.8534,295.8576 L480.9334,296.0276 L485.0234,305.1576 L485.0434,305.2076 L485.1134,305.3676 L487.9734,311.7276 L492.1634,321.0676 L499.4534,337.3276 Z" id="Fill-36" fill="#B8C3CB" mask="url(#mask-9)"></path>
                        <polygon id="Fill-37" fill="#9DA8B2" mask="url(#mask-9)" points="436.982 347.933 503.959 347.933 503.959 337.049 436.982 337.049"></polygon>
                        <polygon id="Fill-38" fill="#F4F4F4" mask="url(#mask-9)" points="492.1634 321.0678 450.4634 321.0678 454.5634 311.8478 454.6534 311.7278 487.9734 311.7278"></polygon>
                        <polygon id="Fill-39" fill="#F4F4F4" mask="url(#mask-9)" points="485.1133 305.3676 457.4433 305.3676 457.8633 304.4276 458.0133 304.0776 461.6033 296.0276 480.9333 296.0276 485.0233 305.1576 485.0433 305.2076"></polygon>
                        <path d="M176.9431,338.789 L186.7361,339.453 L199.1841,280.53 L213.4591,339.453 L222.7541,339.453 C222.7541,339.453 223.5071,281.443 216.7401,234.512 C213.1271,234.552 179.5351,234.552 179.5351,234.552 L176.9431,338.789 Z" id="Fill-40" fill="#0B3557" mask="url(#mask-9)"></path>
                        <polygon id="Fill-41" fill="#052A40" mask="url(#mask-9)" points="176.9431 346.2187 196.2181 346.2187 196.2181 344.4657 186.7361 339.4527 176.9431 338.7887"></polygon>
                        <polygon id="Fill-42" fill="#052A40" mask="url(#mask-9)" points="213.5244 346.8828 232.7994 346.8828 232.7994 345.1298 222.7534 339.4528 213.5244 339.4528"></polygon>
                        <polygon id="Fill-43" fill="#DFCAC8" mask="url(#mask-9)" points="194.634 170.617 205.703 170.617 205.703 163.939 194.634 163.939"></polygon>
                        <path d="M211.3872,145.5576 L211.3872,161.6616 C211.3872,161.6616 207.3132,170.5576 196.1752,165.7356 C185.0382,160.9136 197.0582,149.9806 197.0582,149.9806 L206.0222,142.1106 L211.3872,145.5576 Z" id="Fill-44" fill="#ECDCD8" mask="url(#mask-9)"></path>
                        <path d="M199.7288,154.184 C198.2968,154.946 195.5748,157.021 199.5708,160.439 C199.6348,161.397 198.6168,167.224 193.0118,165.14 C192.2798,164.868 191.6338,164.411 191.0988,163.843 C187.2508,159.754 182.2968,151.359 193.6848,141.461 C194.0108,141.178 194.4078,140.978 194.8288,140.878 C196.3298,140.518 198.1238,139.978 202.2848,140.123 C202.4878,140.13 202.6978,140.126 202.8988,140.104 C205.2308,139.851 215.9598,138.277 211.0478,147.4 C206.2258,147.875 202.9668,146.789 202.9668,146.789 C202.9668,146.789 211.9998,154.317 201.0818,153.884 C200.6108,153.865 200.1448,153.963 199.7288,154.184" id="Fill-45" fill="#072F47" mask="url(#mask-9)"></path>
                        <polygon id="Fill-46" fill="#052A40" mask="url(#mask-9)" points="210.0555 235.3329 220.7175 339.4529 213.5245 339.4529 188.7315 234.5519"></polygon>
                        <path d="M205.1573,146.0634 L198.5283,144.5044 C197.9353,144.3644 197.4943,145.0474 197.8723,145.5254 C199.2093,147.2164 201.5763,149.8104 203.4903,149.7814 C206.3283,149.7394 205.1573,146.0634 205.1573,146.0634" id="Fill-47" fill="#ECDCD8" mask="url(#mask-9)"></path>
                        <path d="M118.8264,102.3315 L116.4864,102.3315 C115.7964,93.3115 108.2564,86.2015 99.0464,86.2015 C89.8464,86.2015 82.2964,93.3115 81.6054,102.3315 C81.5664,102.7815 81.5464,103.2415 81.5464,103.7015 C81.5464,104.5815 81.6164,105.4515 81.7364,106.2915 C78.9164,105.0415 75.6264,104.3215 72.1054,104.3215 C61.6364,104.3215 53.1454,110.7015 53.1454,118.5815 C53.1454,123.5815 56.5764,127.9815 61.7564,130.5215 L82.4664,130.5215 L127.3264,130.5215 C131.5064,130.5215 134.8864,127.1315 134.8864,122.9615 L134.8864,118.4015 C134.8864,109.5215 127.6964,102.3315 118.8264,102.3315" id="Fill-48" fill="#F4F4F4" mask="url(#mask-9)"></path>
                        <path d="M371.6858,20.2914 L369.6658,20.2914 C368.3758,9.4014 359.1058,0.9614 347.8668,0.9614 C336.6358,0.9614 327.3668,9.4014 326.0768,20.2914 L317.1058,20.2914 C312.5668,20.2914 308.4658,22.1314 305.4968,25.1014 C302.5268,28.0714 300.6968,32.1714 300.6968,36.7014 C300.6968,38.7614 302.3558,40.4214 304.4158,40.4214 L334.6258,40.4214 L361.1168,40.4214 L384.3758,40.4214 C385.4068,40.4214 386.3358,40.0114 387.0058,39.3314 C387.6858,38.6614 388.0958,37.7314 388.0958,36.7014 C388.0958,27.6414 380.7558,20.2914 371.6858,20.2914" id="Fill-49" fill="#F4F4F4" mask="url(#mask-9)"></path>
                        <path d="M538.0234,120.1078 L536.0034,120.1078 C534.7134,109.2178 525.4434,100.7778 514.2044,100.7778 C502.9734,100.7778 493.7044,109.2178 492.4144,120.1078 L483.4434,120.1078 C478.9044,120.1078 474.8034,121.9478 471.8344,124.9178 C468.8644,127.8878 467.0344,131.9878 467.0344,136.5178 C467.0344,138.5778 468.6934,140.2378 470.7534,140.2378 L500.9634,140.2378 L527.4544,140.2378 L550.7134,140.2378 C551.7444,140.2378 552.6734,139.8278 553.3434,139.1478 C554.0234,138.4778 554.4334,137.5478 554.4334,136.5178 C554.4334,127.4578 547.0934,120.1078 538.0234,120.1078" id="Fill-50" fill="#F4F4F4" mask="url(#mask-9)"></path>
                        <path d="M204.7517,145.957 L203.0847,149.676 L226.6787,160.959 C226.6787,160.959 227.1657,162.292 223.8557,162.908 C222.1627,163.601 207.6927,170.605 207.6927,170.605 L187.3727,170.605 C187.3727,170.605 174.7497,175.454 167.8987,189.463 C166.8627,190.987 161.4797,198.741 159.2867,201.899 C158.7247,202.708 158.7257,203.778 159.2857,204.588 L179.5217,233.874 L180.5227,221.329 L172.7587,207.678 C171.8907,206.151 172.1597,204.231 173.4147,203.003 L182.2927,194.312 L179.3677,234.952 L217.2367,234.413 L217.0827,188.616 L244.3347,163.721 C245.7257,162.45 245.4297,160.184 243.7537,159.324 C236.9037,155.813 220.7437,148.24 204.7517,145.957" id="Fill-51" fill="#007CFF" mask="url(#mask-9)"></path>
                        <path d="M106.2981,348.7538 C106.2981,348.7538 3.1151,294.4068 31.2631,230.1238 C32.5911,225.6868 38.2571,204.2418 20.8981,177.9538 C31.0111,184.5558 69.0831,205.3648 72.8401,236.2958 C74.9991,240.5958 125.2351,317.9068 125.2351,317.9068 L106.2981,348.7538 Z" id="Fill-52" fill="#9DA8B2" mask="url(#mask-9)"></path>
                        <path d="M44.7901,210.2578 C44.7901,210.2578 48.3771,261.8788 73.5201,281.1868 C98.6631,300.4948 94.4721,337.4518 99.6741,338.1878" id="Stroke-53" stroke="#DDDDDD" mask="url(#mask-9)"></path>
                        <path d="M118.2425,310.4482 C118.2425,310.4482 63.4385,286.3512 89.7655,225.1352 C92.6565,225.8272 141.9325,250.9622 118.2425,310.4482" id="Fill-54" fill="#B8C3CB" mask="url(#mask-9)"></path>
                        <line x1="89.7657" y1="225.1352" x2="118.8607" y2="306.7062" id="Stroke-55" stroke="#FFFFFF" mask="url(#mask-9)"></line>
                        <line x1="102.847" y1="233.6074" x2="98.775" y2="247.8534" id="Stroke-56" stroke="#FFFFFF" mask="url(#mask-9)"></line>
                        <line x1="117.773" y1="251.8964" x2="106.309" y2="271.5174" id="Stroke-57" stroke="#FFFFFF" mask="url(#mask-9)"></line>
                        <line x1="124.5655" y1="276.2729" x2="112.8485" y2="289.8499" id="Stroke-58" stroke="#FFFFFF" mask="url(#mask-9)"></line>
                        <line x1="84.688" y1="271.9887" x2="109.27" y2="280.8017" id="Stroke-59" stroke="#FFFFFF" mask="url(#mask-9)"></line>
                        <line x1="83.1109" y1="248.6625" x2="101.4249" y2="257.8245" id="Stroke-60" stroke="#FFFFFF" mask="url(#mask-9)"></line>
                        <line x1="98.0948" y1="295.4536" x2="116.4938" y2="300.0696" id="Stroke-61" stroke="#FFFFFF" mask="url(#mask-9)"></line>
                        <path d="M15.4981,306.4067 C15.4981,306.4067 29.7041,346.9467 77.8131,329.4007 C75.1631,326.9127 53.3441,288.9877 15.4981,306.4067" id="Fill-62" fill="#B8C3CB" mask="url(#mask-9)"></path>
                        <line x1="15.4981" y1="306.4067" x2="77.8131" y2="329.4007" id="Stroke-63" stroke="#E8E8E8" mask="url(#mask-9)"></line>
                        <line x1="25.7151" y1="302.8925" x2="31.8401" y2="312.4365" id="Stroke-64" stroke="#E8E8E8" mask="url(#mask-9)"></line>
                        <line x1="38.2954" y1="314.8188" x2="25.3794" y2="321.5018" id="Stroke-65" stroke="#E8E8E8" mask="url(#mask-9)"></line>
                        <line x1="48.0684" y1="318.6733" x2="44.0204" y2="302.9333" id="Stroke-66" stroke="#E8E8E8" mask="url(#mask-9)"></line>
                        <line x1="64.8326" y1="324.6108" x2="61.1536" y2="311.9278" id="Stroke-67" stroke="#E8E8E8" mask="url(#mask-9)"></line>
                        <line x1="54.7701" y1="320.8979" x2="38.0141" y2="330.3209" id="Stroke-68" stroke="#E8E8E8" mask="url(#mask-9)"></line>
                        <path d="M171.6824,268.58 C171.6824,268.58 179.1674,326.948 110.5764,332.733 C110.8824,326.046 106.9944,275.683 171.6824,268.58" id="Fill-69" fill="#B8C3CB" mask="url(#mask-9)"></path>
                        <line x1="171.6824" y1="268.58" x2="110.6804" y2="327.003" id="Stroke-70" stroke="#DDDDDD" mask="url(#mask-9)"></line>
                        <line x1="146.3128" y1="292.8774" x2="168.2798" y2="294.8864" id="Stroke-71" stroke="#DDDDDD" mask="url(#mask-9)"></line>
                        <line x1="156.3233" y1="271.6791" x2="154.4623" y2="285.3451" id="Stroke-72" stroke="#DDDDDD" mask="url(#mask-9)"></line>
                        <line x1="135.0396" y1="280.5595" x2="135.7926" y2="302.9525" id="Stroke-73" stroke="#DDDDDD" mask="url(#mask-9)"></line>
                        <line x1="131.0313" y1="310.6718" x2="154.9763" y2="313.9338" id="Stroke-74" stroke="#DDDDDD" mask="url(#mask-9)"></line>
                        <path d="M19.5528,266.8178 C19.5528,266.8178 17.5428,250.5078 -0.0002,252.5158 C0.7958,256.7948 2.9978,269.4508 19.5528,266.8178" id="Fill-75" fill="#9DA8B2" mask="url(#mask-9)"></path>
                        <path d="M98.074,210.1938 C98.074,210.1938 104.05,199.6648 89.8,191.4698 C88.837,195.4908 87.336,208.4208 98.074,210.1938" id="Fill-76" fill="#9DA8B2" mask="url(#mask-9)"></path>
                        <path d="M172.8968,304.8373 C172.8968,304.8373 139.7358,297.7863 126.2598,334.5093 C130.2558,335.1023 156.5308,347.2543 172.8968,304.8373" id="Fill-77" fill="#9DA8B2" mask="url(#mask-9)"></path>
                        <line x1="129.2801" y1="335.288" x2="170.0661" y2="304.456" id="Stroke-78" stroke="#E8E8E8" mask="url(#mask-9)"></line>
                        <line x1="160.614" y1="304.6733" x2="158.705" y2="313.0443" id="Stroke-79" stroke="#E8E8E8" mask="url(#mask-9)"></line>
                        <line x1="153.7039" y1="316.8251" x2="165.7379" y2="319.3001" id="Stroke-80" stroke="#E8E8E8" mask="url(#mask-9)"></line>
                        <line x1="141.9031" y1="325.7455" x2="156.4081" y2="329.6185" id="Stroke-81" stroke="#E8E8E8" mask="url(#mask-9)"></line>
                        <line x1="147.9026" y1="308.4887" x2="146.5616" y2="322.2247" id="Stroke-82" stroke="#E8E8E8" mask="url(#mask-9)"></line>
                        <path d="M167.9624,348.0097 L41.1804,348.0097 C41.1804,348.0097 33.2564,340.0367 37.7844,335.1557 C44.5824,327.8287 50.8014,333.6437 59.2914,332.8877 C67.7814,332.1317 67.2154,325.7047 63.2534,322.3027 C59.2914,318.9007 59.8574,311.3397 68.9134,311.3397 C77.9694,311.3397 80.7994,328.8207 89.8554,327.1197 C98.9114,325.4187 92.6514,312.6067 93.2514,308.3147 C94.1984,301.5327 96.6474,292.5517 108.5334,292.8717 C120.4194,293.1937 120.9844,305.2907 123.8154,317.0097 C126.6444,328.7297 134.5684,330.2417 139.0964,326.4617 C143.6244,322.6807 149.8504,316.2537 158.9064,318.9007 C167.9624,321.5467 168.5284,339.3147 167.9624,348.0097" id="Fill-83" fill="#DCDEE0" mask="url(#mask-9)"></path>
                    </g>
                </g>
            </g>
        </g>
    </g>
</svg>