<?xml version="1.0" encoding="UTF-8"?>
<svg width="186px" height="135px" viewBox="0 0 186 135" version="1.1" xmlns="http://www.w3.org/2000/svg" xmlns:xlink="http://www.w3.org/1999/xlink">
    <title>编组</title>
    <defs>
        <path d="M0.200846154,1.85914286 C1.45869231,2.75571429 4.64261538,3.40328571 6.63707692,0.957 L6.63707692,0.957 C6.63707692,0.957 5.53753846,0.358285303 4.02015385,0.358285303 L4.02015385,0.358285303 C2.88669231,0.357857143 1.519,0.692142857 0.200846154,1.85914286 L0.200846154,1.85914286 Z" id="path-1"></path>
        <path d="M0.0752131148,16.4355278 C2.47034426,17.1195278 17.602918,26.8417222 30.7509836,1.25611111 L30.7509836,1.25611111 C30.7509836,1.25611111 27.7892131,0.201083333 23.5249344,0.200555556 L23.5249344,0.200555556 C16.7847213,0.200555556 6.789,2.83469444 0.0752131148,16.4355278 L0.0752131148,16.4355278 Z" id="path-3"></path>
        <polygon id="path-5" points="0.4025 0.6335 0.143 2.864 1.8765 2.864 2.5335 0.4735"></polygon>
    </defs>
    <g id="缺省页" stroke="none" stroke-width="1" fill="none" fill-rule="evenodd">
        <g id="是否登录" transform="translate(-867.000000, -382.000000)">
            <g id="编组-4" transform="translate(725.000000, 382.000000)">
                <g id="编组" transform="translate(142.000000, 0.000000)">
                    <g transform="translate(37.000000, 106.000000)">
                        <mask id="mask-2" fill="white">
                            <use xlink:href="#path-1"></use>
                        </mask>
                        <g id="Clip-2"></g>
                        <polygon id="Fill-1" fill="#9DA8B2" mask="url(#mask-2)" points="-1.40861538 3.94414286 8.24546154 3.94414286 8.24546154 -0.922285714 -1.40861538 -0.922285714"></polygon>
                    </g>
                    <g>
                        <path d="M139.235263,110.680237 C139.235263,110.680237 182.309415,93.0979408 173.61287,66.5090113 C173.257067,64.6970535 171.834376,55.9702648 179.743556,46.2106028 C175.472348,48.439462 159.549494,55.227138 156.863466,67.3537577 C155.839943,68.9765465 132.905516,97.7114761 132.905516,97.7114761 L139.235263,110.680237 Z" id="Fill-3" fill="#9DA8B2"></path>
                        <path d="M136.847671,105.934335 L136.853941,105.662307 C137.488222,105.6868 138.113098,103.986885 138.904121,101.834631 C140.711874,96.9167577 143.737508,88.6860817 151.94084,84.6718423 C163.830211,78.8545042 169.05075,58.544631 169.101952,58.3403493 L169.38252,58.4080958 C169.330795,58.6134197 164.080997,79.0405465 152.077205,84.9141662 C143.973143,88.8794197 140.970497,97.0480817 139.176851,101.928434 C138.251031,104.446518 137.691986,105.966645 136.847671,105.934335" id="Fill-5" fill="#DDDDDD"></path>
                        <path d="M135.956596,95.1079789 C135.956596,95.1079789 158.598438,87.6720211 150.525202,62.4062324 C149.353298,62.5688239 128.861949,70.6290915 135.956596,95.1079789" id="Fill-7" fill="#B8C3CB"></path>
                        <polygon id="Fill-9" fill="#FFFFFF" points="136.169346 93.6171394 135.886689 93.4842521 150.562925 62.3396324 150.84506 62.4725197"></polygon>
                        <polygon id="Fill-11" fill="#FFFFFF" points="145.865954 71.1509479 144.929162 65.2335535 145.237943 65.1845676 146.174735 71.1024831"></polygon>
                        <polygon id="Fill-13" fill="#FFFFFF" points="142.131325 80.2238169 138.384679 72.1260282 138.667859 71.9957465 142.415028 80.0935352"></polygon>
                        <polygon id="Fill-15" fill="#FFFFFF" points="138.7095 87.4096859 134.649893 81.4922915 134.907994 81.3166718 138.967601 87.2340662"></polygon>
                        <polygon id="Fill-17" fill="#FFFFFF" points="140.74991 83.7353254 140.674151 83.433593 150.665904 80.9420859 150.742185 81.2438183"></polygon>
                        <polygon id="Fill-19" fill="#FFFFFF" points="144.826079 75.0097873 144.71636 74.7179563 152.210174 71.9153366 152.319893 72.2066465"></polygon>
                        <polygon id="Fill-21" fill="#FFFFFF" points="136.990567 91.2127648 136.939365 90.9058211 144.433702 89.659807 144.484382 89.9667507"></polygon>
                        <polygon id="Fill-23" fill="#E8E8E8" points="153.178994 98.5886887 152.886932 98.4792521 154.760516 93.496238 155.052578 93.6051535"></polygon>
                        <path d="M176.933127,97.4462225 C176.933127,97.4462225 169.735031,113.096701 151.328869,104.215138 C152.475172,103.324011 162.59284,89.0138704 176.933127,97.4462225" id="Fill-25" fill="#B8C3CB"></path>
                        <polygon id="Fill-27" fill="#E8E8E8" points="151.368994 104.290337 151.288011 103.989646 176.892792 97.1378718 176.973775 97.438562"></polygon>
                        <polygon id="Fill-29" fill="#E8E8E8" points="170.496587 99.2553662 170.255204 99.0583803 173.065581 95.632493 173.30644 95.8294789"></polygon>
                        <polygon id="Fill-31" fill="#E8E8E8" points="172.478845 103.337613 167.482969 100.222838 167.64807 99.9591479 172.643946 103.073401"></polygon>
                        <polygon id="Fill-33" fill="#E8E8E8" points="163.653458 101.076808 163.359307 100.974146 165.544807 94.7451183 165.839481 94.8477803"></polygon>
                        <polygon id="Fill-35" fill="#E8E8E8" points="166.8513 106.136168 160.606193 101.7759 160.785924 101.521069 167.030508 105.880815"></polygon>
                        <path d="M102.93193,62.4060239 C102.93193,62.4060239 93.2484354,84.6018549 119.669317,94.7966577 C120.319272,92.1196296 127.660003,72.6706577 102.93193,62.4060239" id="Fill-37" fill="#B8C3CB"></path>
                        <polygon id="Fill-39" fill="#DDDDDD" points="120.111747 92.6942239 102.625657 62.4839845 102.895775 62.3281676 120.381865 92.538407"></polygon>
                        <polygon id="Fill-41" fill="#DDDDDD" points="110.223025 75.327831 101.167542 73.4590704 101.231284 73.1542113 110.286244 75.0229718"></polygon>
                        <polygon id="Fill-43" fill="#DDDDDD" points="107.910721 71.1521986 107.602985 71.1011282 108.539778 65.4948465 108.847513 65.5459169"></polygon>
                        <polygon id="Fill-45" fill="#DDDDDD" points="113.213498 80.2059944 112.916734 80.1106282 115.726588 71.390093 116.023874 71.4854592"></polygon>
                        <polygon id="Fill-47" fill="#DDDDDD" points="114.28979 84.0498254 104.297515 82.4926986 104.346104 82.1847127 114.337857 83.7418394"></polygon>
                        <path d="M179.11894,77.2224915 C179.11894,77.2224915 179.842564,71.3853507 185.988401,72.1258718 C185.704699,73.6564211 184.918379,78.1850127 179.11894,77.2224915" id="Fill-49" fill="#9DA8B2"></path>
                        <path d="M105.57104,92.1891479 C105.57104,92.1891479 118.039832,89.5845563 123.05713,103.382951 C121.554501,103.600782 111.66672,108.128331 105.57104,92.1891479" id="Fill-51" fill="#9DA8B2"></path>
                        <polygon id="Fill-53" fill="#E8E8E8" points="121.712339 103.951656 106.411749 92.1168676 106.603497 91.8703746 121.903564 103.705685"></polygon>
                        <polygon id="Fill-55" fill="#E8E8E8" points="110.726113 95.4499944 110.10176 92.3352197 110.407928 92.2742479 111.032282 95.3890225"></polygon>
                        <polygon id="Fill-57" fill="#E8E8E8" points="108.09949 98.0637577 108.038361 97.7583775 112.722322 96.8239972 112.782929 97.1293775"></polygon>
                        <polygon id="Fill-59" fill="#E8E8E8" points="111.545558 101.798413 111.461963 101.498244 117.082716 99.9411169 117.165789 100.241286"></polygon>
                        <polygon id="Fill-61" fill="#E8E8E8" points="115.407984 98.863531 114.78363 93.5688831 115.093456 93.5324042 115.71781 98.8270521"></polygon>
                        <path d="M68.0201478,106.882473 C68.0201478,106.882473 54.1574006,109.498008 48.1771871,100.855642 C46.1259624,99.2646423 35.7731815,94.9236563 33.3525691,72.4943606 C33.1038725,70.0393324 30.3645522,59.0086423 19.0399736,50.8728113 C17.7249118,49.6366986 5.22111404,37.9327127 9.16473202,22.8596423 C9.16473202,22.8596423 12.913468,7.02833239 8.14852416,0.428261972 C11.629232,1.46374085 18.0065242,1.26050141 23.8414904,24.0056 C24.8394118,27.2433606 24.12885,30.5973324 37.4539736,37.8920648 C40.8756421,40.2788254 51.5659399,44.4400225 53.2362826,50.1187408 C53.8815354,51.7118254 69.3498388,92.949107 69.3498388,92.949107 L68.0201478,106.882473 Z" id="Fill-63" fill="#9DA8B2"></path>
                        <path d="M59.2738635,80.4584282 C52.8819421,78.681907 43.6002287,69.2526394 31.6857792,52.432231 C22.8345826,39.9366535 15.7550882,27.8016958 15.6845545,27.6802732 L16.2247904,27.3675972 C16.5058803,27.8506817 44.496268,75.7047099 59.441577,79.8586113 L59.2738635,80.4584282 Z" id="Fill-65" fill="#FFFFFF"></path>
                        <path d="M31.2553146,98.8304394 C31.2553146,98.8304394 18.4223596,102.763904 15.642809,91.0922282 C19.9140169,91.0494958 24.3900337,88.3412 31.2553146,98.8304394" id="Fill-67" fill="#9DA8B2"></path>
                        <path d="M80.9630831,89.8132789 C80.9630831,89.8132789 44.6512854,80.2464338 54.9533865,39.670462 C56.8118191,39.8158563 89.801218,50.5703493 80.9630831,89.8132789" id="Fill-69" fill="#B8C3CB"></path>
                        <polygon id="Fill-71" fill="#FFFFFF" points="80.7661635 87.3967099 54.5370287 39.7454 54.8108039 39.5953155 81.0399388 87.2466254"></polygon>
                        <polygon id="Fill-73" fill="#FFFFFF" points="62.6352388 52.7717972 62.3254129 52.7306282 63.5741208 43.3873465 63.8844691 43.4285155"></polygon>
                        <polygon id="Fill-75" fill="#FFFFFF" points="69.8072629 66.823407 69.5167685 66.7092803 74.8250831 53.3168437 75.1155775 53.4314915"></polygon>
                        <polygon id="Fill-77" fill="#FFFFFF" points="75.7281758 77.7482042 75.4617152 77.5856127 81.3943837 67.9306972 81.6608444 68.0932887"></polygon>
                        <polygon id="Fill-79" fill="#FFFFFF" points="72.4428202 72.5252634 56.2054382 69.4110099 56.265 69.1051085 72.5018596 72.219362"></polygon>
                        <polygon id="Fill-81" fill="#FFFFFF" points="65.2445157 58.8177014 53.0667404 55.0801803 53.1586955 54.7826169 65.3364708 58.5196169"></polygon>
                        <polygon id="Fill-83" fill="#FFFFFF" points="78.705064 83.7396507 66.839727 82.8052704 66.8637607 82.4946789 78.7296202 83.4290592"></polygon>
                        <path d="M16.7472624,58.6685549 C16.7472624,58.6685549 9.2618073,84.6868507 40.3107455,93.239062 C39.8588073,90.9924845 42.4894534,63.5379634 16.7472624,58.6685549" id="Fill-85" fill="#B8C3CB"></path>
                        <polygon id="Fill-87" fill="#E8E8E8" points="40.4939764 93.3273408 16.7633022 58.7568338 17.0203584 58.580693 40.7515551 93.1512"></polygon>
                        <polygon id="Fill-89" fill="#E8E8E8" points="23.2929472 67.7073944 22.980509 67.6938451 23.2929472 60.5309577 23.6053854 60.5439859"></polygon>
                        <polygon id="Fill-91" fill="#E8E8E8" points="25.3012247 71.5921338 16.2457416 70.3461197 16.2885843 70.0381338 25.3440674 71.2836268"></polygon>
                        <polygon id="Fill-93" fill="#E8E8E8" points="29.2149051 77.1003915 28.9238882 76.9878282 32.6710567 67.3329127 32.9620736 67.4454761"></polygon>
                        <polygon id="Fill-95" fill="#E8E8E8" points="35.4615792 86.1287563 35.1674275 86.0229676 37.9778039 78.2368127 38.2714331 78.3426014"></polygon>
                        <polygon id="Fill-97" fill="#E8E8E8" points="31.8639944 80.6248761 19.6862191 79.378862 19.7175674 79.0693127 31.8958652 80.3148056"></polygon>
                        <path d="M162.510812,86.3872873 C162.510812,86.3872873 164.92411,108.670668 138.838655,110.36902 C139.003756,107.824358 137.897683,88.6156254 162.510812,86.3872873" id="Fill-99" fill="#B8C3CB"></path>
                        <polygon id="Fill-101" fill="#DDDDDD" points="138.944194 108.303325 138.732593 108.074551 162.46379 86.2732127 162.675391 86.5019873"></polygon>
                        <polygon id="Fill-103" fill="#DDDDDD" points="161.303119 96.508507 152.872512 95.5741268 152.906995 95.2645775 161.337602 96.1989577"></polygon>
                        <polygon id="Fill-105" fill="#DDDDDD" points="156.165861 92.643362 155.858648 92.5891648 156.79544 87.2945169 157.102653 87.3487141"></polygon>
                        <polygon id="Fill-107" fill="#DDDDDD" points="148.591063 99.1594789 148.445294 90.7505775 148.757732 90.7453662 148.903502 99.1542676"></polygon>
                        <polygon id="Fill-109" fill="#DDDDDD" points="155.985765 103.670456 146.930282 102.11333 146.983574 101.806386 156.039057 103.363513"></polygon>
                        <path d="M7.83666067,54.2448662 C7.83666067,54.2448662 7.39151461,47.6807535 0.342323596,48.0986972 C0.566464045,49.8262324 1.16835169,54.9343169 7.83666067,54.2448662" id="Fill-111" fill="#9DA8B2"></path>
                        <path d="M72.6512343,43.4078268 C72.6512343,43.4078268 78.4773185,34.4621648 66.2091556,26.5895028 C65.1563747,30.0701085 63.1918803,41.3358268 72.6512343,43.4078268" id="Fill-113" fill="#9DA8B2"></path>
                    </g>
                    <g transform="translate(67.000000, 86.000000)">
                        <mask id="mask-4" fill="white">
                            <use xlink:href="#path-3"></use>
                        </mask>
                        <g id="Clip-116"></g>
                        <polygon id="Fill-115" fill="#9DA8B2" mask="url(#mask-4)" points="-1.44327869 20.3875278 32.2694754 20.3875278 32.2694754 -1.37644444 -1.44327869 -1.37644444"></polygon>
                    </g>
                    <g transform="translate(49.000000, 19.000000)">
                        <polygon id="Fill-117" fill="#E8E8E8" points="20.8093043 84.1719306 20.6522609 83.8986155 48.4035652 67.4372091 48.5606087 67.7105242"></polygon>
                        <polygon id="Fill-119" fill="#E8E8E8" points="40.8328174 72.0616895 40.5411652 71.9504566 42.4116 66.885653 42.7032522 66.9963562"></polygon>
                        <polygon id="Fill-121" fill="#E8E8E8" points="44.3774609 76.5872785 37.2056348 74.0548767 37.3078957 73.7556073 44.4797217 76.2885388"></polygon>
                        <polygon id="Fill-123" fill="#E8E8E8" points="37.8236348 82.5996804 29.0928522 79.1175616 29.2065913 78.8230594 37.9373739 82.3051781"></polygon>
                        <polygon id="Fill-125" fill="#E8E8E8" points="32.732087 76.788716 32.4273913 76.7198575 34.2983478 68.1729352 34.6025217 68.2412639"></polygon>
                        <path d="M131.6796,96.4538941 C131.230383,98.3411452 128.23873,99.1303689 124.998209,98.2161406 C121.757687,97.3013826 119.494904,95.0301132 119.944122,93.1423324 C120.393861,91.2545516 123.384991,90.4658575 126.624991,91.3800858 C129.866035,92.2948438 132.128817,94.5666429 131.6796,96.4538941" id="Fill-127" fill="#E6E6E6"></path>
                        <path d="M83.7178435,111.465195 C83.7778435,113.9923 88.782887,115.877432 94.8961043,115.676153 C101.009322,115.475405 105.915757,113.263459 105.855235,110.736354 C105.794713,108.209779 100.790191,106.324117 94.6769739,106.525395 C88.5637565,106.726674 83.6573217,108.938089 83.7178435,111.465195" id="Fill-129" fill="#E6E6E6"></path>
                        <path d="M59.2088348,26.7378411 C57.3577043,29.2596493 54.3796174,33.8334393 52.2759652,36.2471927 C52.0255304,36.5348091 51.8904,36.6884164 51.9154435,37.0946813 C51.9697043,37.9803068 52.9938783,38.5687817 53.8057043,38.4305352 C54.6175304,38.2917589 54.4234435,37.123284 54.9978783,36.5289826 C57.3295304,34.1173479 60.2721391,31.8969279 62.2020522,29.1065717" id="Fill-131" fill="#E0D4D1"></path>
                        <polygon id="Fill-133" fill="#ECDCD8" points="74.1785217 10.9099854 72.1797391 14.5234648 76.77 15.6580402 78.4166087 11.0413461"></polygon>
                        <path d="M79.3182261,3.5883726 C79.3182261,3.5883726 81.1464,9.38996164 79.7799652,11.3889753 C78.4140522,13.3874594 74.7691826,10.9509297 74.7691826,10.9509297 L73.7392696,6.49049132 L76.6161391,4.56457352 L77.5448348,3.31240913 L79.3182261,3.5883726 Z" id="Fill-135" fill="#ECDCD8"></path>
                        <path d="M75.331513,11.8597023 C75.331513,11.8597023 69.4243826,10.7367799 71.3010783,4.2842137 C71.4826435,3.80220457 72.3346435,-0.110544292 76.9269913,0.758131507 C77.4090783,0.939811872 78.5579478,1.26927306 79.6176,0.463629224 C80.0094261,0.610880365 81.8861217,1.67924566 80.2546435,3.20737352 C79.999513,3.47274338 78.8203826,4.34459726 77.5859478,3.85411324 C77.4607304,4.32341005 77.7320348,6.82667945 76.8742957,8.07831416 C76.8742957,8.07831416 76.6040348,8.35056986 76.519513,7.95701735 C76.5977739,7.81930046 76.3520348,6.44901735 75.1050783,6.88282557 C74.9960348,7.03537352 74.0793391,8.03223196 75.2010783,8.58362922 C75.1958609,8.80132785 75.619513,11.6324694 75.331513,11.8597023" id="Fill-137" fill="#072F47"></path>
                        <path d="M79.7808522,24.2940018 C79.7599826,22.4284676 79.5617217,20.1376 79.1302435,18.4140201 C79.0958087,18.0368877 79.0462435,17.6597553 78.9972,17.2858009 C78.4702435,13.2999562 74.9385913,11.5536 71.2504174,12.9911525 C69.5933739,13.6368329 68.1945913,14.8100749 66.8824174,16.0193352 C65.3359826,17.4452347 63.8615478,18.951116 62.4679826,20.5290338 C62.0730261,20.976084 61.6775478,21.4485589 61.3378957,21.9491068 L61.3013739,21.9337461 C61.2298957,22.0704037 61.1589391,22.2065315 61.0874609,22.3421297 C60.9638087,22.5508237 60.851113,22.7632256 60.7540696,22.9814539 C60.3507652,23.7542575 59.9474609,24.5260018 59.5436348,25.2988055 C58.9744174,26.3894174 58.3796348,27.5525954 58.4693739,28.7825132 C58.7281565,32.3525589 60.035113,33.0045954 61.5810261,33.9543123 C62.9745913,34.8102758 65.3119826,34.8367598 66.8641565,35.3420749 C69.5323304,36.210221 70.4813739,34.7673717 71.0907652,32.9929425 C71.3719826,32.1735269 72.3622435,31.2953169 72.7812,30.537874 C73.5017217,29.7290521 73.9222435,28.8513717 74.3594609,27.9276091 C74.4105913,28.0377826 74.4549391,28.1500749 74.4825913,28.2676639 C74.5827652,28.6929973 74.4612,29.1654721 74.1685043,29.4869881 C75.9617217,29.6448329 77.7852,29.4403763 79.5006783,28.888979 C79.6394609,28.8444858 79.7865913,28.7904584 79.8705913,28.6712804 C79.9488522,28.5605772 79.9572,28.4165041 79.9618957,28.2809059 C80.0062435,26.9498192 79.9420696,25.6155543 79.7808522,24.2940018" id="Fill-139" fill="#007CFF"></path>
                        <path d="M93.4897565,31.4863196 C93.4897565,31.4863196 90.768887,26.4850776 97.3073217,22.6226484 C97.7419304,24.5305571 98.4097565,30.662137 93.4897565,31.4863196" id="Fill-141" fill="#9DA8B2"></path>
                        <polygon id="Fill-143" fill="#DBDCDE" points="17.3010261 92.4543836 8.73667826 98.0160274 0.172330435 92.4543836 0.172330435 78.2849041 17.3010261 78.2849041"></polygon>
                        <polygon id="Fill-145" fill="#EBECED" points="8.73667826 92.4543836 8.73667826 98.0160274 0.172330435 92.4543836 0.172330435 78.2849041 8.73667826 78.2849041"></polygon>
                        <polygon id="Fill-147" fill="#B8C3CB" points="0.17253913 78.2846922 8.73688696 73.2039982 17.3012348 78.2846922 8.73688696 82.5994685"></polygon>
                        <polygon id="Fill-149" fill="#DBDCDE" points="49.4071304 92.4543836 40.8427826 98.0160274 32.2784348 92.4543836 32.2784348 63.1794795 49.4071304 63.1794795"></polygon>
                        <polygon id="Fill-151" fill="#EBECED" points="40.8427304 92.4543836 40.8427304 98.0160274 32.2783826 92.4543836 32.2783826 63.1794795 40.8427304 63.1794795"></polygon>
                        <polygon id="Fill-153" fill="#B8C3CB" points="32.2783826 63.1797443 40.8427304 58.0990502 49.4070783 63.1797443 40.8427304 67.4945205"></polygon>
                        <polygon id="Fill-155" fill="#DBDCDE" points="91.0912174 93.5067525 82.5268696 99.0683963 73.9625217 93.5067525 73.9625217 48.8631726 91.0912174 48.8631726"></polygon>
                        <polygon id="Fill-157" fill="#EBECED" points="82.5270783 93.5067525 82.5270783 99.0683963 73.9627304 93.5067525 73.9627304 48.8631726 82.5270783 48.8631726"></polygon>
                        <polygon id="Fill-159" fill="#B8C3CB" points="73.9627304 48.8633315 82.5270783 43.7831671 91.0914261 48.8633315 82.5270783 53.1786374"></polygon>
                        <polygon id="Fill-161" fill="#ECDCD8" points="80.2457739 44.6346813 79.975513 46.9975854 81.7838609 46.9975854 82.4699478 44.4651836"></polygon>
                    </g>
                    <g transform="translate(128.000000, 63.000000)">
                        <mask id="mask-6" fill="white">
                            <use xlink:href="#path-5"></use>
                        </mask>
                        <g id="Clip-164"></g>
                        <polygon id="Fill-163" fill="#ECDCD8" mask="url(#mask-6)" points="-293 196.5 280.7355 196.5 280.7355 -126.2265 -293 -126.2265"></polygon>
                        <polygon id="Fill-165" fill="#ECDCD8" mask="url(#mask-6)" points="-1.351 4.358 4.0275 4.358 4.0275 -1.0205 -1.351 -1.0205"></polygon>
                    </g>
                    <g transform="translate(54.000000, 34.000000)">
                        <path d="M81.5586624,35.3312828 L73.6892739,35.3312828 C73.6892739,35.3312828 72.5172484,34.2374713 73.6892739,33.2054631 C74.024586,33.2054631 74.735949,33.598127 75.4890955,33.1026352 L79.8841911,33.1026352 C79.8841911,33.1026352 81.8934522,33.2672664 81.5586624,35.3312828" id="Fill-166" fill="#0B3557"></path>
                        <polygon id="Fill-168" fill="#FFFFFF" points="77.4435682 33.7698975 77.1375045 33.708627 77.3213516 32.7533402 77.6274153 32.8151434"></polygon>
                        <polygon id="Fill-170" fill="#FFFFFF" points="76.2270955 33.7602541 75.9173758 33.7186967 76.0411592 32.7634098 76.3503567 32.8049672"></polygon>
                        <path d="M66.7194306,14.1314262 C69.0258764,13.2113033 73.351507,12.8575328 75.5038764,12.6529426 C76.6147936,12.546918 77.7925643,12.6955656 78.8334943,13.109541 C80.1350484,13.6274098 80.8411885,14.482 80.9529592,15.9157295 C81.0657745,17.3499918 80.6573414,18.7677377 80.2541312,20.144459 C79.6179783,22.3150328 77.3475707,28.5257295 76.7114178,30.6957705 C76.631507,30.9690902 76.5500293,31.2450738 76.4074433,31.4890902 C75.8559019,32.4337213 74.6222459,32.6063443 73.5557236,32.6798689 C72.790042,29.8683525 73.9035707,22.9453197 73.6377236,20.0379016 C70.8732268,21.054459 66.1527427,21.8211393 63.2258127,22.0379836 C61.6531885,22.1546639 59.6951121,21.906918 59.1221567,20.3922049" id="Fill-172" fill="#052A40"></path>
                        <path d="M70.0358344,35.5071557 C69.8744459,35.1070328 71.3645478,35.0415 71.142051,33.7878525 C70.9195541,32.5342049 70.1543949,24.128959 69.9130955,22.7858033 C69.5088408,20.5358443 68.758828,14.1578525 68.8032229,12.5973197 C68.8476178,11.0362541 73.4390955,12.1599016 73.4390955,12.1599016 C73.2521146,12.4742459 73.274051,30.3428525 73.3085223,30.9219918 C73.3429936,31.5011311 72.992535,34.5833033 76.6021019,35.1485902 C78.4494522,35.4384262 76.4929427,36.4603115 75.1281911,35.9530984 C74.5228535,35.7282623 73.9399745,35.1544508 72.8948662,35.2972377 C71.5833885,35.4767869 70.0468025,36.4485902 70.0358344,35.5071557" id="Fill-174" fill="#ECDCD8"></path>
                        <path d="M30.890079,44.4251025 C30.890079,44.4251025 31.6019643,47.6644467 34.7748943,48.3778484 C34.7748943,48.7049795 31.6615057,48.7049795 31.6615057,48.7049795 L29.7039516,47.4715779 L28.8442573,45.9408811 L29.5556204,44.2471516 L30.890079,44.4251025 Z" id="Fill-176" fill="#ECDCD8"></path>
                        <path d="M29.1985287,45.2021721 C29.1985287,45.2021721 30.985293,49.2843852 34.3566943,47.9428279 C34.645,47.9715984 36.5466688,48.3711885 35.883879,49.2279098 C35.5093949,49.2279098 31.5326561,49.3419262 31.5326561,49.3419262 L29.6591911,47.7430328 L29.6591911,49.1986066 L28.7660701,49.3419262 L28.7660701,47.0866393 C28.7660701,47.0866393 28.0171019,46.1446721 29.1985287,45.2021721" id="Fill-178" fill="#0B3557"></path>
                        <path d="M41.2043732,24.8347418 C41.7015962,24.811832 42.2259783,24.801709 42.6626153,25.0430615 C43.2987682,25.3952336 43.5740166,26.2114631 43.5040293,26.9440451 C43.4345643,27.6771598 43.0867172,28.3490041 42.7388701,28.9947418 C40.0945006,33.9027746 37.0375197,38.5811762 33.6112777,42.96175 C33.0069847,43.7348238 32.372921,44.5148238 31.5393414,45.0215041 C30.7052395,45.5281844 29.6209592,45.7189221 28.7591758,45.261791 C30.5020675,41.0996598 32.2449592,36.9375287 33.9883732,32.7759303 C31.3883987,34.5469139 28.3251503,35.6082254 25.2023605,35.8208074 C24.3061057,35.8815451 23.3168828,35.8421189 22.6420803,35.2390041 C21.3535834,34.0855205 22.1422459,31.8973648 23.2714433,30.5824467 C27.5516344,25.5944959 35.1348064,25.1139221 41.2043732,24.8347418" id="Fill-180" fill="#052A40"></path>
                        <polygon id="Fill-182" fill="#ECDCD8" points="38.4218051 40.7445041 35.7111045 42.4478238 36.8658943 43.9284385 40.0811299 42.8884385"></polygon>
                        <path d="M39.3411452,49.9785 L34.4629287,43.7326393 C34.4629287,43.7326393 34.5966357,42.0991148 36.1347885,42.366041 C36.3426611,42.6313689 36.4753236,43.4486639 37.3318841,43.7278443 C37.552814,44.0102213 40.0566866,47.216 40.0566866,47.216 C40.0566866,47.216 41.1723045,48.9171885 39.3411452,49.9785" id="Fill-184" fill="#0B3557"></path>
                        <polygon id="Fill-186" fill="#FFFFFF" points="37.9660522 45.6631393 37.8260777 45.3780984 38.4507401 45.0600246 38.5901924 45.3445328"></polygon>
                        <polygon id="Fill-188" fill="#FFFFFF" points="37.0295809 44.7078525 36.8896064 44.4228115 37.5142688 44.1047377 37.653721 44.3892459"></polygon>
                        <path d="M53.9441962,25.4700369 C54.2659287,26.7700369 54.658693,28.2538484 53.9217376,29.3636434 C53.696107,29.7030287 53.4166803,30.0200369 53.0677885,30.2230287 C49.2367694,32.4543402 43.5589223,36.0240123 37.9009223,40.6954877 C37.836158,41.8670861 38.4044127,43.1915943 40.5259669,43.2917582 C41.8233427,42.8234385 43.8393936,41.9464713 45.4741707,41.2474549 C50.2380051,39.2106107 54.3192025,38.0954877 57.407521,36.0895451 C58.5920815,35.3202008 60.4963618,33.7969631 61.3388204,31.7910205 C62.2136611,29.7094221 61.9008076,26.3470041 61.7603108,24.4843811 C61.637572,22.8556516 61.5456484,21.5279467 61.619814,21.0452418 C61.969228,18.7681107 56.3608459,15.2788893 54.3541962,16.4664713 C51.9845529,17.8677008 53.4537631,23.4864713 53.9441962,25.4700369" id="Fill-190" fill="#0B3557"></path>
                        <path d="M10.3485567,43.5619344 C7.37775414,48.1076721 3.92591975,52.4509508 2.20496433,57.6291066 C2.02686242,58.1661557 1.87487516,58.7847213 2.15221274,59.275418 C2.47028917,59.838041 3.24798344,59.9712377 3.84287516,59.7442705 C4.43828917,59.5178361 4.89216178,59.0244754 5.3235758,58.5476311 C8.49076051,55.0461557 11.6584675,51.5446803 14.8256522,48.0432049 C18.0649134,44.4618115 21.3198433,40.8596393 23.9422764,36.7838197 C24.6766204,35.6425902 25.3712701,34.4358279 25.6282382,33.0948033 C25.8846841,31.7537787 25.6339834,30.2422623 24.6875885,29.2789836 C23.4168497,27.9869754 19.982251,26.850541 18.2216013,27.0828361 C16.5157924,27.3082049 16.0692318,28.6502951 15.7161618,30.1991066 C14.5838306,35.1726721 13.1579707,39.2634098 10.3485567,43.5619344" id="Fill-192" fill="#0B3557"></path>
                        <path d="M3.63547261,58.677418 C3.63547261,58.677418 3.73523057,61.9737705 6.68200764,63.255123 C6.62194395,63.5742623 3.60361274,63.0004508 3.60361274,63.0004508 L1.93018599,61.4345902 L1.37551083,59.7808197 L2.37413503,58.2570492 L3.63547261,58.677418 Z" id="Fill-194" fill="#ECDCD8"></path>
                        <path d="M1.62918854,59.2125492 C1.62918854,59.2125492 2.61632229,63.7460328 6.15746879,63.0139836 C6.43323949,63.0986967 8.21687006,63.8733689 7.41044968,64.6256639 C7.04484459,64.5537377 3.14070446,63.9095984 3.14070446,63.9095984 L1.60777452,61.9095164 L1.33722675,63.4039836 L0.438882803,63.3794754 L0.85723949,61.0639836 C0.85723949,61.0639836 0.300475159,59.9536557 1.62918854,59.2125492" id="Fill-196" fill="#0B3557"></path>
                        <polygon id="Fill-198" fill="#ECDCD8" points="37.6513707 9.19531557 34.5291032 7.72642213 33.1006318 12.0888811 36.0625554 13.6925697"></polygon>
                        <path d="M23.7802611,19.4033525 C22.6536752,20.7459754 21.5182102,22.0981885 20.1639045,23.1967951 C18.309242,24.7013852 15.8811019,25.9848689 15.4220064,28.3658934 C18.4095223,28.3898689 21.3918153,28.9599508 24.1876497,30.0409754 C25.0128726,30.3601148 25.9059936,30.7293361 26.7500191,30.4650738 C27.5647962,30.2093361 28.0996242,29.4357295 28.6260955,28.7473689 C30.1501465,26.7547459 32.1045669,25.1110984 34.3070764,23.9693361 C35.1427452,23.5361803 36.0672038,23.1264672 36.5461465,22.3001148 C36.8193057,21.8296639 36.9133185,21.2766311 37.0026306,20.7363852 L37.8194968,15.7915902 C37.8894841,15.3674918 37.9573822,14.9183525 37.8022611,14.5187623 C37.4340446,13.5677377 36.1131656,13.4824918 35.4555987,12.7136803 C35.1829618,12.3950738 35.0445541,11.9795 34.8194459,11.6241311 C31.9238535,7.05654918 25.2029873,17.7074918 23.7802611,19.4033525" id="Fill-200" fill="#007CFF"></path>
                        <path d="M33.0144535,15.4066516 C33.8522115,15.7146025 34.0961223,16.4812828 34.1969248,17.3124303 C34.2977274,18.1441107 34.3306318,19.0711598 34.250721,19.9071025 C34.1708102,20.7425123 34.0099439,22.2620205 34.1211924,23.0926352 C34.2460204,24.0372664 34.9197783,23.963209 35.195549,24.1539467 C35.7648484,24.4011598 37.9339312,24.3255041 39.0229121,24.2668975 C40.7955745,24.1709959 41.5346191,24.200832 42.4559439,24.1448893 C43.6655745,24.0724303 44.5451159,23.5780041 44.9942879,22.5971434 C45.3546701,21.81075 46.4238038,22.028127 45.7740713,22.5752992 C46.6092178,22.8805861 47.8125809,23.1267336 48.5134981,22.8550123 C49.9941987,22.9205451 49.493842,24.2450533 48.5103643,24.9669795 C47.452721,25.4821844 45.3149758,25.5141516 44.4124535,25.8018566 C43.5726064,26.0698484 42.6977656,26.4241516 41.4463516,26.6873484 C40.0988357,26.9713238 39.4161987,27.1178402 38.0551032,27.3314877 C36.1508229,27.6309139 33.8485554,27.9005041 32.8290395,27.4497664 C32.4519439,27.2835369 32.140135,27.1045205 31.747893,26.603168 C31.5050268,26.2925533 31.3828102,25.7544385 31.3154344,25.3740287 L30.1298293,18.7264467 C29.8759949,17.3028402 30.931549,14.6415697 33.0144535,15.4066516" id="Fill-202" fill="#ECDCD8"></path>
                        <path d="M34.9452662,5.4577623 C34.9452662,5.4577623 34.1827185,10.3631311 37.6235847,11.4500164 C41.0654955,12.5369016 42.4250242,5.2217377 42.0625529,4.15136885 C41.7006038,3.081 34.5535465,1.65313115 34.9452662,5.4577623" id="Fill-204" fill="#ECDCD8"></path>
                        <path d="M37.5835248,0.366131148 C35.8657032,0.531295082 34.107665,0.431131148 32.0440854,4.9060082 C30.5957669,8.04731967 26.4952446,7.85658197 24.2358051,7.33231967 C19.649028,6.26834426 16.7079962,9.37715574 16.5189261,12.5717459 C16.3298561,15.7668689 17.3655631,16.6486311 18.2842764,17.173959 C19.2029898,17.6998197 22.2756395,16.3257623 25.2762127,17.4787131 C28.3436395,18.6572377 32.3992446,17.8687131 33.7415376,15.6320738 C36.3153975,11.3420738 35.3475885,9.81510656 36.0662637,7.84059836 C36.644442,6.25182787 37.4200471,4.91027049 39.5698051,5.96092623 C41.7190408,7.01158197 43.3031554,4.40731967 42.7474357,2.92137705 C41.8605822,0.55207377 38.8020344,0.24945082 37.5835248,0.366131148" id="Fill-206" fill="#072F47"></path>
                    </g>
                </g>
            </g>
        </g>
    </g>
</svg>