<?xml version="1.0" encoding="UTF-8"?>
<svg width="638px" height="381px" viewBox="0 0 638 381" version="1.1" xmlns="http://www.w3.org/2000/svg" xmlns:xlink="http://www.w3.org/1999/xlink">
    <title>编组</title>
    <defs>
        <rect id="path-1" x="0" y="0" width="638" height="381"></rect>
        <path d="M0.336,5.61257143 C4.11115385,8.9 13.6629231,11.276 19.6446923,2.30628571 L19.6446923,2.30628571 C19.6446923,2.30628571 16.3476923,0.109428571 11.7939231,0.109428571 L11.7939231,0.109428571 C8.39192308,0.109428571 4.29046154,1.33514286 0.336,5.61257143 L0.336,5.61257143 Z" id="path-3"></path>
        <path d="M0.530333333,65.7577273 C8.30537037,66.1506818 60.9485185,84.5145455 84.4758889,0.310909091 L84.4758889,0.310909091 C84.4758889,0.310909091 82.653963,0.105681818 79.5308889,0.105681818 L79.5308889,0.105681818 C64.0142593,0.105681818 16.3798148,5.17909091 0.530333333,65.7577273 L0.530333333,65.7577273 Z" id="path-5"></path>
        <polygon id="path-7" points="31.3167937 8.16579775 37.0240952 41.4384719 0.465301587 122.008315 86.1213175 141.76227 99.7258571 83.3906966 47.9930159 0.895078652"></polygon>
        <linearGradient x1="-0.000786239199%" y1="49.9994398%" x2="100.001735%" y2="49.9994398%" id="linearGradient-9">
            <stop stop-color="#9CA8B1" offset="0%"></stop>
            <stop stop-color="#C8D1D6" offset="100%"></stop>
        </linearGradient>
        <polygon id="path-10" points="0.8128125 106.381962 0.8128125 167.155 97.390875 167.155 152.2605 71.8948019 87.5255625 0.420556604"></polygon>
        <linearGradient x1="0.000973733505%" y1="50.0001569%" x2="99.9996099%" y2="50.0001569%" id="linearGradient-12">
            <stop stop-color="#9CA8B1" offset="0%"></stop>
            <stop stop-color="#C8D1D6" offset="100%"></stop>
        </linearGradient>
        <path d="M3.78081481,72.9301739 C7.06314815,70.007 55.118037,47.7975435 38.1282593,0.471326087 L38.1282593,0.471326087 C38.1282593,0.471326087 -12.2725185,13.2558478 3.78081481,72.9301739 L3.78081481,72.9301739 Z" id="path-13"></path>
        <path d="M3.78081481,72.9301739 C7.06314815,70.007 55.118037,47.7975435 38.1282593,0.471326087 L38.1282593,0.471326087 C38.1282593,0.471326087 -12.2725185,13.2558478 3.78081481,72.9301739 L3.78081481,72.9301739 Z" id="path-15"></path>
        <polygon id="path-17" points="7.84928571 2.8384 0.356785714 7.5296 12.9278571 6.1264 44.1851786 2.7616 17.6303571 0.3648"></polygon>
        <polygon id="path-19" points="0.137857143 4.8416 0.965535714 6.7184 42.8428571 0.1984"></polygon>
    </defs>
    <g id="缺省页" stroke="none" stroke-width="1" fill="none" fill-rule="evenodd">
        <g id="数据加载失败" transform="translate(-641.000000, -225.000000)">
            <g id="编组" transform="translate(641.000000, 225.000000)">
                <mask id="mask-2" fill="white">
                    <use xlink:href="#path-1"></use>
                </mask>
                <use id="蒙版" fill="#FFFFFF" xlink:href="#path-1"></use>
                <g mask="url(#mask-2)">
                    <g transform="translate(3.000000, 7.000000)">
                        <g transform="translate(21.000000, 84.000000)">
                            <path d="M285.193378,0.406193296 C285.193378,0.406193296 281.941356,7.6296905 281.551624,10.5567966 C281.324813,12.2488302 283.813345,11.6912101 284.164742,15.0465173 C284.549682,18.678238 287.75698,4.14815978 288.31123,3.10641676 C289.413339,1.03251732 285.193378,0.406193296 285.193378,0.406193296" id="Fill-1" fill="#E2D3D0"></path>
                            <path d="M6.89585178,183.900278 C6.89585178,183.900278 55.2273504,297.657977 168.001912,227.508088 C280.776474,157.356602 313.943583,319.461083 478.841539,276.802345 C643.737898,234.143608 613.412315,51.1834961 380.282594,23.6907475 C380.282594,23.6907475 275.08863,10.4197084 219.176534,47.3904011 C163.262841,84.3626916 106.40357,57.8190156 32.4839614,91.9472838 C-17.7434852,119.438435 6.89585178,183.900278 6.89585178,183.900278" id="Fill-3" fill="#F4F4F4"></path>
                        </g>
                        <g transform="translate(84.000000, 281.000000)">
                            <mask id="mask-4" fill="white">
                                <use xlink:href="#path-3"></use>
                            </mask>
                            <g id="Clip-6"></g>
                            <polygon id="Fill-5" fill="#9DA8B2" mask="url(#mask-4)" points="-4.48915385 13.2575714 24.4730769 13.2575714 24.4730769 -4.586 -4.48915385 -4.586"></polygon>
                        </g>
                        <g transform="translate(0.000000, 61.000000)">
                            <path d="M156.623898,213.923182 C156.623898,213.923182 124.828344,219.169476 111.114179,201.83341 C106.410402,198.642234 82.6650215,189.935109 77.1126826,144.944307 C76.5432529,140.018726 70.2587901,117.892704 44.2867322,101.573028 C41.2705091,99.0934838 12.5916661,75.6159985 21.6355504,45.3811971 C21.6355504,45.3811971 30.2360132,13.6242044 19.3067901,0.384013235 C27.2899719,2.46146912 41.9165008,2.05459412 55.3004926,47.6788441 C57.5861868,54.1728882 55.9576496,60.9014838 86.5202364,75.5346235 C94.3678397,80.3213882 118.886815,88.6695059 122.716509,100.06041 C124.198302,103.254778 159.673617,185.973263 159.673617,185.973263 L156.623898,213.923182 Z" id="Fill-7" fill="#9DA8B2"></path>
                            <path d="M136.564339,160.919018 C121.904314,157.356069 100.616893,138.440371 73.2906446,104.701657 C52.9905537,79.6349662 36.7530331,55.2926721 36.5903388,55.0501426 L37.831281,54.4230765 C38.4740826,55.3915985 102.671306,151.382187 136.948744,159.715944 L136.564339,160.919018 Z" id="Fill-9" fill="#FFFFFF"></path>
                            <path d="M47.9960008,196.233055 C47.9960008,196.233055 8.81859587,208.278151 0.332976033,172.540165 C13.3740339,172.409327 27.0371579,164.117055 47.9960008,196.233055" id="Fill-11" fill="#9DA8B2"></path>
                            <path d="M185.985737,179.304024 C185.985737,179.304024 75.1287702,150.012215 106.579795,25.7765235 C112.253357,26.2216926 212.967456,59.1498471 185.985737,179.304024" id="Fill-13" fill="#B8C3CB"></path>
                            <polygon id="Fill-15" fill="#FFFFFF" points="185.384407 171.904962 105.310142 26.0059691 106.145944 25.5464397 186.218613 171.445432"></polygon>
                            <polygon id="Fill-17" fill="#FFFFFF" points="130.031528 65.8904096 129.085669 65.7643581 132.899412 37.1570566 133.845272 37.2831081"></polygon>
                            <polygon id="Fill-19" fill="#FFFFFF" points="151.927458 108.913532 151.040615 108.564098 167.246235 67.5590757 168.133078 67.9101051"></polygon>
                            <polygon id="Fill-21" fill="#FFFFFF" points="170.002626 142.363284 169.189155 141.86546 187.302444 112.303997 188.11432 112.801821"></polygon>
                            <polygon id="Fill-23" fill="#FFFFFF" points="159.972846 126.371501 110.403747 116.836265 110.583987 115.899655 160.153086 125.43489"></polygon>
                            <polygon id="Fill-25" fill="#FFFFFF" points="137.998919 84.4016265 100.820101 72.9580676 101.102423 72.0469868 138.279646 83.48895"></polygon>
                            <path d="M30.4784595,131.353885 C30.4784595,131.353885 28.4192612,214.206399 126.743988,215.669554 C123.678319,209.360598 110.287947,125.98473 30.4784595,131.353885" id="Fill-27" fill="#B8C3CB"></path>
                            <polygon id="Fill-29" fill="#E8E8E8" points="127.353932 215.789223 30.5939405 131.602796 31.2191967 130.883186 127.979188 215.069612"></polygon>
                            <polygon id="Fill-31" fill="#E8E8E8" points="56.785795 153.10239 55.8526959 153.303435 51.2525967 131.837986 52.1856959 131.636942"></polygon>
                            <polygon id="Fill-33" fill="#E8E8E8" points="65.7127628 163.069232 37.9989198 166.341784 37.888862 165.3956 65.602705 162.123049"></polygon>
                            <polygon id="Fill-35" fill="#E8E8E8" points="81.5213769 176.380906 80.5755174 176.27081 84.2058314 144.780281 85.1500959 144.890376"></polygon>
                            <polygon id="Fill-37" fill="#E8E8E8" points="106.936127 198.32886 105.985483 198.242699 108.288722 173.010066 109.237772 173.096228"></polygon>
                            <polygon id="Fill-39" fill="#E8E8E8" points="92.065238 184.787422 55.125676 190.461334 54.9805273 189.518341 91.9200893 183.844429"></polygon>
                        </g>
                        <g transform="translate(392.000000, 166.000000)">
                            <mask id="mask-6" fill="white">
                                <use xlink:href="#path-5"></use>
                            </mask>
                            <g id="Clip-42"></g>
                            <polygon id="Fill-41" fill="#9DA8B2" mask="url(#mask-6)" points="-15.7426185 14.3664318 87.4064185 -8.46311364 101.612344 55.5884773 -1.53669259 78.4180227"></polygon>
                        </g>
                        <g transform="translate(331.000000, 12.000000)">
                            <polygon id="Fill-43" fill="#E8E8E8" points="68.1862292 222.03508 67.5400494 221.333239 139.669667 154.431347 140.317443 155.131589"></polygon>
                            <polygon id="Fill-45" fill="#E8E8E8" points="120.079092 173.075691 119.134553 172.941398 121.420912 156.776678 122.365452 156.910971"></polygon>
                            <polygon id="Fill-47" fill="#E8E8E8" points="133.611213 184.062936 110.54818 181.353096 110.65827 180.405051 133.721303 183.113293"></polygon>
                            <polygon id="Fill-49" fill="#E8E8E8" points="117.959942 206.124397 89.6237618 201.649563 89.7721438 200.706315 118.108324 205.181149"></polygon>
                            <polygon id="Fill-51" fill="#E8E8E8" points="98.9729461 192.375193 98.0188337 192.375193 98.0347888 165.94825 98.9889011 165.94825"></polygon>
                            <polygon id="Fill-53" fill="#DCE2E5" points="65.4330247 0.231495541 22.2889573 64.8168331 36.8431596 150.236769 0.457653933 230.967642 85.7055191 250.76147 139.244306 19.5025401"></polygon>
                        </g>
                        <g transform="translate(330.000000, 120.000000)">
                            <mask id="mask-8" fill="white">
                                <use xlink:href="#path-7"></use>
                            </mask>
                            <g id="Clip-56"></g>
                            <polygon id="Fill-55" fill="url(#linearGradient-9)" mask="url(#mask-8)" points="31.3167937 8.16579775 37.0240952 41.4384719 0.465301587 122.008315 86.1213175 141.76227 99.7258571 83.3906966 47.9930159 0.895078652"></polygon>
                        </g>
                        <g transform="translate(181.000000, 0.000000)">
                            <path d="M253.07314,76.6114562 C253.07314,90.7809987 241.568058,102.266541 227.37441,102.266541 C213.180762,102.266541 201.675681,90.7809987 201.675681,76.6114562 C201.675681,62.4419137 213.180762,50.9563712 227.37441,50.9563712 C241.568058,50.9563712 253.07314,62.4419137 253.07314,76.6114562" id="Fill-57" fill="#9DA8B2"></path>
                            <polygon id="Fill-59" fill="#DCE2E5" points="0.815675472 0.0391529412 146.020606 0.0391529412 114.794581 73.2965647 152.616619 146.869741 97.6200277 242.154133 0.815675472 242.154133"></polygon>
                        </g>
                        <g transform="translate(181.000000, 75.000000)">
                            <mask id="mask-11" fill="white">
                                <use xlink:href="#path-10"></use>
                            </mask>
                            <g id="Clip-62"></g>
                            <polygon id="Fill-61" fill="url(#linearGradient-12)" mask="url(#mask-11)" points="0.8128125 106.381962 0.8128125 167.155 97.390875 167.155 152.2605 71.8948019 87.5255625 0.420556604"></polygon>
                        </g>
                        <g transform="translate(144.000000, 13.000000)">
                            <polygon id="Fill-63" fill="#ECDCD8" points="183.921676 30.9475383 182.150621 42.9913168 176.007873 42.0863946 177.778928 30.044215"></polygon>
                            <path d="M170.294462,9.91801078 C170.294462,9.91801078 165.919572,27.416903 170.308848,33.0926515 C174.698124,38.7684 185.036738,30.911885 185.036738,30.911885 L187.292116,17.5235138 L178.451226,12.3306036 L175.486147,8.78765749 L170.294462,9.91801078 Z" id="Fill-65" fill="#ECDCD8"></path>
                            <path d="M183.397233,33.8586377 C183.397233,33.8586377 200.83765,29.4523383 194.084304,10.5241168 C193.456123,9.11717066 190.212918,-2.41179341 176.653477,1.0016497 C175.246863,1.62997904 171.874186,2.81788922 168.567044,0.601949102 C167.422572,1.11196707 162.007107,4.63572754 167.155635,8.90612874 C167.962839,9.65276946 171.640816,12.0461766 175.238871,10.3626377 C175.69602,11.7408054 175.33158,19.2615719 178.116036,22.844488 C178.116036,22.844488 178.971194,23.6103144 179.155013,22.4208054 C178.897666,22.0211048 179.385186,17.8866018 183.186241,18.960997 C183.539493,19.3958713 186.45502,22.2097635 183.205422,24.0547814 C183.256572,24.7038952 182.498918,33.2303084 183.397233,33.8586377" id="Fill-67" fill="#072F47"></path>
                            <polygon id="Fill-69" fill="#ECDCD8" points="186.509846 191.000928 187.801374 199.493766 182.520177 200.243605 181.32935 191.096856"></polygon>
                            <path d="M169.64678,208.870423 L188.863048,206.146063 C188.863048,206.146063 191.153591,201.701393 187.750544,198.295944 C186.93215,198.412656 184.427418,200.906788 182.328686,199.338363 C181.460741,199.461471 172.568702,200.061022 172.568702,200.061022 C172.568702,200.061022 167.74945,201.365644 169.64678,208.870423" id="Fill-71" fill="#0B3557"></path>
                            <line x1="177.682543" y1="203.301954" x2="177.043173" y2="199.751014" id="Stroke-73" stroke="#FFFFFF"></line>
                            <line x1="180.651458" y1="202.749248" x2="179.991309" y2="199.692338" id="Stroke-75" stroke="#FFFFFF"></line>
                            <path d="M176.05135,103.737494 C176.05135,103.737494 176.97524,194.934781 177.437185,196.089117 C177.897531,197.243452 189.43976,194.934781 189.43976,194.934781 C189.43976,194.934781 193.825839,109.278943 191.285941,103.737494 L176.05135,103.737494 Z" id="Fill-77" fill="#0B3557"></path>
                            <path d="M192.887883,62.6994341 C192.887883,62.6994341 188.458646,78.4684222 184.996457,78.6362964 C181.53267,78.8025719 159.549528,65.8730569 157.471576,65.6428293 C155.393623,65.4126018 155.393623,57.1004281 148.699418,58.3698772 C144.775284,59.4090988 154.543261,63.0367814 154.680725,68.4375359 C154.816591,73.8382904 151.354402,72.3386138 151.469489,75.3395659 C151.584576,78.3421168 158.638426,72.8614222 158.686379,72.0764102 C158.686379,72.0764102 179.32045,89.1628114 186.208064,89.1932141 C193.097276,89.2219671 201.442654,64.8594162 201.442654,64.8594162 L192.887883,62.6994341 Z" id="Fill-79" fill="#ECDCD8"></path>
                            <path d="M173.744183,36.2061593 C172.214491,35.5138778 159.230483,42.7868299 152.74727,53.522788 C150.845144,57.8507461 154.796451,56.7012072 159.815506,62.4153269 C159.815506,62.4153269 162.067687,56.4581892 161.94301,58.2392551 C161.308435,67.2868778 156.768908,101.432501 158.795711,103.737974 C161.22212,106.495908 191.227758,109.799034 193.305711,108.240201 C195.383664,106.681369 190.70827,63.2179257 190.53564,62.6999138 C190.36301,62.180303 200.751176,67.8944228 202.48227,65.9886503 C204.213365,64.0844766 202.135412,42.4398898 187.073451,35.5138778 C187.073451,35.5138778 181.822624,40.2815066 173.744183,36.2061593" id="Fill-81" fill="#007CFF"></path>
                            <path d="M192.141738,65.1655868 C190.733525,69.6086587 187.59262,78.5107904 184.996777,78.635497 C181.53299,78.8033713 159.54825,65.8738563 157.471895,65.6436287 C155.393943,65.4118024 155.393943,57.1012275 148.699738,58.3706766 C144.775604,59.4082994 154.54358,63.035982 154.679446,68.4383353 C154.815313,73.8390898 151.353124,72.3378144 151.469809,75.3403653 C151.584895,78.3413174 158.638746,72.8622216 158.6851,72.0772096 C158.6851,72.0772096 179.320769,89.1636108 186.208383,89.1924187 C190.835824,89.2131737 196.11862,78.2278024 199.090092,71.014006 C200.543061,67.4854491 192.611675,63.6850958 192.141738,65.1655868" id="Fill-83" fill="#ECDCD8"></path>
                            <path d="M38.2683772,193.929295 C38.2683772,193.929295 -12.316985,206.810846 3.79514094,266.929013 C7.08789685,263.985618 55.3203772,241.610378 38.2683772,193.929295" id="Fill-85" fill="#DCE2E5"></path>
                        </g>
                        <g transform="translate(144.000000, 207.000000)">
                            <g>
                                <mask id="mask-14" fill="white">
                                    <use xlink:href="#path-13"></use>
                                </mask>
                                <g id="Clip-88"></g>
                                <polygon id="Fill-87" fill="#DCE2E5" mask="url(#mask-14)" points="-824.963122 -609.488585 -313.857159 1469.52126 859.738656 1183.04228 348.632693 -895.967563"></polygon>
                            </g>
                            <g>
                                <mask id="mask-16" fill="white">
                                    <use xlink:href="#path-15"></use>
                                </mask>
                                <g id="Clip-90"></g>
                                <polygon id="Fill-89" fill="#DCE2E5" mask="url(#mask-16)" points="42.5860852 -6.35607826 60.1077889 64.9189 -0.345433333 79.6744217 -17.8687296 8.40103043"></polygon>
                            </g>
                        </g>
                        <g transform="translate(456.000000, 46.000000)">
                            <path d="M0.64976,123.824199 C0.64976,123.824199 34.23536,119.103045 12.83856,61.4235577 C12.68336,52.0357372 8.00656,15.8594551 54.75696,6.94278846" id="Stroke-91" stroke="#9DA8B2" stroke-dasharray="12,12"></path>
                            <polygon id="Fill-93" fill="#E5E9EE" points="59.756 14.1972756 46.932 12.8847756 50.6424 6.61233974 95.188 0.163621795"></polygon>
                        </g>
                        <g transform="translate(507.000000, 44.000000)">
                            <mask id="mask-18" fill="white">
                                <use xlink:href="#path-17"></use>
                            </mask>
                            <g id="Clip-96"></g>
                            <polygon id="Fill-95" fill="#E5E9EE" mask="url(#mask-18)" points="-5.28910714 13.1488 49.8294643 13.1488 49.8294643 -5.256 -5.28910714 -5.256"></polygon>
                        </g>
                        <g transform="translate(508.000000, 46.000000)">
                            <mask id="mask-20" fill="white">
                                <use xlink:href="#path-19"></use>
                            </mask>
                            <g id="Clip-98"></g>
                            <polygon id="Fill-97" fill="#B8C3CB" mask="url(#mask-20)" points="-5.50803571 12.3376 48.4871429 12.3376 48.4871429 -5.4208 -5.50803571 -5.4208"></polygon>
                        </g>
                        <g transform="translate(431.000000, 46.000000)">
                            <polygon id="Fill-99" fill="#9DA8B2" points="119.329769 0.195998077 84.0908866 18.8310942 80.1555638 13.8574788"></polygon>
                            <path d="M201.737539,183.030313 C201.737539,183.030313 184.476145,246.079987 111.56398,222.737833 C114.735255,216.01164 132.26998,162.70489 201.737539,183.030313" id="Fill-101" fill="#B8C3CB"></path>
                            <line x1="201.737539" y1="183.030313" x2="114.119861" y2="216.907083" id="Stroke-103" stroke="#DDDDDD"></line>
                            <line x1="165.298399" y1="197.118925" x2="186.99862" y2="208.555367" id="Stroke-105" stroke="#DDDDDD"></line>
                            <line x1="184.640303" y1="179.652533" x2="176.886343" y2="192.873475" id="Stroke-107" stroke="#DDDDDD"></line>
                            <line x1="158.985898" y1="179.675038" x2="150.188166" y2="202.959731" id="Stroke-109" stroke="#DDDDDD"></line>
                            <line x1="141.999594" y1="208.84459" x2="165.197539" y2="222.410302" id="Stroke-111" stroke="#DDDDDD"></line>
                            <path d="M98.7468472,73.0725519 C98.7468472,73.0725519 106.128375,47.5596288 71.4952961,37.3554173 C71.4952961,46.4263596 74.9015402,74.7724558 98.7468472,73.0725519" id="Fill-113" fill="#9DA8B2"></path>
                            <path d="M158.580058,135.349846 C158.580058,135.349846 105.803255,133.180673 94.6926016,193.020481 C100.9872,192.888 144.517113,204.675596 158.580058,135.349846" id="Fill-115" fill="#9DA8B2"></path>
                            <line x1="99.5366291" y1="193.427819" x2="154.13244" y2="135.503396" id="Stroke-117" stroke="#E8E8E8"></line>
                            <line x1="139.670528" y1="138.300496" x2="138.925662" y2="151.637958" id="Stroke-119" stroke="#E8E8E8"></line>
                            <line x1="132.230978" y1="158.741162" x2="151.360931" y2="159.398777" id="Stroke-121" stroke="#E8E8E8"></line>
                            <line x1="116.434061" y1="175.500777" x2="139.724715" y2="177.658777" id="Stroke-123" stroke="#E8E8E8"></line>
                            <line x1="121.141903" y1="147.466729" x2="122.669998" y2="168.883921" id="Stroke-125" stroke="#E8E8E8"></line>
                            <path d="M107.528755,222.781408 C107.528755,222.781408 20.4977,189.279735 57.0536843,92.2431577 C61.6044008,93.1114654 140.107857,128.624292 107.528755,222.781408" id="Fill-127" fill="#B8C3CB"></path>
                            <line x1="57.0535244" y1="92.2436365" x2="108.222312" y2="216.92081" id="Stroke-129" stroke="#FFFFFF"></line>
                            <line x1="78.0250228" y1="104.4681" x2="72.7150543" y2="126.902042" id="Stroke-131" stroke="#FFFFFF"></line>
                            <line x1="102.574276" y1="131.816919" x2="86.1488591" y2="163.13665" id="Stroke-133" stroke="#FFFFFF"></line>
                            <line x1="114.904369" y1="169.21209" x2="97.6477701" y2="191.15761" id="Stroke-135" stroke="#FFFFFF"></line>
                            <line x1="52.5314197" y1="165.42745" x2="91.4259" y2="177.352315" id="Stroke-137" stroke="#FFFFFF"></line>
                            <line x1="48.3948551" y1="129.288612" x2="77.5597213" y2="142.207881" id="Stroke-139" stroke="#FFFFFF"></line>
                            <line x1="75.090474" y1="200.928625" x2="104.058734" y2="206.776933" id="Stroke-141" stroke="#FFFFFF"></line>
                            <path d="M0.556066929,246.64726 L181.055035,246.64726 C181.055035,246.64726 192.335122,236.669702 185.890272,230.562817 C176.211807,221.392913 167.35813,228.669779 155.26924,227.724856 C143.181949,226.778337 143.987555,218.735317 149.629996,214.476779 C155.26924,210.219837 154.463634,200.757837 141.572335,200.757837 C128.677839,200.757837 124.649807,222.634721 111.755311,220.505452 C98.8640118,218.376183 107.775232,202.344413 106.921673,196.973356 C105.572602,188.486606 102.088035,177.24649 85.1655079,177.647125 C68.2445787,178.049356 67.437374,193.188875 63.4077441,207.854337 C59.3797126,222.519798 48.0980276,224.412837 41.6515787,219.681837 C35.2067283,214.950837 26.3418622,206.907817 13.4489646,210.219837 C0.556066929,213.53026 -0.24953937,235.766279 0.556066929,246.64726" id="Fill-143" fill="#DCDEE0"></path>
                        </g>
                    </g>
                </g>
            </g>
        </g>
    </g>
</svg>