<?xml version="1.0" encoding="UTF-8"?>
<svg width="638px" height="381px" viewBox="0 0 638 381" version="1.1" xmlns="http://www.w3.org/2000/svg" xmlns:xlink="http://www.w3.org/1999/xlink">
    <title>编组</title>
    <defs>
        <rect id="path-1" x="0" y="0" width="638" height="381"></rect>
        <path d="M35.1191579,57.800871 C7.41594737,95.8591613 -6.79765263,132.689839 3.37262105,140.064677 L3.37262105,140.064677 C13.5417474,147.439516 44.2464737,122.566613 71.9508316,84.5071774 L71.9508316,84.5071774 C99.6540421,46.4488871 113.868789,9.61706452 103.697368,2.24337097 L103.697368,2.24337097 C102.492632,1.3696129 100.998758,0.948193548 99.2570526,0.948193548 L99.2570526,0.948193548 C86.2940842,0.948193548 59.5431895,24.2510806 35.1191579,57.800871" id="path-3"></path>
        <linearGradient x1="33.4918266%" y1="82.9210275%" x2="65.3322083%" y2="19.4240202%" id="linearGradient-5">
            <stop stop-color="#9CA8B1" offset="0%"></stop>
            <stop stop-color="#B8C3CA" offset="100%"></stop>
        </linearGradient>
        <polygon id="path-6" points="0.421695652 4.87657143 49.2611957 38.7988571 52.7061957 33.9177143 3.86554348 -0.00457142857"></polygon>
        <linearGradient x1="96.762015%" y1="73.2636694%" x2="13.9054437%" y2="32.043862%" id="linearGradient-8">
            <stop stop-color="#9CA8B1" offset="0%"></stop>
            <stop stop-color="#B8C3CA" offset="100%"></stop>
        </linearGradient>
        <path d="M0.716625,9.111375 C0.716625,13.717125 4.4505,17.451 9.05625,17.451 L9.05625,17.451 C13.660875,17.451 17.393625,13.717125 17.393625,9.111375 L17.393625,9.111375 C17.393625,4.50675 13.660875,0.774 9.05625,0.774 L9.05625,0.774 C4.4505,0.774 0.716625,4.50675 0.716625,9.111375" id="path-9"></path>
        <path d="M22.19385,3.19088889 L14.02195,7.88961111 C9.28855,10.6113194 6.19505,15.4921806 5.7477,20.9436667 L5.7477,20.9436667 L0.8947,80.0258333 L11.385,82.8432222 L44.9167,63.8765694 L40.17525,7.18641667 C39.98205,4.87970833 38.48475,2.88770833 36.3239,2.06693056 L36.3239,2.06693056 C34.42295,1.34413889 32.43,0.986777778 30.44395,0.986777778 L30.44395,0.986777778 C27.58275,0.986777778 24.73535,1.72916667 22.19385,3.19088889" id="path-11"></path>
        <linearGradient x1="38.549353%" y1="21.6196803%" x2="53.8107286%" y2="67.4138779%" id="linearGradient-13">
            <stop stop-color="#9CA8B1" offset="0%"></stop>
            <stop stop-color="#C8D1D6" offset="100%"></stop>
        </linearGradient>
        <path d="M1.79990909,2.53618182 C0.235181818,4.69063636 0.711454545,7.70545455 2.86590909,9.27136364 L2.86590909,9.27136364 L7.16536364,12.3937273 L12.8321818,4.59372727 L8.53390909,1.47018182 C7.67827273,0.848545455 6.68672727,0.548363636 5.70345455,0.548363636 L5.70345455,0.548363636 C4.21318182,0.548363636 2.743,1.23854545 1.79990909,2.53618182" id="path-14"></path>
        <linearGradient x1="35.2257699%" y1="71.8979946%" x2="59.1778884%" y2="10.3361573%" id="linearGradient-16">
            <stop stop-color="#9CA8B1" offset="0%"></stop>
            <stop stop-color="#B3BDC4" offset="100%"></stop>
        </linearGradient>
        <path d="M0.55575,1.965 C1.996875,3.112 5.641875,3.94 7.925625,0.811 L7.925625,0.811 C7.925625,0.811 6.66675,0.045 4.928625,0.045 L4.928625,0.045 C3.630375,0.045 2.0655,0.473 0.55575,1.965 L0.55575,1.965 Z" id="path-17"></path>
        <path d="M0.265142857,3.3125 C1.728,4.74625 5.432,5.7825 7.75085714,1.87125 L7.75085714,1.87125 C7.75085714,1.87125 6.47314286,0.915 4.70628571,0.915 L4.70628571,0.915 C3.38742857,0.915 1.79771429,1.4475 0.265142857,3.3125 L0.265142857,3.3125 Z" id="path-19"></path>
        <path d="M0.658666667,3.07864 C0.658666667,3.07864 10.3329778,38.24172 51.792,26.29836 L51.792,26.29836 C50.0286222,24.38668 38.2026667,0.3074 14.8396444,0.30624 L14.8396444,0.30624 C10.5109333,0.30624 5.78817778,1.13216 0.658666667,3.07864 L0.658666667,3.07864 Z" id="path-21"></path>
    </defs>
    <g id="缺省页" stroke="none" stroke-width="1" fill="none" fill-rule="evenodd">
        <g id="无网络" transform="translate(-641.000000, -225.000000)">
            <g id="编组" transform="translate(641.000000, 225.000000)">
                <mask id="mask-2" fill="white">
                    <use xlink:href="#path-1"></use>
                </mask>
                <g id="蒙版"></g>
                <g mask="url(#mask-2)">
                    <g transform="translate(99.000000, 0.000000)">
                        <g id="编组" stroke-width="1" fill="none" fill-rule="evenodd" transform="translate(0.000000, 102.000000)">
                            <path d="M4.97794959,206.830852 C4.97794959,206.830852 39.7136236,288.576704 120.763147,238.166111 C201.813818,187.756667 225.652048,304.244333 344.163615,273.589926 C462.672887,242.935519 440.879147,111.461074 273.329656,91.7048889 C273.329656,91.7048889 197.727133,82.1683704 157.542163,108.73537 C117.357193,135.303519 76.49264,116.229333 23.3680318,140.75263 C-12.7314011,160.508815 4.97794959,206.830852 4.97794959,206.830852" id="Fill-1" fill="#F4F4F4"></path>
                            <path d="M345.85385,195.071863 C344.865469,199.162715 338.284299,200.873456 331.154412,198.891752 C324.023376,196.9089 319.044738,191.985641 320.034266,187.893641 C321.022647,183.801641 327.604965,182.0909 334.733705,184.073752 C341.863592,186.056604 346.842231,190.981011 345.85385,195.071863" id="Fill-3" fill="#E6E6E6"></path>
                            <path d="M240.043263,196.563652 C238.55323,201.835948 247.868806,208.990059 260.84977,212.54243 C273.830735,216.0948 285.559291,214.6998 287.048176,209.427504 C288.537061,204.154059 279.221485,196.999948 266.240521,193.447578 C253.260704,189.895207 241.532148,191.291356 240.043263,196.563652" id="Fill-5" fill="#E6E6E6"></path>
                            <path d="M319.14943,142.5597 C319.14943,142.5597 413.789477,103.82233 394.681929,45.2415148 C393.900178,41.2494037 390.775471,22.0225148 408.15077,0.519996296 C398.766318,5.43062593 368.556992,21.9111444 357.881101,47.102663 C345.204342,77.0165148 320.378879,84.7768481 306.907742,115.910033 C299.548266,132.919848 319.14943,142.5597 319.14943,142.5597" id="Fill-7" fill="#AAB4BC"></path>
                            <path d="M313.902976,132.10363 L313.917899,131.504296 C315.310357,131.558259 316.683299,127.813 318.422436,123.071148 C322.393179,112.236074 329.042078,94.1022222 347.065965,85.258037 C373.188606,72.4412593 384.658875,27.6944815 384.770225,27.2444074 L385.38782,27.3936667 C385.274173,27.846037 373.738472,72.8511481 347.364431,85.7919259 C329.559801,94.5281852 322.96256,112.525407 319.020516,123.277815 C316.986357,128.825667 315.758056,132.174815 313.902976,132.10363" id="Fill-9" fill="#DDDDDD"></path>
                            <path d="M394.009233,124.618852 C394.009233,124.618852 378.193992,159.100037 337.751882,139.532148 C340.271622,137.567667 362.501581,106.040667 394.009233,124.618852" id="Fill-11" fill="#B8C3CB"></path>
                            <polygon id="Fill-13" fill="#E8E8E8" points="337.841766 139.697826 337.663835 139.034196 393.920038 123.938344 394.097969 124.601974"></polygon>
                            <polygon id="Fill-15" fill="#E8E8E8" points="379.867237 128.604304 379.335738 128.170304 385.510535 120.622378 386.042034 121.056378"></polygon>
                            <polygon id="Fill-17" fill="#E8E8E8" points="384.222541 137.598322 373.244741 130.736989 373.608639 130.154878 384.585292 137.017359"></polygon>
                            <polygon id="Fill-19" fill="#E8E8E8" points="364.83191 132.61777 364.185616 132.391585 368.987471 118.66777 369.634912 118.893956"></polygon>
                            <polygon id="Fill-21" fill="#E8E8E8" points="371.858597 143.764567 358.137208 134.158011 358.530953 133.595419 372.252342 143.201974"></polygon>
                        </g>
                        <text id="Z" fill="none" font-family="LucidaGrande, Lucida Grande" font-size="49.1416" font-weight="normal">
                            <tspan x="191" y="48" fill="#B8C3CB">Z</tspan>
                        </text>
                        <text id="Z" fill="none" font-family="LucidaGrande, Lucida Grande" font-size="17.0052" font-weight="normal">
                            <tspan x="209" y="73" fill="#B8C3CB">Z</tspan>
                        </text>
                        <g id="编组" stroke-width="1" fill="none" fill-rule="evenodd" transform="translate(176.000000, 78.000000)">
                            <polygon id="Fill-23" fill="#9DA8B2" points="58.3368178 159.791045 50.2013517 156.169695 50.2013517 135.538695 64.4244025 135.538695 81.6941059 144.430495"></polygon>
                            <polygon id="Fill-25" fill="#B8C3CB" points="58.3368178 159.791045 50.2013517 156.169695 50.2013517 135.538695 58.3368178 135.538695"></polygon>
                            <path d="M0.927838983,138.5065 C38.1992797,165.72585 90.8092373,156.8099 118.433898,118.5908 C146.057415,80.3717 138.237712,27.3222 100.963983,0.10285 L0.927838983,138.5065 Z" id="Fill-27" fill="#B8C3CB"></path>
                        </g>
                        <g id="编组" stroke-width="1" fill="none" fill-rule="evenodd" transform="translate(173.000000, 76.000000)">
                            <mask id="mask-4" fill="white">
                                <use xlink:href="#path-3"></use>
                            </mask>
                            <g id="Clip-30"></g>
                            <path d="M35.1191579,57.800871 C7.41594737,95.8591613 -6.79765263,132.689839 3.37262105,140.064677 L3.37262105,140.064677 C13.5417474,147.439516 44.2464737,122.566613 71.9508316,84.5071774 L71.9508316,84.5071774 C99.6540421,46.4488871 113.868789,9.61706452 103.697368,2.24337097 L103.697368,2.24337097 C102.492632,1.3696129 100.998758,0.948193548 99.2570526,0.948193548 L99.2570526,0.948193548 C86.2940842,0.948193548 59.5431895,24.2510806 35.1191579,57.800871" id="Fill-29" fill="url(#linearGradient-5)" mask="url(#mask-4)"></path>
                        </g>
                        <g id="编组" stroke-width="1" fill="none" fill-rule="evenodd" transform="translate(195.000000, 124.000000)">
                            <mask id="mask-7" fill="white">
                                <use xlink:href="#path-6"></use>
                            </mask>
                            <g id="Clip-32"></g>
                            <polygon id="Fill-31" fill="url(#linearGradient-8)" mask="url(#mask-7)" points="0.421695652 4.87657143 49.2611957 38.7988571 52.7061957 33.9177143 3.86554348 -0.00457142857"></polygon>
                        </g>
                        <g id="编组" stroke-width="1" fill="none" fill-rule="evenodd" transform="translate(185.000000, 114.000000)">
                            <mask id="mask-10" fill="white">
                                <use xlink:href="#path-9"></use>
                            </mask>
                            <g id="Clip-34"></g>
                            <path d="M0.716625,9.111375 C0.716625,13.717125 4.4505,17.451 9.05625,17.451 L9.05625,17.451 C13.660875,17.451 17.393625,13.717125 17.393625,9.111375 L17.393625,9.111375 C17.393625,4.50675 13.660875,0.774 9.05625,0.774 L9.05625,0.774 C4.4505,0.774 0.716625,4.50675 0.716625,9.111375" id="Fill-33" mask="url(#mask-10)"></path>
                        </g>
                        <g id="编组" stroke-width="1" fill="none" fill-rule="evenodd" transform="translate(269.000000, 180.000000)">
                            <mask id="mask-12" fill="white">
                                <use xlink:href="#path-11"></use>
                            </mask>
                            <g id="Clip-36"></g>
                            <path d="M22.19385,3.19088889 L14.02195,7.88961111 C9.28855,10.6113194 6.19505,15.4921806 5.7477,20.9436667 L5.7477,20.9436667 L0.8947,80.0258333 L11.385,82.8432222 L44.9167,63.8765694 L40.17525,7.18641667 C39.98205,4.87970833 38.48475,2.88770833 36.3239,2.06693056 L36.3239,2.06693056 C34.42295,1.34413889 32.43,0.986777778 30.44395,0.986777778 L30.44395,0.986777778 C27.58275,0.986777778 24.73535,1.72916667 22.19385,3.19088889" id="Fill-35" fill="url(#linearGradient-13)" mask="url(#mask-12)"></path>
                        </g>
                        <path d="M313,244.057742 L280,263 L283.829892,206.377004 C284.201111,200.872662 287.236505,195.916336 291.929933,193.150926 L305.296077,185.276067 C306.563653,184.528877 308.163969,185.378532 308.285068,186.862552 L313,244.057742 Z" id="Fill-37" fill="#9DA8B2" fill-rule="evenodd"></path>
                        <g id="编组" stroke-width="1" fill="none" fill-rule="evenodd" transform="translate(291.000000, 202.000000)">
                            <mask id="mask-15" fill="white">
                                <use xlink:href="#path-14"></use>
                            </mask>
                            <g id="Clip-40"></g>
                            <path d="M1.79990909,2.53618182 C0.235181818,4.69063636 0.711454545,7.70545455 2.86590909,9.27136364 L2.86590909,9.27136364 L7.16536364,12.3937273 L12.8321818,4.59372727 L8.53390909,1.47018182 C7.67827273,0.848545455 6.68672727,0.548363636 5.70345455,0.548363636 L5.70345455,0.548363636 C4.21318182,0.548363636 2.743,1.23854545 1.79990909,2.53618182" id="Fill-39" fill="url(#linearGradient-16)" mask="url(#mask-15)"></path>
                        </g>
                        <g id="编组" stroke-width="1" fill="none" fill-rule="evenodd" transform="translate(241.000000, 197.000000)">
                            <path d="M63.039266,15.00888 C61.4995379,17.13638 59.1189165,18.03453 57.7212466,17.01563 C56.3247223,15.99558 56.4392854,13.44603 57.9790136,11.31853 C59.5198874,9.19103 61.9005087,8.29288 63.2981786,9.31178 C64.6947029,10.33068 64.5789942,12.88138 63.039266,15.00888" id="Fill-41" fill="#99A4AD"></path>
                            <path d="M36.2143146,68.294015 C36.2143146,68.294015 6.30761553,73.358615 0.361790291,39.932715 C1.77779029,39.418665 29.6349553,36.341265 36.2143146,68.294015" id="Fill-43" fill="#B8C3CB"></path>
                            <polygon id="Fill-45" fill="#FFFFFF" points="35.087701 66.731855 35.3259922 66.413305 0.279992233 39.879355 0.0405553398 40.197905"></polygon>
                            <polygon id="Fill-47" fill="#FFFFFF" points="10.8079981 47.06168 8.3426 39.80173 7.96683301 39.93053 10.4322311 47.19048"></polygon>
                            <polygon id="Fill-49" fill="#FFFFFF" points="20.4093029 55.11398 19.8089922 43.70943 19.4114583 43.73128 20.0117689 55.13468"></polygon>
                            <polygon id="Fill-51" fill="#FFFFFF" points="28.5361806 61.214385 29.5832874 52.093735 29.1880447 52.048885 28.1409379 61.168385"></polygon>
                            <polygon id="Fill-53" fill="#FFFFFF" points="24.0532117 58.268085 23.9592699 57.881685 11.2313087 61.010835 11.3263961 61.398385"></polygon>
                            <polygon id="Fill-55" fill="#FFFFFF" points="14.2750214 50.813325 14.2246136 50.417725 4.12358447 51.706875 4.1728466 52.102475"></polygon>
                            <polygon id="Fill-57" fill="#FFFFFF" points="32.7326272 64.49821 32.6077534 64.11986 23.4323942 67.17311 23.557268 67.55146"></polygon>
                            <path d="M117.333816,1.194275 C117.333816,1.194275 122.575078,49.900225 65.9201845,53.612425 C66.2799126,48.051025 63.8763786,6.065675 117.333816,1.194275" id="Fill-59" fill="#B8C3CB"></path>
                            <polygon id="Fill-61" fill="#DDDDDD" points="66.1495398 49.09787 65.6901417 48.59647 117.230938 0.94392 117.690336 1.44417"></polygon>
                            <polygon id="Fill-63" fill="#DDDDDD" points="114.710206 23.31717 96.4007301 21.27477 96.4751961 20.59742 114.785817 22.63982"></polygon>
                            <polygon id="Fill-65" fill="#DDDDDD" points="103.552676 14.868465 102.885918 14.750015 104.919414 3.177565 105.587317 3.296015"></polygon>
                            <polygon id="Fill-67" fill="#DDDDDD" points="87.1009553 29.11156 86.7859068 10.73111 87.4629748 10.71846 87.7803146 29.09891"></polygon>
                            <polygon id="Fill-69" fill="#DDDDDD" points="103.16213 38.971315 83.4950816 35.567315 83.6107903 34.896865 103.277839 38.300865"></polygon>
                        </g>
                        <g id="编组" stroke-width="1" fill="none" fill-rule="evenodd" transform="translate(156.000000, 234.000000)">
                            <mask id="mask-18" fill="white">
                                <use xlink:href="#path-17"></use>
                            </mask>
                            <g id="Clip-72"></g>
                            <polygon id="Fill-71" fill="#9DA8B2" mask="url(#mask-18)" points="-1.287 4.632 9.768375 4.632 9.768375 -1.592 -1.287 -1.592"></polygon>
                        </g>
                        <g id="编组" stroke-width="1" fill="none" fill-rule="evenodd" transform="translate(394.000000, 239.000000)">
                            <mask id="mask-20" fill="white">
                                <use xlink:href="#path-19"></use>
                            </mask>
                            <g id="Clip-74"></g>
                            <polygon id="Fill-73" fill="#9DA8B2" mask="url(#mask-20)" points="-1.608 6.64625 9.62285714 6.64625 9.62285714 -1.13375 -1.608 -1.13375"></polygon>
                        </g>
                        <g id="编组" stroke-width="1" fill="none" fill-rule="evenodd" transform="translate(41.000000, 154.000000)">
                            <path d="M72.6031258,128.374898 C72.6031258,128.374898 55.8930458,131.523174 48.6847985,121.117836 C46.2108058,119.202539 33.7316785,113.975257 30.8141367,86.9687738 C30.514224,84.012829 27.2117367,70.7305393 13.5605367,60.9353945 C11.9747913,59.4471186 -3.09668509,45.354291 1.65595491,27.2053393 C1.65595491,27.2053393 6.17532945,8.14281517 0.431024,0.195422069 C4.627504,1.44213931 12.3149222,1.19829103 19.3485076,28.5837117 C20.5504567,32.4829945 19.694384,36.5219462 35.7575258,45.3050634 C39.8816131,48.1785807 50.8313004,54.0870359 54.7818749,60.0275462 C59.9550822,67.80436 74.2072567,111.59745 74.2072567,111.59745 L72.6031258,128.374898 Z" id="Fill-75" fill="#9DA8B2"></path>
                            <path d="M62.0604465,96.5584221 C54.355792,94.4187393 43.1670938,83.0654841 28.8046065,62.8123393 C18.1341484,47.7670152 9.60099927,33.1555807 9.51596655,33.0090428 L10.1675011,32.6335393 C10.5064829,33.2139669 44.2472393,90.8342841 62.2626865,95.8360359 L62.0604465,96.5584221 Z" id="Fill-77" fill="#FFFFFF"></path>
                            <path d="M27.9905905,164.428495 C27.9905905,164.428495 12.5203796,169.164647 9.17077964,155.110743 C14.319856,155.059226 19.7148378,151.798757 27.9905905,164.428495" id="Fill-79" fill="#9DA8B2"></path>
                            <path d="M315.263318,111.903462 C315.263318,111.903462 299.794256,116.639614 296.443507,102.58571 C301.592583,102.534193 306.988714,99.2737241 315.263318,111.903462" id="Fill-81" fill="#9DA8B2"></path>
                        </g>
                        <g id="编组" stroke-width="1" fill="none" fill-rule="evenodd" transform="translate(50.000000, 265.000000)">
                            <mask id="mask-22" fill="white">
                                <use xlink:href="#path-21"></use>
                            </mask>
                            <g id="Clip-84"></g>
                            <polygon id="Fill-83" fill="#B8C3CB" mask="url(#mask-22)" points="-3.12080889 2.938976 28.2687022 -16.332104 54.6662133 26.993896 23.2767022 46.266136"></polygon>
                        </g>
                        <g id="编组" stroke-width="1" fill="none" fill-rule="evenodd" transform="translate(42.000000, 117.000000)">
                            <polygon id="Fill-85" fill="#E8E8E8" points="60.8264713 174.262404 9.90481529 151.395885 10.0733503 151.016996 60.9961529 173.883515"></polygon>
                            <polygon id="Fill-87" fill="#E8E8E8" points="23.5261146 157.048563 23.1638217 157.250637 18.537707 148.881785 18.902293 148.679711"></polygon>
                            <polygon id="Fill-89" fill="#E8E8E8" points="28.5016815 160.075311 17.3726369 164.943459 17.2063949 164.563422 28.3354395 159.694126"></polygon>
                            <polygon id="Fill-91" fill="#E8E8E8" points="36.7656306 163.626304 36.3586242 163.699785 33.8948025 150.1126 34.3029554 150.039119"></polygon>
                            <polygon id="Fill-93" fill="#E8E8E8" points="50.1205987 169.564411 49.7147389 169.648226 47.4870955 158.837263 47.8952484 158.7523"></polygon>
                            <polygon id="Fill-95" fill="#E8E8E8" points="42.2182548 165.798715 27.5499745 172.834567 27.3699745 172.459122 42.0382548 165.42327"></polygon>
                            <path d="M62.9447389,96.4742185 C62.9447389,96.4742185 70.8441019,95.7302185 70.1160764,87.255737 C68.0397707,87.580663 61.9025732,88.4670333 62.9447389,96.4742185" id="Fill-97" fill="#9DA8B2"></path>
                            <path d="M352.445274,95.2969074 C352.445274,95.2969074 360.344637,94.5529074 359.616611,86.0784259 C357.540306,86.4033519 351.403108,87.2908704 352.445274,95.2969074" id="Fill-99" fill="#9DA8B2"></path>
                            <path d="M9.28329936,125.531667 C9.28329936,125.531667 16.2906879,114.728741 1.53527389,105.223222 C0.269541401,109.425444 -2.09338854,123.029852 9.28329936,125.531667" id="Fill-101" fill="#9DA8B2"></path>
                            <path d="M68.6940764,171.454722 C68.6940764,171.454722 43.8024841,133.705907 85.6335669,105.423574 C87.1847771,107.045907 108.140446,143.198796 68.6940764,171.454722" id="Fill-103" fill="#B8C3CB"></path>
                            <polygon id="Fill-105" fill="#FFFFFF" points="70.458535 169.120307 85.2001911 105.158122 85.5670701 105.243085 70.8242675 169.20527"></polygon>
                            <polygon id="Fill-107" fill="#FFFFFF" points="82.0030701 123.387844 81.7577197 123.101956 90.3828153 115.688363 90.6270191 115.974252"></polygon>
                            <polygon id="Fill-109" fill="#FFFFFF" points="77.1505223 141.798056 76.9831338 141.462796 92.5009682 133.658833 92.6683567 133.994093"></polygon>
                            <polygon id="Fill-111" fill="#FFFFFF" points="73.6875287 156.388148 73.5786115 156.02763 86.6567006 152.09063 86.7644713 152.451148"></polygon>
                            <polygon id="Fill-113" fill="#FFFFFF" points="74.935949 149.047922 62.8713631 133.216107 63.1694522 132.988774 75.2340382 148.819441"></polygon>
                            <polygon id="Fill-115" fill="#FFFFFF" points="79.4871975 130.92647 71.5649045 117.790507 71.8859236 117.59647 79.8093631 130.732433"></polygon>
                            <path d="M143.777236,180.754837 C143.777236,183.077541 133.158382,184.961652 120.059656,184.961652 C106.962076,184.961652 96.3420764,183.077541 96.3420764,180.754837 C96.3420764,178.432133 106.962076,176.54917 120.059656,176.54917 C133.158382,176.54917 143.777236,178.432133 143.777236,180.754837" id="Fill-117" fill="#E6E6E6"></path>
                            <path d="M103.251325,42.941237 C103.251325,42.941237 93.3604968,67.3876074 97.0522166,73.9814222 C100.74279,80.575237 103.251325,75.0893852 103.251325,75.0893852 L103.251325,42.941237 Z" id="Fill-119" fill="#077CE5"></path>
                            <path d="M126.317809,163.649841 C126.317809,163.649841 127.251057,175.023396 133.718446,176.814507 C133.776917,177.806507 127.556025,178.175063 127.556025,178.175063 L123.426344,174.66173 L121.433732,170.117359 L121.908382,163.684285 L126.317809,163.649841 Z" id="Fill-121" fill="#ECDCD8"></path>
                            <path d="M121.795682,168.194211 C121.795682,168.194211 126.229185,180.878952 132.909822,176.228952 C133.508293,176.282915 137.492369,177.3151 136.290841,180.102804 C135.520395,180.14873 127.365363,180.992619 127.365363,180.992619 L123.217338,176.1681 L123.489057,180.769878 L121.678739,181.329026 L121.257975,174.201322 C121.257975,174.201322 119.542815,171.314878 121.795682,168.194211" id="Fill-123" fill="#0B3557"></path>
                            <path d="M110.652076,165.836833 C110.652076,165.836833 111.170293,175.185056 117.789019,176.839537 C117.85093,177.791352 111.487873,178.206981 111.487873,178.206981 L107.255006,174.875056 L105.207363,170.530463 L106.340102,165.500426 L110.652076,165.836833 Z" id="Fill-125" fill="#ECDCD8"></path>
                            <path d="M105.573439,168.680796 C105.573439,168.680796 110.136497,180.81787 116.961592,176.284981 C117.573822,176.332056 121.650764,177.282722 120.427452,179.970537 C119.639809,180.022204 111.300191,180.915463 111.300191,180.915463 L107.045541,176.324019 L107.333312,180.739796 L105.482866,181.2955 L105.036879,174.454833 C105.036879,174.454833 103.27586,171.700426 105.573439,168.680796" id="Fill-127" fill="#0B3557"></path>
                            <path d="M103.062038,85.401363 C103.062038,85.401363 100.251975,101.20677 102.836178,109.590548 C104.889554,116.255548 105.032866,127.715215 104.662548,137.508919 C104.292229,147.302622 103.409427,166.327437 103.409427,166.327437 L112.694904,166.327437 C112.694904,166.327437 120.019873,100.148178 116.59414,86.5495111 C113.167261,72.9508444 103.062038,85.401363 103.062038,85.401363" id="Fill-129" fill="#0B3557"></path>
                            <path d="M115.208943,86.5495111 C115.208943,86.5495111 114.086522,102.814178 117.849325,110.738696 C121.682064,118.817067 119.313401,166.327437 119.313401,166.327437 L127.814675,166.327437 C127.814675,166.327437 134.459771,100.148178 131.034038,86.5495111 C127.607159,72.9508444 115.208943,86.5495111 115.208943,86.5495111" id="Fill-131" fill="#0B3557"></path>
                            <path d="M116.05758,33.1164185 C116.05758,33.1164185 101.79172,35.1119 101.601401,46.1972704 C101.412229,57.2826407 98.3671338,90.3194556 103.123949,90.7626407 C107.878471,91.2058259 131.655669,93.2013074 133.93949,90.7626407 C136.221019,88.3228259 132.226624,39.5460481 126.9,35.1119 C121.574522,30.6766037 116.05758,33.1164185 116.05758,33.1164185" id="Fill-133" fill="#007CFF"></path>
                            <path d="M117.180573,16.9307444 C117.180573,16.9307444 119.394459,30.2331889 129.356369,30.0127444 C139.320573,29.7900037 137.286688,9.52748519 135.415605,7.08767037 C133.544522,4.6490037 112.882357,7.4745963 117.180573,16.9307444" id="Fill-135" fill="#ECDCD8"></path>
                            <polygon id="Fill-137" fill="#ECDCD8" points="127.491248 24.1811852 118.038382 23.1386667 118.038382 35.6293704 127.188573 37.1598519"></polygon>
                            <path d="M131.632739,63.9498222 C136.801146,65.6100444 155.76535,57.2986 155.985478,43.7734148 C156.207898,30.2493778 137.587643,13.1764148 135.274013,13.1764148 C132.960382,13.1764148 130.503439,16.9469333 135.274013,20.7151556 C140.045732,24.4845259 146.244841,36.4574148 142.924586,39.7836 C139.603185,43.108637 132.494904,44.8928593 130.303949,38.6159333 C129.086369,35.1267111 122.69121,36.2794519 122.297962,39.9707481 C121.521783,47.2500074 125.766115,62.0657111 131.632739,63.9498222" id="Fill-139" fill="#007CFF"></path>
                            <path d="M119.725452,1.50020741 C115.359592,3.43368889 110.662395,4.71846667 109.095134,18.0565037 C107.994497,27.4196519 97.0718217,30.5265407 90.6938599,31.1603185 C77.7453248,32.4473926 72.7007389,43.0356148 74.9501656,51.4308741 C77.1995924,59.8249852 80.6746242,61.1866889 83.5385732,61.7343556 C86.4002293,62.2820222 93.2803567,56.0441333 102.142777,56.3805407 C111.202395,56.7226889 121.165452,51.1323556 122.764815,44.1918 C125.831694,30.8836148 121.980611,27.800837 122.168637,22.0830593 C122.319975,17.4847259 123.201631,13.3468 129.743541,14.1665778 C136.286599,14.9852074 138.204688,6.88617037 135.468,3.54735556 C131.107873,-1.77545926 122.82214,0.129318519 119.725452,1.50020741" id="Fill-141" fill="#072F47"></path>
                            <path d="M133.775656,17.0972259 C131.395529,17.0972259 130.263936,15.6689296 131.229287,13.494337 C132.004318,11.7480037 132.966229,12.1590407 133.333108,11.8869296 C133.704573,11.6102259 132.365465,10.7686333 131.69935,11.0212259 C130.489796,11.4804852 130.385465,10.7364852 130.814255,10.3070778 C131.506739,9.6135963 133.274637,9.40922593 135.064318,10.0016704 C138.469414,11.1303 136.155783,17.0972259 133.775656,17.0972259" id="Fill-143" fill="#ECDCD8"></path>
                        </g>
                    </g>
                </g>
            </g>
        </g>
    </g>
</svg>