<?xml version="1.0" encoding="UTF-8"?>
<svg width="638px" height="381px" viewBox="0 0 638 381" version="1.1" xmlns="http://www.w3.org/2000/svg" xmlns:xlink="http://www.w3.org/1999/xlink">
    <title>编组</title>
    <defs>
        <rect id="path-1" x="0" y="0" width="638" height="381"></rect>
        <path d="M0.343384615,4.715 C3.32184615,7.45871429 10.8713846,9.46185714 15.6295385,2.01885714 L15.6295385,2.01885714 C15.6295385,2.01885714 13.008,0.171285714 9.38584615,0.171285714 L9.38584615,0.171285714 C6.70276923,0.171285714 3.46953846,1.18442857 0.343384615,4.715 L0.343384615,4.715 Z" id="path-3"></path>
        <path d="M20.8735922,45.910875 C9.24384466,110.610696 115.166777,137.613107 115.166777,137.613107 L115.166777,137.613107 L125.69668,105.381482 C125.69668,105.381482 63.0277282,45.910875 60.1202913,42.4645714 L60.1202913,42.4645714 C49.9454951,15.1073036 10.6975631,4.45542857 0.036961165,0.646875 L0.036961165,0.646875 C21.599835,20.8071964 21.1140291,41.5798929 20.8735922,45.910875 L20.8735922,45.910875 Z" id="path-5"></path>
        <path d="M0.213888889,2.02490909 C1.859,5.87363636 6.58655556,17.2861818 20.9757778,11.0790909 L20.9757778,11.0790909 C20.9757778,11.0790909 17.2406667,0.668181818 7.00577778,0.668181818 L7.00577778,0.668181818 C4.99766667,0.668181818 2.74144444,1.06781818 0.213888889,2.02490909 L0.213888889,2.02490909 Z" id="path-7"></path>
        <path d="M0.476689655,11.237 C2.77572414,12.4634286 16.0473103,25.4392857 35.4835862,3.77157143 L35.4835862,3.77157143 C35.4835862,3.77157143 29.906069,0.338785714 22.166069,0.338785714 L22.166069,0.338785714 C15.7704828,0.338785714 7.89889655,2.68235714 0.476689655,11.237 L0.476689655,11.237 Z" id="path-9"></path>
        <path d="M37.8317477,28.2030404 C37.1467477,34.7925717 34.9670901,39.2527455 28.4515676,38.6154034 L28.4515676,38.6154034 C14.4170901,36.9158244 8.20395495,46.8312559 5.62563964,53.3475295 L5.62563964,53.3475295 C4.65182883,55.8114306 2.61534234,63.4168022 0.0493693694,71.9244646 L0.0493693694,71.9244646 L98.3339099,114.262539 C119.52818,115.396813 118.667919,80.8301606 119.241838,67.2310871 L119.241838,67.2310871 C119.813288,53.6307926 127.244613,24.3765458 136.950631,24.5474805 L136.950631,24.5474805 C136.950631,24.5474805 73.4653243,4.32346779 60.5280811,0.6581402 L60.5280811,0.6581402 C58.9544324,0.212489111 57.4844595,0.00614655172 56.1132252,0.00614655172 L56.1132252,0.00614655172 C42.8674234,0.00370462795 38.7598919,19.2631574 37.8317477,28.2030404" id="path-11"></path>
        <linearGradient x1="37.4298503%" y1="72.9462634%" x2="68.6513315%" y2="22.7770808%" id="linearGradient-13">
            <stop stop-color="#D6D8DB" offset="0%"></stop>
            <stop stop-color="#B5BDC6" offset="100%"></stop>
        </linearGradient>
        <path d="M17.4358636,10.3022845 C10.0525909,23.8127785 4.7115,61.7516077 0.371863636,62.7901281 L0.371863636,62.7901281 C0.371863636,62.7901281 68.4585,88.5305985 73.3614545,88.7725956 L73.3614545,88.7725956 C78.2644091,89.0145928 83.6042727,87.5334243 84.672,81.6075344 L84.672,81.6075344 C85.7397273,75.6816444 94.5049091,23.0174713 107.521364,25.4021769 L107.521364,25.4021769 L39.5697273,1.28029039 C39.5697273,1.28029039 36.8169545,0.0873289836 33.0357273,0.0873289836 L33.0357273,0.0873289836 C28.3193182,0.0861135135 22.0025455,1.94547853 17.4358636,10.3022845" id="path-14"></path>
        <linearGradient x1="42.2733244%" y1="72.4644317%" x2="58.946404%" y2="23.4136509%" id="linearGradient-16">
            <stop stop-color="#D6D8DB" offset="0%"></stop>
            <stop stop-color="#B5BDC6" offset="100%"></stop>
        </linearGradient>
        <path d="M57.7879389,23.9132051 C41.4630305,49.7605128 0.679641221,58.6052564 0.679641221,62.0666667 L0.679641221,62.0666667 C0.679641221,65.5280769 85.33,94.073141 91.3189542,94.7089103 L91.3189542,94.7089103 C97.3066794,95.3458974 117.677481,87.7142308 131.677107,67.2344231 L131.677107,67.2344231 C138.655412,57.024359 155.180649,21.8633974 160.338794,21.6612179 L160.338794,21.6612179 L90.1808931,1.52487179 C90.1808931,1.52487179 88.7294351,0.779487179 86.133771,0.779487179 L86.133771,0.779487179 C80.7273664,0.779487179 70.359458,4.00826923 57.7879389,23.9132051" id="path-17"></path>
        <linearGradient x1="39.0419237%" y1="62.9019927%" x2="61.3240544%" y2="32.2069665%" id="linearGradient-19">
            <stop stop-color="#D6D8DB" offset="0%"></stop>
            <stop stop-color="#B5BDC6" offset="100%"></stop>
        </linearGradient>
        <polygon id="path-20" points="0.510095238 4.48571429 24.0871429 5.90971429 25.7833333 0.512"></polygon>
        <polygon id="path-22" points="0.505636364 0.188 26.7361364 7.51657143 23.8778182 1.79128571"></polygon>
        <polygon id="path-24" points="0.768833333 1.633 6.74916667 1.624 1.28566667 0.296"></polygon>
        <polygon id="path-26" points="18.0998889 13.9242205 20.9024444 5.47216923 0.503555556 0.136087179"></polygon>
    </defs>
    <g id="缺省页" stroke="none" stroke-width="1" fill="none" fill-rule="evenodd">
        <g id="搜索无结果" transform="translate(-641.000000, -225.000000)">
            <g id="编组" transform="translate(641.000000, 225.000000)">
                <mask id="mask-2" fill="white">
                    <use xlink:href="#path-1"></use>
                </mask>
                <use id="蒙版" fill="#FFFFFF" xlink:href="#path-1"></use>
                <g mask="url(#mask-2)">
                    <g transform="translate(83.000000, 0.000000)">
                        <path d="M3.05380585,273.764402 C3.05380585,273.764402 34.1376081,186.19285 122.234976,233.5951 C210.333571,280.997349 227.765736,157.860949 353.802183,182.227461 C479.837402,206.593973 465.511899,345.244237 291.397682,376.658833 C291.397682,376.658833 212.873153,391.484661 169.092666,366.339518 C125.312179,341.194375 83.7656404,363.737958 26.5704133,341.559205 C-12.493005,323.261366 3.05380585,273.764402 3.05380585,273.764402" id="Fill-1" stroke="none" fill="#F4F4F4" fill-rule="evenodd"></path>
                        <g id="编组" stroke="none" stroke-width="1" fill="none" fill-rule="evenodd" transform="translate(169.000000, 180.000000)">
                            <mask id="mask-4" fill="white">
                                <use xlink:href="#path-3"></use>
                            </mask>
                            <g id="Clip-4"></g>
                            <polygon id="Fill-3" fill="#9DA8B2" mask="url(#mask-4)" points="-3.98030769 11.7067143 19.952 11.7067143 19.952 -4.34542857 -3.98030769 -4.34542857"></polygon>
                        </g>
                        <g id="编组" stroke="none" stroke-width="1" fill="none" fill-rule="evenodd" transform="translate(1.000000, 115.000000)">
                            <mask id="mask-6" fill="white">
                                <use xlink:href="#path-5"></use>
                            </mask>
                            <g id="Clip-6"></g>
                            <polygon id="Fill-5" fill="#9DA8B2" mask="url(#mask-6)" points="-4.29460194 141.941625 130.02701 141.941625 130.02701 -3.68041071 -4.29460194 -3.68041071"></polygon>
                        </g>
                        <path d="M30,139 C30,139 44.5454258,185.430648 71.6944198,197.584517 C98.8458813,209.739623 103.09354,244.460543 108,243.995371" id="Stroke-7" stroke="#DDDDDD" stroke-width="1" fill="none"></path>
                        <g id="编组" stroke="none" stroke-width="1" fill="none" fill-rule="evenodd" transform="translate(404.000000, 261.000000)">
                            <mask id="mask-8" fill="white">
                                <use xlink:href="#path-7"></use>
                            </mask>
                            <g id="Clip-10"></g>
                            <polygon id="Fill-9" fill="#9DA8B2" mask="url(#mask-8)" points="-4.07855556 17.3625455 25.2706667 17.3625455 25.2706667 -3.80290909 -4.07855556 -3.80290909"></polygon>
                        </g>
                        <g id="编组" stroke="none" stroke-width="1" fill="none" fill-rule="evenodd" transform="translate(49.000000, 294.000000)">
                            <mask id="mask-10" fill="white">
                                <use xlink:href="#path-9"></use>
                            </mask>
                            <g id="Clip-12"></g>
                            <polygon id="Fill-11" fill="#9DA8B2" mask="url(#mask-10)" points="-2.51751724 19.1347143 38.4790345 19.1347143 38.4790345 -2.59007143 -2.51751724 -2.59007143"></polygon>
                        </g>
                        <g id="编组" stroke="none" stroke-width="1" fill="none" fill-rule="evenodd" transform="translate(5.000000, 0.000000)">
                            <path d="M371.034741,240.91342 C371.034741,240.91342 472.27598,199.467488 451.83469,136.787548 C450.998422,132.516177 447.655806,111.944312 466.244043,88.9388584 C456.205143,94.1917723 418.780612,110.19375 412.467464,138.780117 C410.061812,142.605555 356.158748,210.341855 356.158748,210.341855 L371.034741,240.91342 Z" id="Fill-13" fill="#9DA8B2"></path>
                            <path d="M365.42364,229.725918 L365.438376,229.085888 C366.92794,229.142397 368.396629,225.135146 370.257049,220.061588 C374.505929,208.468569 381.617277,189.066202 400.898107,179.603341 C428.842476,165.889993 441.112653,118.014277 441.232997,117.531491 L441.892433,117.691191 C441.770861,118.175206 429.431916,166.328554 401.218615,180.174577 C382.171105,189.521963 375.113789,208.778142 370.896837,220.282712 C368.720821,226.21988 367.408088,229.802082 365.42364,229.725918" id="Fill-15" fill="#DDDDDD"></path>
                            <path d="M459.638999,209.716566 C459.638999,209.716566 442.720842,246.60981 399.458399,225.673091 C402.153859,223.572416 425.932853,189.838784 459.638999,209.716566" id="Fill-17" fill="#B8C3CB"></path>
                            <polygon id="Fill-19" fill="#E8E8E8" points="399.553938 225.850358 399.363598 225.141534 459.54297 208.989684 459.73331 209.698508"></polygon>
                            <polygon id="Fill-21" fill="#E8E8E8" points="444.510284 213.981426 443.942948 213.517067 450.54836 205.441142 451.115696 205.905501"></polygon>
                            <polygon id="Fill-23" fill="#E8E8E8" points="449.169807 223.604602 437.426443 216.26207 437.815719 215.640467 449.557855 222.982999"></polygon>
                            <polygon id="Fill-25" fill="#E8E8E8" points="428.426921 218.275646 427.734329 218.033639 432.872281 203.349804 433.564873 203.591811"></polygon>
                            <polygon id="Fill-27" fill="#E8E8E8" points="435.943141 230.201579 421.264856 219.923017 421.68606 219.322298 436.364345 229.60086"></polygon>
                            <path d="M425.740671,183.647691 C425.740671,183.647691 431.412803,236.175601 370.102443,240.179167 C370.491719,234.181804 367.890815,188.900605 425.740671,183.647691" id="Fill-29" fill="#B8C3CB"></path>
                            <polygon id="Fill-31" fill="#DDDDDD" points="370.351236 235.310394 369.853896 234.771098 425.630888 183.378289 426.127 183.917585"></polygon>
                            <polygon id="Fill-33" fill="#DDDDDD" points="422.902763 207.50619 403.086526 205.304782 403.168802 204.573846 422.983811 206.776482"></polygon>
                            <polygon id="Fill-35" fill="#DDDDDD" points="410.828452 198.395161 410.106388 198.267401 412.308192 185.786202 413.030256 185.913963"></polygon>
                            <polygon id="Fill-37" fill="#DDDDDD" points="393.024784 213.75588 392.682172 193.93215 393.415288 193.919865 393.759128 213.742367"></polygon>
                            <polygon id="Fill-39" fill="#DDDDDD" points="410.404546 224.3891 389.120849 220.718448 389.246105 219.994882 410.529802 223.665534"></polygon>
                            <path d="M104.511937,215.722652 C104.511937,215.722652 42.6796774,199.382846 60.2228865,130.086397 C63.3874427,130.334547 119.561078,148.701318 104.511937,215.722652" id="Fill-41" fill="#B8C3CB"></path>
                            <polygon id="Fill-43" fill="#FFFFFF" points="104.176816 211.595257 59.5132253 130.214403 59.9798653 129.957654 104.642228 211.339736"></polygon>
                            <polygon id="Fill-45" fill="#FFFFFF" points="73.3029294 152.460911 72.7761173 152.390888 74.9030135 136.434364 75.4298255 136.504387"></polygon>
                            <polygon id="Fill-47" fill="#FFFFFF" points="85.5157586 176.459209 85.0221025 176.263883 94.0601831 153.392333 94.5550671 153.587658"></polygon>
                            <polygon id="Fill-49" fill="#FFFFFF" points="95.5976392 195.117127 95.1445072 194.839494 105.246036 178.351044 105.700396 178.628677"></polygon>
                            <polygon id="Fill-51" fill="#FFFFFF" points="90.0032392 186.197492 62.3548175 180.878241 62.4555135 180.356144 90.1039352 185.674166"></polygon>
                            <polygon id="Fill-53" fill="#FFFFFF" points="77.7465705 162.786523 57.0093331 156.403422 57.1665171 155.894837 77.9025265 162.277939"></polygon>
                            <path d="M0.0599699192,263.338301 C0.0599699192,263.338301 53.4706053,298.221777 94.2217879,234.393222 C88.8492876,233.849013 28.8455197,208.876788 0.0599699192,263.338301" id="Fill-55" fill="#B8C3CB"></path>
                            <polygon id="Fill-57" fill="#E8E8E8" points="94.5470851 234.04225 0.269835133 263.364467 0.0512511187 262.663014 94.3285011 233.342025"></polygon>
                            <polygon id="Fill-59" fill="#E8E8E8" points="24.9456371 254.905753 24.6988091 255.597378 8.78392807 249.923101 9.03075609 249.230247"></polygon>
                            <polygon id="Fill-61" fill="#E8E8E8" points="35.0843741 253.090697 26.0106816 272.571685 25.3451055 272.262112 34.4187981 252.781124"></polygon>
                            <polygon id="Fill-63" fill="#E8E8E8" points="50.1976167 248.120452 49.7420287 248.695374 30.5950515 233.572977 31.0494115 232.998055"></polygon>
                            <polygon id="Fill-65" fill="#E8E8E8" points="74.8529111 240.352626 74.412059 240.939832 58.8225981 229.219053 59.2646781 228.631847"></polygon>
                            <polygon id="Fill-67" fill="#E8E8E8" points="59.9681993 244.615029 48.7332266 271.113007 48.0565986 270.826775 59.2915713 244.328797"></polygon>
                            <path d="M336.12847,285.199317 C334.36629,289.344156 327.12109,289.990328 319.945885,286.645219 C312.770681,283.300111 308.381809,277.227811 310.143989,273.082972 C311.906169,268.938133 319.152597,268.290733 326.326574,271.635841 C333.501778,274.982178 337.890651,281.054478 336.12847,285.199317" id="Fill-69" fill="#E6E6E6"></path>
                            <path d="M277.249305,302.212443 C274.178077,307.203694 280.124053,316.236593 290.531354,322.386286 C300.939883,328.535979 311.865399,329.474526 314.937856,324.482046 C318.009084,319.490796 312.063107,310.459125 301.654579,304.309432 C291.247278,298.159739 280.320533,297.221193 277.249305,302.212443" id="Fill-71" fill="#E6E6E6"></path>
                            <path d="M398.37211,246.88302 C393.651678,256.428189 356.120312,247.484968 314.542685,226.908189 C272.966286,206.33141 243.087817,181.913222 247.808249,172.368054 C252.528681,162.822885 290.060048,171.766106 331.636446,192.342885 C373.214073,212.919664 403.092543,237.337852 398.37211,246.88302" id="Fill-73" fill="#939DA5"></path>
                            <path d="M377.066186,238.072596 L275.306732,197.54924 L275.306732,7.69866367 C275.306732,3.13491835 279.669816,-0.163508614 284.058688,1.08215431 L377.449322,27.591188 C380.545111,28.4695401 382.681831,31.2974652 382.681831,34.5160419 L382.681831,234.2619 C382.681831,237.161076 379.757962,239.145046 377.066186,238.072596" id="Fill-75" fill="#9DA8B2"></path>
                            <path d="M373.132779,236.436896 L275.306609,197.548626 L275.306609,7.59608689 C275.306609,6.30374232 276.545661,5.37379476 277.785941,5.7349633 L375.532291,34.2255101 C377.435692,34.780776 378.745968,36.526424 378.745968,38.510394 L378.745968,232.626199 C378.745968,235.522918 375.823327,237.506888 373.132779,236.436896" id="Fill-77" fill="#DCDEE0"></path>
                            <polygon id="Fill-79" fill="#FFFFFF" points="286.705151 28.648773 286.705151 170.325118 363.64304 201.112893 363.64304 50.3139715"></polygon>
                            <polygon id="Fill-81" fill="#DCDEE0" points="293.828411 39.4812494 293.828411 69.412785 356.148187 88.7979536 356.148187 57.7251745"></polygon>
                            <polygon id="Fill-83" fill="#DCDEE0" points="293.828411 82.5110412 293.828411 112.442577 356.148187 131.827745 356.148187 100.754966"></polygon>
                            <path d="M250.444274,147.30652 C251.96945,137.443179 260.204418,115.182175 273.027195,119.592363 C285.849972,124.00255 345.40552,142.673981 345.40552,142.673981 L347.685916,143.528992 C356.803817,143.528992 356.148065,155.501606 356.148065,155.501606 L356.148065,188.854415 L250.444274,147.30652 Z" id="Fill-85" fill="#9DA8B2"></path>
                        </g>
                        <g id="编组" stroke="none" stroke-width="1" fill="none" fill-rule="evenodd" transform="translate(218.000000, 120.000000)">
                            <mask id="mask-12" fill="white">
                                <use xlink:href="#path-11"></use>
                            </mask>
                            <g id="Clip-88"></g>
                            <path d="M37.8317477,28.2030404 C37.1467477,34.7925717 34.9670901,39.2527455 28.4515676,38.6154034 L28.4515676,38.6154034 C14.4170901,36.9158244 8.20395495,46.8312559 5.62563964,53.3475295 L5.62563964,53.3475295 C4.65182883,55.8114306 2.61534234,63.4168022 0.0493693694,71.9244646 L0.0493693694,71.9244646 L98.3339099,114.262539 C119.52818,115.396813 118.667919,80.8301606 119.241838,67.2310871 L119.241838,67.2310871 C119.813288,53.6307926 127.244613,24.3765458 136.950631,24.5474805 L136.950631,24.5474805 C136.950631,24.5474805 73.4653243,4.32346779 60.5280811,0.6581402 L60.5280811,0.6581402 C58.9544324,0.212489111 57.4844595,0.00614655172 56.1132252,0.00614655172 L56.1132252,0.00614655172 C42.8674234,0.00370462795 38.7598919,19.2631574 37.8317477,28.2030404" id="Fill-87" fill="url(#linearGradient-13)" mask="url(#mask-12)"></path>
                        </g>
                        <path d="M246.660378,158.193508 C232.667756,156.489125 226.47315,166.426668 223.902524,172.956669 C222.931618,175.42576 219,191.572737 219,191.572737 L316.334308,234 C316.334308,234 318.332726,199.361754 318.618215,194.534913 C318.903703,189.708072 320.332376,183.461931 314.905635,182.610351 L246.660378,158.193508 Z" id="Fill-89" stroke="none" fill="#9DA8B2" fill-rule="evenodd"></path>
                        <g id="编组" stroke="none" stroke-width="1" fill="none" fill-rule="evenodd" transform="translate(207.000000, 158.000000)">
                            <mask id="mask-15" fill="white">
                                <use xlink:href="#path-14"></use>
                            </mask>
                            <g id="Clip-92"></g>
                            <path d="M17.4358636,10.3022845 C10.0525909,23.8127785 4.7115,61.7516077 0.371863636,62.7901281 L0.371863636,62.7901281 C0.371863636,62.7901281 68.4585,88.5305985 73.3614545,88.7725956 L73.3614545,88.7725956 C78.2644091,89.0145928 83.6042727,87.5334243 84.672,81.6075344 L84.672,81.6075344 C85.7397273,75.6816444 94.5049091,23.0174713 107.521364,25.4021769 L107.521364,25.4021769 L39.5697273,1.28029039 C39.5697273,1.28029039 36.8169545,0.0873289836 33.0357273,0.0873289836 L33.0357273,0.0873289836 C28.3193182,0.0861135135 22.0025455,1.94547853 17.4358636,10.3022845" id="Fill-91" fill="url(#linearGradient-16)" mask="url(#mask-15)"></path>
                        </g>
                        <path d="M278.277177,247 C273.358777,246.12624 207,221.130784 207,221.130784 C208.204835,220.840355 209.460438,217.692596 210.81015,213 C210.81015,213 275.254565,231.173458 276.538649,231.435462 C280.753713,232.294391 278.277177,247 278.277177,247" id="Fill-93" stroke="none" fill="#9DA8B2" fill-rule="evenodd"></path>
                        <g id="编组" stroke="none" stroke-width="1" fill="none" fill-rule="evenodd" transform="translate(117.000000, 209.000000)">
                            <mask id="mask-18" fill="white">
                                <use xlink:href="#path-17"></use>
                            </mask>
                            <g id="Clip-96"></g>
                            <path d="M57.7879389,23.9132051 C41.4630305,49.7605128 0.679641221,58.6052564 0.679641221,62.0666667 L0.679641221,62.0666667 C0.679641221,65.5280769 85.33,94.073141 91.3189542,94.7089103 L91.3189542,94.7089103 C97.3066794,95.3458974 117.677481,87.7142308 131.677107,67.2344231 L131.677107,67.2344231 C138.655412,57.024359 155.180649,21.8633974 160.338794,21.6612179 L160.338794,21.6612179 L90.1808931,1.52487179 C90.1808931,1.52487179 88.7294351,0.779487179 86.133771,0.779487179 L86.133771,0.779487179 C80.7273664,0.779487179 70.359458,4.00826923 57.7879389,23.9132051" id="Fill-95" fill="url(#linearGradient-19)" mask="url(#mask-18)"></path>
                        </g>
                        <g id="编组" stroke="none" stroke-width="1" fill="none" fill-rule="evenodd" transform="translate(98.000000, 43.000000)">
                            <polygon id="Fill-97" fill="#DCDEE0" points="174.794012 87.2364579 171.70894 93.2270367 230.182178 112.687483 233.987752 106.969259"></polygon>
                            <polygon id="Fill-99" fill="#DCDEE0" points="170.546595 100.706572 167.4603 106.697151 225.934761 126.157597 229.740335 120.438141"></polygon>
                            <polygon id="Fill-101" fill="#DCDEE0" points="136.497167 127.025683 133.410872 133.016261 191.885333 152.476708 195.690907 146.757252"></polygon>
                            <polygon id="Fill-103" fill="#DCDEE0" points="132.575872 139.17851 129.490801 145.169089 187.965261 164.629535 191.770835 158.911311"></polygon>
                            <polygon id="Fill-105" fill="#DCDEE0" points="128.992688 151.904269 125.906393 157.894848 184.380853 177.355294 188.186427 171.637071"></polygon>
                            <polygon id="Fill-107" fill="#DCDEE0" points="91.5982447 188.338227 87.3412863 194.343595 142.479906 211.501963 146.312392 205.252585"></polygon>
                            <polygon id="Fill-109" fill="#DCDEE0" points="102.628537 176.365327 98.3715791 182.370694 153.510199 199.529062 157.342685 193.279685"></polygon>
                            <polygon id="Fill-111" fill="#DCDEE0" points="80.3547369 201.894977 76.0977786 207.900345 131.236398 225.058713 135.068884 218.809335"></polygon>
                            <polygon id="Fill-113" fill="#ECDCD8" points="60.161953 40.2177471 53.5061741 46.4769838 60.7931571 52.5944973 65.1663255 44.1514906"></polygon>
                            <path d="M97.0098418,104.491444 L97.0098418,104.491444 C96.0300074,103.972614 95.6544654,102.75133 96.1694595,101.764197 L105.135984,84.6021314 L108.683449,86.4839692 L99.7169248,103.644802 C99.2019307,104.631935 97.9896761,105.010275 97.0098418,104.491444" id="Fill-115" fill="#9DA8B2"></path>
                            <path d="M120.705197,79.8879242 C117.327766,86.3529677 110.893398,89.6323197 106.331847,87.213166 C101.770296,84.7940123 100.810033,77.5944728 104.188688,71.1294294 C107.564897,64.6656183 114.000488,61.3850339 118.562039,63.8041876 C123.12359,66.2233413 124.082629,73.4241131 120.705197,79.8879242 Z" id="Stroke-117" stroke="#9DA8B2" stroke-width="3"></path>
                            <polygon id="Fill-119" fill="#9DA8B2" points="108.683327 86.4835995 104.909558 93.7053217 103.152951 92.2449564 104.883869 88.6661371"></polygon>
                            <path d="M88.4206944,21.8122144 C88.4206944,21.8122144 81.0236176,45.3062268 71.9139715,48.7605761 C62.8055485,52.2149255 56.456809,35.6628861 56.456809,35.6628861 L63.378036,18.472476 L77.2840999,18.7719433 L83.2291624,16.7767269 L88.4206944,21.8122144 Z" id="Fill-121" fill="#ECDCD8"></path>
                            <path d="M56.2526462,40.2653168 C56.2526462,40.2653168 39.2456084,22.6349485 60.5144976,5.46055928 C62.2417462,4.272549 74.1905879,-6.81143899 87.4214101,6.88148858 C88.5994132,8.62037084 91.6490101,12.4210178 97.0460504,12.2152111 C98.003866,13.6287461 101.750723,21.6108442 92.7682966,22.8875855 C91.3028264,23.1771938 85.3516476,23.3250789 82.3950188,18.7837741 C80.8867344,20.0605154 75.9545344,29.0691826 70.1892917,31.2406287 C70.1892917,31.2406287 68.656542,31.5166809 69.2926393,30.0045558 C69.8736896,29.7235741 72.2504914,24.5636166 67.0981039,23.0872304 C66.380048,23.3410998 61.0111427,24.5229482 63.4515542,29.0001695 C62.9292205,29.7174122 57.7376886,40.1802828 56.2526462,40.2653168" id="Fill-123" fill="#072F47"></path>
                            <polygon id="Fill-125" fill="#C6BBB9" points="14.4998362 240.407338 13.6166397 247.991378 18.0326223 247.977822 20.8754876 240.411035"></polygon>
                            <path d="M32.7651233,252.139555 L14.1274747,252.21473 C14.1274747,252.21473 11.3335399,249.581143 14.0932233,247.074491 C14.8858983,247.070794 16.5776722,248.012329 18.3538514,246.807065 C19.1966802,246.8046 28.7638271,246.765164 28.7638271,246.765164 C28.7638271,246.765164 33.5247701,247.145968 32.7651233,252.139555" id="Fill-127" fill="#0B3557"></path>
                            <polygon id="Fill-129" fill="#FFFFFF" points="22.8333214 248.436389 22.1054794 248.283575 22.4443235 246.644515 23.1721655 246.797329"></polygon>
                            <polygon id="Fill-131" fill="#FFFFFF" points="19.7016435 248.805855 18.9738015 248.653041 19.3126456 247.013981 20.0404876 247.166796"></polygon>
                            <polygon id="Fill-133" fill="#C6BBB9" points="32.2342267 239.154504 31.3510302 246.738545 35.7670128 246.726221 38.6098781 239.158201"></polygon>
                            <path d="M50.4995138,250.886722 L31.8618652,250.961897 C31.8618652,250.961897 29.0679305,248.32831 31.8276138,245.821657 C32.6202888,245.81796 34.3120628,246.759495 36.0894652,245.554232 C36.9310708,245.551767 46.4982176,245.513563 46.4982176,245.513563 C46.4982176,245.513563 51.2591607,245.893135 50.4995138,250.886722" id="Fill-135" fill="#0B3557"></path>
                            <polygon id="Fill-137" fill="#FFFFFF" points="40.567712 247.183556 39.83987 247.030741 40.1787141 245.391681 40.9065561 245.544496"></polygon>
                            <polygon id="Fill-139" fill="#FFFFFF" points="37.4360341 247.553022 36.7081921 247.400208 37.0470362 245.761148 37.7748782 245.913962"></polygon>
                            <path d="M4.07163385,124.056027 C4.07163385,124.056027 -4.61353976,148.082425 8.20137274,172.245618 C13.2192012,181.705334 11.1531085,239.490203 10.9109023,241.692459 C10.6674727,243.894715 22.8365019,241.692459 22.8365019,241.692459 C22.8365019,241.692459 33.8299745,151.466529 25.4481703,127.604037 C17.0675894,103.744009 4.07163385,124.056027 4.07163385,124.056027" id="Fill-141" fill="#0B3557"></path>
                            <path d="M22.4450575,124.056027 C22.4450575,124.056027 13.7598839,148.082425 26.5747964,172.245618 C31.5926248,181.705334 28.9675005,239.490203 28.7252943,241.692459 C28.4818648,243.894715 41.2099255,241.692459 41.2099255,241.692459 C41.2099255,241.692459 49.9660484,151.466529 41.5842443,127.604037 C33.2036634,103.744009 22.4450575,124.056027 22.4450575,124.056027" id="Fill-143" fill="#052A40"></path>
                            <path d="M54.9636931,42.4382418 C54.9636931,42.4382418 32.3920278,42.4382418 14.203317,83.6550506 C-3.03002465,122.706575 0.670348611,122.341792 1.03488125,125.156538 C1.39941389,127.971285 23.2615861,138.250531 44.0313837,134.212036 C48.4045521,133.111524 70.3890507,51.8609872 65.4091434,48.3117449 C65.4091434,48.3117449 55.2058993,50.26999 54.9636931,42.4382418" id="Fill-145" fill="#007CFF"></path>
                            <path d="M38.2017973,85.2048864 C38.2017973,85.2048864 45.1254709,97.1355166 60.0651928,99.8886441 C75.0036914,102.641772 99.5998584,96.5846446 99.5998584,96.5846446 C99.5998584,96.5846446 108.173715,96.5723208 107.688079,93.8808121 C107.20122,91.1880709 104.347346,90.6988177 104.165079,91.7389429 C103.982813,92.7790681 105.37978,92.7174493 105.197514,93.3915589 C105.015248,94.0632037 101.022514,95.4964567 101.325884,92.9269532 C101.630476,90.3574496 103.998715,91.2743372 103.451916,89.5613349 C102.905117,87.8495649 97.0493532,91.122755 97.0493532,92.9060028 C97.0493532,94.6880182 62.8579042,90.1602695 57.818057,86.8575023 C52.7769865,83.5535028 47.735916,78.8421301 46.6435414,77.9240101 C45.5499435,77.0071225 37.8372647,81.8405004 38.2017973,85.2048864" id="Fill-147" fill="#ECDCD8"></path>
                            <g transform="translate(30.581597, 65.678878)">
                                <path d="M0.12465059,7.22517287 C0.12465059,7.22517287 2.8818874,23.8129512 5.06908323,24.3638232 C7.2550558,24.9146952 23.4694186,14.2164408 24.0162176,12.1312609 C24.5630166,10.0473135 15.5475617,2.38933021 13.5438555,0.553090261" id="Fill-149" fill="#007CFF"></path>
                                <path d="M0.12465059,7.22517287 C0.12465059,7.22517287 2.8818874,23.8129512 5.06908323,24.3638232 C7.2550558,24.9146952 23.4694186,14.2164408 24.0162176,12.1312609 C24.5630166,10.0473135 15.5475617,2.38933021 13.5438555,0.553090261" id="Stroke-151" stroke="#0378E2"></path>
                            </g>
                        </g>
                        <g id="编组" stroke="none" stroke-width="1" fill="none" fill-rule="evenodd" transform="translate(21.000000, 57.000000)">
                            <mask id="mask-21" fill="white">
                                <use xlink:href="#path-20"></use>
                            </mask>
                            <g id="Clip-153"></g>
                            <polygon id="Fill-152" fill="#E5E9EE" mask="url(#mask-21)" points="-3.83809524 9.92457143 30.1327619 9.92457143 30.1327619 -3.50171429 -3.83809524 -3.50171429"></polygon>
                        </g>
                        <g id="编组" stroke="none" stroke-width="1" fill="none" fill-rule="evenodd" transform="translate(21.000000, 61.000000)">
                            <mask id="mask-23" fill="white">
                                <use xlink:href="#path-22"></use>
                            </mask>
                            <g id="Clip-155"></g>
                            <polygon id="Fill-154" fill="#9DA8B2" mask="url(#mask-23)" points="-3.80577273 12.0345714 31.0463182 12.0345714 31.0463182 -4.32742857 -3.80577273 -4.32742857"></polygon>
                        </g>
                        <g id="编组" stroke="none" stroke-width="1" fill="none" fill-rule="evenodd" transform="translate(41.000000, 67.000000)">
                            <mask id="mask-25" fill="white">
                                <use xlink:href="#path-24"></use>
                            </mask>
                            <g id="Clip-157"></g>
                            <polygon id="Fill-156" fill="#9DA8B2" mask="url(#mask-25)" points="-3.3285 5.145 10.8465 5.145 10.8465 -3.216 -3.3285 -3.216"></polygon>
                        </g>
                        <g id="编组" stroke="none" stroke-width="1" fill="none" fill-rule="evenodd" transform="translate(21.000000, 62.000000)">
                            <mask id="mask-27" fill="white">
                                <use xlink:href="#path-26"></use>
                            </mask>
                            <g id="Clip-159"></g>
                            <polygon id="Fill-158" fill="#E5E9EE" mask="url(#mask-27)" points="-3.78888889 18.209441 25.1961111 18.209441 25.1961111 -4.15157436 -3.78888889 -4.15157436"></polygon>
                        </g>
                        <path d="M87,118 C87,118 82.7669662,74.7385029 55,65" id="Stroke-160" stroke="#9DA8B2" stroke-width="1" fill="none" stroke-dasharray="12,12"></path>
                    </g>
                </g>
            </g>
        </g>
    </g>
</svg>