<?xml version="1.0" encoding="UTF-8"?>
<svg width="40px" height="40px" viewBox="0 0 40 40" version="1.1" xmlns="http://www.w3.org/2000/svg" xmlns:xlink="http://www.w3.org/1999/xlink">
    <title>编组 16备份</title>
    <g id="频道+优秀创作者+我的订阅" stroke="none" stroke-width="1" fill="none" fill-rule="evenodd">
        <g id="画板备份" transform="translate(-1514.000000, -93.000000)">
            <g id="编组-16备份" transform="translate(1514.000000, 93.000000)">
                <rect id="矩形" fill="#FFFFFF" x="0" y="0" width="40" height="40"></rect>
                <path d="M30.3438074,11.7949628 L25.8438074,12.2949628 L25.8438074,28.2949628 C25.8438074,28.9853188 26.1236294,29.6103188 26.5760405,30.0627298 C27.0284515,30.5151408 27.6534515,30.7949628 28.3438074,30.7949628 C29.0341633,30.7949628 29.6591633,30.5151408 30.1115744,30.0627298 C30.5639854,29.6103188 30.8438074,28.9853188 30.8438074,28.2949628 L30.3438074,11.7949628 Z" id="矩形" stroke="#303234" stroke-width="3" transform="translate(28.343807, 21.294963) rotate(-410.000000) translate(-28.343807, -21.294963) "></path>
                <path d="M24.1107307,9.81065376 C20.4986737,10.3234977 16.8320577,10.3203304 13.2208922,9.80124697 L13.2096374,9.79962917 L13.2096374,16.3392646 L13.2702467,16.3306126 C16.8817848,15.8150658 20.5482673,15.8154513 24.159697,16.3317575 L24.2096374,16.3388973 L24.1107307,9.81065376 Z" id="矩形" stroke="#007CFF" stroke-width="3" transform="translate(18.709637, 13.068596) rotate(-410.000000) translate(-18.709637, -13.068596) "></path>
                <path d="M26.117884,2.80573376 L23.117884,2.80573376 C22.7036704,2.80573376 22.3286704,2.97362698 22.0572238,3.24507359 C21.7857772,3.5165202 21.617884,3.8915202 21.617884,4.30573376 L21.617884,10.3057338 C21.617884,10.7199473 21.7857772,11.0949473 22.0572238,11.3663939 C22.3286704,11.6378405 22.7036704,11.8057338 23.117884,11.8057338 L26.617884,11.3057338 L26.117884,2.80573376 Z" id="矩形" stroke="#007CFF" stroke-width="3" transform="translate(24.117884, 7.305734) rotate(-410.000000) translate(-24.117884, -7.305734) "></path>
                <path d="M14.4972484,14.780479 L10.9972484,15.280479 L11.4972484,23.780479 L14.4972484,23.780479 C14.911462,23.780479 15.286462,23.6125858 15.5579086,23.3411391 C15.8293552,23.0696925 15.9972484,22.6946925 15.9972484,22.280479 L15.9972484,16.280479 C15.9972484,15.8662654 15.8293552,15.4912654 15.5579086,15.2198188 C15.286462,14.9483722 14.911462,14.780479 14.4972484,14.780479 Z" id="矩形备份-5" stroke="#007CFF" stroke-width="3" transform="translate(13.497248, 19.280479) rotate(-410.000000) translate(-13.497248, -19.280479) "></path>
                <rect id="矩形" fill="#303234" x="5" y="30" width="22" height="3"></rect>
                <rect id="矩形备份-6" fill="#303234" x="2" y="35" width="27" height="3"></rect>
            </g>
        </g>
    </g>
</svg>