<?xml version="1.0" encoding="UTF-8"?>
<svg width="60px" height="60px" viewBox="0 0 60 60" version="1.1" xmlns="http://www.w3.org/2000/svg" xmlns:xlink="http://www.w3.org/1999/xlink">
    <title>编组 15</title>
    <g id="页面-1" stroke="none" stroke-width="1" fill="none" fill-rule="evenodd">
        <g id="画板备份" transform="translate(-1328.000000, -41.000000)">
            <g id="编组-15" transform="translate(1328.000000, 41.000000)">
                <rect id="矩形" fill="#FFFFFF" x="0" y="0" width="60" height="60"></rect>
                <g id="管理" transform="translate(5.000000, 5.000000)" stroke-width="4">
                    <path d="M20,30 L6,30 C4.8954305,30 3.8954305,30.4477153 3.17157288,31.1715729 C2.44771525,31.8954305 2,32.8954305 2,34 L2,48 L16,48 C17.1045695,48 18.1045695,47.5522847 18.8284271,46.8284271 C19.5522847,46.1045695 20,45.1045695 20,44 L20,30 Z M44,30 L30,30 L30,44 C30,45.1045695 30.4477153,46.1045695 31.1715729,46.8284271 C31.8954305,47.5522847 32.8954305,48 34,48 L48,48 L48,34 C48,32.8954305 47.5522847,31.8954305 46.8284271,31.1715729 C46.1045695,30.4477153 45.1045695,30 44,30 Z M16,2 L2,2 L2,16 C2,17.1045695 2.44771525,18.1045695 3.17157288,18.8284271 C3.8954305,19.5522847 4.8954305,20 6,20 L20,20 L20,6 C20,4.8954305 19.5522847,3.8954305 18.8284271,3.17157288 C18.1045695,2.44771525 17.1045695,2 16,2 Z" id="形状结合" stroke="#2C2C3B"></path>
                    <path d="M48,2 L34,2 C32.8954305,2 31.8954305,2.44771525 31.1715729,3.17157288 C30.4477153,3.8954305 30,4.8954305 30,6 L30,20 L44,20 C45.1045695,20 46.1045695,19.5522847 46.8284271,18.8284271 C47.5522847,18.1045695 48,17.1045695 48,16 L48,2 Z" id="矩形备份-58" stroke="#007CFF"></path>
                </g>
            </g>
        </g>
    </g>
</svg>