<?xml version="1.0" encoding="UTF-8"?>
<svg width="60px" height="60px" viewBox="0 0 60 60" version="1.1" xmlns="http://www.w3.org/2000/svg" xmlns:xlink="http://www.w3.org/1999/xlink">
    <title>编组 22备份</title>
    <g id="页面-1" stroke="none" stroke-width="1" fill="none" fill-rule="evenodd">
        <g id="画板备份" transform="translate(-1554.000000, -41.000000)">
            <g id="编组-22备份" transform="translate(1554.000000, 41.000000)">
                <rect id="矩形" fill="#FFFFFF" x="0" y="0" width="60" height="60"></rect>
                <g id="编组-2" transform="translate(5.000000, 4.000000)">
                    <path d="M30.7221831,47.3342897 L31.6216302,47.0457716 L32.0064741,46.9217476 L32.3955651,46.7704545 L32.8883793,46.5591283 L33.1912199,46.3348439 C33.4475527,46.1118722 33.5656725,45.8077002 33.6087537,45.0822448 L33.6320054,44.4111959 L33.6647088,43.2394312 C33.6868702,42.745352 33.7189721,42.3748951 33.7749522,41.9662194 C33.887222,41.084848 34.3611598,40.254495 35.0332988,39.5448391 L35.3330165,39.2482936 L35.7749676,38.8824979 L36.2630955,38.5479886 L36.4612068,38.4312441 L36.8596133,38.2467889 L36.8956547,38.2340909 L36.9722681,38.2013245 L37.2090706,38.1153088 C37.402801,38.0516442 37.6003152,38.0049478 37.8044876,37.9808908 L38.1160994,37.9624936 L38.3773038,37.9628161 C38.9607434,37.9726468 39.5440094,38.0007112 40.1168746,38.0459675 L41.8003298,38.2034264 L42.0365493,38.2124291 C42.3417745,38.2124291 42.5835589,38.1531969 42.7700273,38.0492453 C43.0020554,37.9204146 43.2127788,37.6958371 43.3972433,37.3437156 L44.2131948,35.720979 C44.580501,34.9869074 44.5685294,34.5433721 44.1269341,33.9903228 L43.941099,33.7770144 L42.6476571,32.4141252 L42.5580851,32.3155868 C42.2971573,32.0273415 42.071422,31.7613292 41.8653145,31.4948731 C40.5907485,29.8504803 40.7077839,26.8239364 42.1489745,25.3106205 C42.348365,25.1034844 42.5594919,24.9007389 42.7921729,24.6912189 L43.4122521,24.1566571 L44.7254117,23.0897662 C45.4412815,22.4998322 45.5969567,21.9958034 45.3362565,21.1533461 L45.0810309,20.3555112 C45.0122577,20.1493469 44.933196,19.9168711 44.8393442,19.6439508 C44.556795,18.8285737 44.2171969,18.5184787 43.4358221,18.4305947 L42.6614689,18.3851307 L37.5482986,19.2117621 C36.8050064,19.3218372 36.5051299,19.3406849 36.201734,19.3205978 L36.1101627,19.3134559 L36.9737964,14.7876802 L37.2090706,14.7403457 L41.6779917,13.9386013 C42.1878253,13.8642115 42.4501971,13.8404201 42.6795048,13.8399404 L43.3300354,13.8671228 C46.1955312,14.0020666 48.206581,15.4783802 49.1360829,18.1607448 L49.598223,19.5486714 C49.6277468,19.6427066 49.6558355,19.7339055 49.6830976,19.8241954 C50.4419686,22.2759798 49.8257648,24.5598113 47.9651286,26.2913379 L47.601708,26.6094329 L46.3268099,27.6448551 L46.1095631,27.8278093 C45.8291059,28.0671806 45.6084523,28.271112 45.4322811,28.4540796 C45.5657548,28.3139217 45.5460378,28.8238047 45.4594112,28.7120445 L45.7517333,29.0666036 L46.4892792,29.8639688 L47.2428571,30.6529903 C49.0697321,32.602014 49.4977257,34.9493298 48.4716223,37.3385778 L48.2754396,37.7605726 L48.1318368,38.0452907 C47.8746748,38.569736 47.651502,39.0146717 47.4273679,39.4460573 C46.8410808,40.5653003 46.0131234,41.4476923 44.9800329,42.0212991 C44.1000918,42.5118632 43.0958416,42.7578836 42.0425611,42.7578756 L41.7422985,42.7524585 L40.4978482,42.6476753 C40.010855,42.5937137 39.5226264,42.5549485 39.0453027,42.531535 L38.5115959,42.5113636 L38.3305074,42.6694633 L38.261591,42.7159091 L38.2573146,42.7541237 C38.2209567,43.0786333 38.2017956,43.4319858 38.1864251,43.98764 L38.1648735,44.9307171 C38.0975569,47.1547469 37.4498143,48.7559392 35.9646149,49.9352559 L35.6524481,50.1659091 L35.4438187,50.3141395 C35.1602066,50.4914608 34.8528469,50.6546557 34.6003933,50.7680998 L34.0149192,51.0214077 L33.305044,51.2804628 L32.4151316,51.5698952 L31.980611,51.7020627 C31.3690316,51.8969477 30.7395538,51.9970817 30.0955592,52 C28.4623709,52 26.9743624,51.3247936 25.8119177,50.089616 L25.496308,49.7304817 L23.8576505,47.7784341 L23.6817552,47.5613636 L23.5849651,47.5497569 L23.4317502,47.5363636 L23.134017,47.5477273 L22.9030986,47.7781218 L22.2323754,48.401936 L21.2111362,49.3256638 C20.0422951,50.4122143 18.6477203,51.0013574 17.1407285,51.0013574 C16.2056977,51.0013574 15.2729725,50.7682484 14.3701081,50.3252775 L12.917957,49.5985974 L12.4683496,49.3667046 C10.2442667,48.1993133 9.06634493,46.0438945 9.26932766,43.5126632 L9.4687558,41.2141759 C9.48556064,40.9726738 9.49553243,40.7722807 9.50007732,40.5853919 L9.50192739,40.3477273 L9.61444225,40.3593793 L9.50192739,40.3386364 L9.50192739,40.2295455 L9.49520624,40.3286989 L9.49056353,40.3363636 L9.42735764,40.3271831 C9.06163155,40.2685098 8.67336617,40.2316075 8.0672321,40.1962516 L6.66994946,40.1259142 C3.80388661,39.9909437 1.79268069,38.5167034 0.863527408,35.8337676 C0.675840681,35.2870902 0.494612848,34.7352857 0.316846784,34.1690773 C-0.441972174,31.7169381 0.173970995,29.433506 2.03793522,27.6992247 L2.40202282,27.3805752 L3.89451766,26.1639223 C4.17469943,25.925218 4.39174123,25.7246909 4.56190515,25.5472497 C4.43462349,25.6818386 4.4544223,25.1708043 4.54594159,25.2887374 L4.19298595,24.8689266 L2.75858219,23.3459946 C0.93040409,21.3992332 0.502076179,19.0512023 1.52506443,16.668013 L1.72066781,16.2471598 L2.39659072,14.8961997 L2.54273441,14.6130705 C3.0799796,13.5104028 3.93480647,12.5955428 5.04280067,11.9617364 C5.95019477,11.4694279 6.96840478,11.2192804 7.96307186,11.2355199 L8.25472486,11.241877 L10.7948068,11.4557312 C10.9627708,11.4670495 11.1121324,11.4749386 11.2539565,11.4799982 L11.4815123,11.4840909 L11.6699599,11.3181562 L11.7360628,11.2704545 L11.742568,11.2314725 C11.7643689,11.0376377 11.7800448,10.8321582 11.7924159,10.5788653 L11.8347627,9.05706057 C11.9025143,6.83467922 12.5495901,5.23495674 14.0352526,4.05203625 L14.3665388,3.80485789 L14.5614923,3.67081344 C14.8600319,3.48530379 15.1693174,3.31917271 15.5036769,3.16754089 L16.0258125,2.95035769 L16.5927971,2.74760304 L17.7979195,2.35692565 L18.0926745,2.27220647 L18.1748274,2.25227273 L18.5028201,2.16537284 C18.8125307,2.09220673 19.1236847,2.04309639 19.4357383,2.01848574 L19.9044257,2 C21.539859,2 23.0316603,2.67576782 24.1859733,3.90609685 L24.4922728,4.25529952 L25.3170705,5.24103363 L29.6300786,10.7713599 L26.0456756,13.5666639 L21.7895274,8.10633627 L20.9656633,7.12309994 C20.6302468,6.71432713 20.2915072,6.54545455 19.9044257,6.54545455 C19.8013161,6.54545455 19.6944504,6.55695927 19.5661562,6.5860309 L19.2757964,6.66665919 L19.2112116,6.675 L18.3783547,6.94726541 L18.3949762,6.93766275 L17.5839065,7.21818182 L17.2883593,7.34690652 L17.090126,7.4448203 L16.9170339,7.56757972 C16.5911684,7.79542051 16.4442902,8.0707458 16.3931346,8.86840493 L16.335237,10.7472686 C16.3129955,11.2422978 16.2807768,11.6135877 16.224929,12.018173 C16.113407,12.900064 15.6387584,13.7332332 14.9663871,14.443625 L14.6666047,14.7403457 L14.2057212,15.1227771 L13.6898849,15.4750938 L13.2081585,15.7218648 L12.9658797,15.8192712 L12.836562,15.8646104 C12.6337078,15.9353425 12.4258817,15.9864904 12.2125182,16.0127299 L11.8882492,16.0327423 L11.6678807,16.0327423 C11.1090558,16.0327423 10.6381226,16.0088585 9.90179812,15.945593 L8.1994275,15.7918202 C8.10740754,15.7845237 8.02692922,15.7809744 7.92663669,15.7806823 C7.67781204,15.776693 7.43125493,15.8372656 7.2561165,15.9316057 C6.98579825,16.0864044 6.76731366,16.3202328 6.60308976,16.655614 L5.78679005,18.279021 C5.41502528,19.0220032 5.43186848,19.4665932 5.91423743,20.0544006 L6.39929297,20.5808903 L7.58848036,21.8469679 C7.78769906,22.0708026 7.96505721,22.2815566 8.13357023,22.4975807 C9.40845647,24.1405916 9.29141355,27.1616299 7.85394108,28.6815523 C7.65453732,28.8895716 7.44378246,29.0922195 7.21053632,29.3020943 L6.49938426,29.911408 L5.27462226,30.9032303 C4.55847244,31.4934288 4.40293361,31.9971181 4.65643719,32.816386 C4.81945683,33.3355655 4.9881725,33.8492729 5.16077546,34.3520407 C5.4454069,35.1739081 5.78816444,35.480902 6.61587172,35.5660852 L8.71495589,35.6823957 C9.39947064,35.7293907 9.88279391,35.7872929 10.4394187,35.8894156 C12.176817,36.2119534 14.0171939,38.3768085 14.0474152,40.1567518 L14.0455029,40.6555969 C14.0404345,40.9026923 14.0288843,41.154102 14.009441,41.4449491 L13.7991991,43.8895611 C13.7423612,44.5984833 13.9748215,45.0238504 14.5738146,45.3382699 L16.0219252,46.0706983 C16.1323428,46.1255425 16.251224,46.1845065 16.3803035,46.2484709 C16.6736487,46.392388 16.927787,46.4559029 17.1407285,46.4559029 C17.3929397,46.4559029 17.6382142,46.3735953 17.916897,46.1635119 L18.1328036,45.9812809 L19.5938896,44.6526939 C19.8147376,44.4447485 19.9995766,44.2613711 20.1782414,44.0733275 C20.7782997,43.4277103 21.7925769,43.076044 22.9217255,43.0058665 L23.4541677,42.9931474 L23.6891141,43.0002399 C25.0520589,43.0674128 26.2929939,43.5305231 26.9400589,44.3567003 L27.1468836,44.6185993 L28.8918869,46.7011867 L29.0318617,46.875 C29.3142031,47.2161949 29.5972692,47.3912665 29.9005882,47.4400871 L30.0851762,47.4545692 C30.1975674,47.4540557 30.3095336,47.4420331 30.440561,47.4123345 L30.7221831,47.3342897 Z" id="路径" fill="#2C2C3B" fill-rule="nonzero"></path>
                    <path d="M25.9998961,24.2681257 C26.6195325,23.9106248 27.3804675,23.9106248 27.9998961,24.2681257 C28.6180779,24.6256267 29,25.285129 29,25.9999215 C29,27.1046769 28.1037922,28 27,28 C25.896,28 25,27.1046769 25,25.9999215 C25,25.285129 25.3804675,24.6256267 25.9998961,24.2681257 L25.9998961,24.2681257 Z" id="路径" fill="#007CFF"></path>
                    <path d="M36.3948432,2.00074596 C35.6994367,1.9905841 35.0064018,2.08502458 34.3287273,2.28382382 C32.5910389,2.78336968 31.1268883,3.96944946 30.2654,5.57390046 C29.8373889,6.35989509 29.5771108,7.22751319 29.4731252,8.30103809 C28.6000686,13.1630797 26.2168361,17.57793 22.6768552,20.9252139 C21.9189811,21.6671967 21.1193873,22.542312 20.7990163,23.1383723 C19.9486538,24.7126762 19.7691643,26.560991 20.2987406,28.2676683 C20.7175506,29.6425027 21.5498481,30.8024872 22.6379015,31.6312443 C23.7238034,32.4583627 25.0647004,32.9555525 26.5022406,32.9971894 C27.3044228,33.0207002 28.1145148,32.8955823 28.9022778,32.6389745 C30.6206162,32.0845851 32.0430444,30.873056 32.8637124,29.2761686 L33.0866651,28.780085 C33.2577498,28.3537459 33.3823342,27.9165496 33.4617565,27.4689965 L33.5488001,26.8341462 L33.8029948,25.6063563 C34.7261702,21.5718043 36.6922655,17.9121365 39.5389197,14.9225164 L40.4745136,13.9786158 C41.1071056,13.4957096 41.6594343,12.8666758 42.0876166,12.1467323 C42.9950928,10.5794788 43.2361219,8.73111842 42.7581485,6.98251487 C42.3001778,5.24539039 41.1637467,3.7377934 39.5885239,2.87146515 C38.6883848,2.37641396 37.6486437,2.10300383 36.3948432,2.00074596 Z" id="路径" stroke="#007CFF" stroke-width="4" fill-rule="nonzero"></path>
                </g>
            </g>
        </g>
    </g>
</svg>