<?xml version="1.0" encoding="UTF-8"?>
<svg width="48px" height="48px" viewBox="0 0 48 48" version="1.1" xmlns="http://www.w3.org/2000/svg" xmlns:xlink="http://www.w3.org/1999/xlink">
    <title>编组 21备份</title>
    <g id="频道+优秀创作者+我的订阅" stroke="none" stroke-width="1" fill="none" fill-rule="evenodd">
        <g id="画板备份" transform="translate(-1457.000000, -50.000000)">
            <g id="编组-21备份" transform="translate(1457.000000, 50.000000)">
                <rect id="矩形备份-7" fill="#FFFFFF" x="0" y="0" width="48" height="48"></rect>
                <path d="M36,5.5 C34.2050746,5.5 32.5800746,6.22753728 31.4038059,7.40380592 C30.2275373,8.58007456 29.5,10.2050746 29.5,12 C29.5,13.7949254 30.2275373,15.4199254 31.4038059,16.5961941 C32.5800746,17.7724627 34.2050746,18.5 36,18.5 L42.5,18.5 L42.5,12 C42.5,10.2050746 41.7724627,8.58007456 40.5961941,7.40380592 C39.4199254,6.22753728 37.7949254,5.5 36,5.5 Z" id="矩形备份-26" stroke="#007CFF" stroke-width="3" transform="translate(36.000000, 12.000000) scale(-1, 1) translate(-36.000000, -12.000000) "></path>
                <path d="M18.5,29.5 L12,29.5 C10.2050746,29.5 8.58007456,30.2275373 7.40380592,31.4038059 C6.22753728,32.5800746 5.5,34.2050746 5.5,36 C5.5,37.7949254 6.22753728,39.4199254 7.40380592,40.5961941 C8.58007456,41.7724627 10.2050746,42.5 12,42.5 C13.7949254,42.5 15.4199254,41.7724627 16.5961941,40.5961941 C17.7724627,39.4199254 18.5,37.7949254 18.5,36 L18.5,29.5 Z" id="矩形备份-24" stroke="#007CFF" stroke-width="3"></path>
                <rect id="矩形备份-8" stroke="#2C2C3B" stroke-width="3" x="18.5" y="18.5" width="11" height="11"></rect>
                <path d="M12,5.5 C10.2050746,5.5 8.58007456,6.22753728 7.40380592,7.40380592 C6.22753728,8.58007456 5.5,10.2050746 5.5,12 C5.5,13.7949254 6.22753728,15.4199254 7.40380592,16.5961941 C8.58007456,17.7724627 10.2050746,18.5 12,18.5 L18.5,18.5 L18.5,12 C18.5,10.2050746 17.7724627,8.58007456 16.5961941,7.40380592 C15.4199254,6.22753728 13.7949254,5.5 12,5.5 Z" id="矩形备份-15" stroke="#2C2C3B" stroke-width="3"></path>
                <path d="M42.5,29.5 L36,29.5 C34.2050746,29.5 32.5800746,30.2275373 31.4038059,31.4038059 C30.2275373,32.5800746 29.5,34.2050746 29.5,36 C29.5,37.7949254 30.2275373,39.4199254 31.4038059,40.5961941 C32.5800746,41.7724627 34.2050746,42.5 36,42.5 C37.7949254,42.5 39.4199254,41.7724627 40.5961941,40.5961941 C41.7724627,39.4199254 42.5,37.7949254 42.5,36 L42.5,29.5 Z" id="矩形备份-27" stroke="#2C2C3B" stroke-width="3" transform="translate(36.000000, 36.000000) scale(-1, 1) translate(-36.000000, -36.000000) "></path>
            </g>
        </g>
    </g>
</svg>