<?xml version="1.0" encoding="UTF-8"?>
<svg width="60px" height="60px" viewBox="0 0 60 60" version="1.1" xmlns="http://www.w3.org/2000/svg" xmlns:xlink="http://www.w3.org/1999/xlink">
    <title>编组 20</title>
    <g id="页面-1" stroke="none" stroke-width="1" fill="none" fill-rule="evenodd">
        <g id="画板备份" transform="translate(-444.000000, -41.000000)">
            <g id="编组-20" transform="translate(444.000000, 41.000000)">
                <rect id="矩形" fill="#FFFFFF" x="0" y="0" width="60" height="60"></rect>
                <g id="物理" transform="translate(3.000000, 3.000000)" fill-rule="nonzero">
                    <path d="M16.2,13 L16.2,17.3157895 L6.48,17.3157895 C5.34128926,17.3157895 4.40838167,18.1960787 4.3259246,19.312638 L4.32,19.4736842 L4.32,42.1315789 C4.32,43.2691798 5.20114801,44.2011782 6.31879667,44.2835549 L6.48,44.2894737 L14.04,44.289 L14.04,43.2105263 C14.04,40.8970859 15.8620307,39.0087887 18.1506921,38.8997136 L18.36,38.8947368 L35.64,38.8947368 C38.0258701,38.8947368 39.96,40.8269816 39.96,43.2105263 L39.96,43.2105263 L39.96,44.289 L47.52,44.2894737 L47.6812033,44.2835549 C48.798852,44.2011782 49.68,43.2691798 49.68,42.1315789 L49.68,42.1315789 L49.68,19.4736842 L49.6740754,19.312638 C49.5916183,18.1960787 48.6587107,17.3157895 47.52,17.3157895 L47.52,17.3157895 L37.8,17.3157895 L37.6387967,17.3098707 C36.521148,17.2274939 35.64,16.2954956 35.64,15.1578947 C35.64,13.9661224 36.6070649,13 37.8,13 L37.8,13 L47.52,13 L47.7629333,13.0044652 C51.2291791,13.1320936 54,15.9796244 54,19.4736842 L54,19.4736842 L54,42.1315789 L53.9955305,42.3742755 C53.8677775,45.8371429 51.0174687,48.6052632 47.52,48.6052632 L47.52,48.6052632 L39.96,48.605 L39.96,49.6842105 C39.96,51.997651 38.1379693,53.8859481 35.8493079,53.9950232 L35.64,54 L18.36,54 C15.9741299,54 14.04,52.0677552 14.04,49.6842105 L14.04,49.6842105 L14.04,48.605 L6.48,48.6052632 C2.9825313,48.6052632 0.132222497,45.8371429 0.00446954982,42.3742755 L0,42.1315789 L0,19.4736842 C0,15.9796244 2.77082088,13.1320936 6.23706668,13.0044652 L6.48,13 L16.2,13 Z M35.64,43.2105263 L18.36,43.2105263 L18.36,49.6842105 L35.64,49.6842105 L35.64,43.2105263 Z" id="形状结合" fill="#2C2C3B"></path>
                    <path d="M18.5,9 C14.9101491,9 12,11.9101491 12,15.5 C12,19.0898509 14.9101491,22 18.5,22 C22.0898509,22 25,19.0898509 25,15.5 C25,11.9101491 22.0898509,9 18.5,9 Z M18.5,13.3333333 C19.696617,13.3333333 20.6666667,14.303383 20.6666667,15.5 C20.6666667,16.696617 19.696617,17.6666667 18.5,17.6666667 C17.303383,17.6666667 16.3333333,16.696617 16.3333333,15.5 C16.3333333,14.303383 17.303383,13.3333333 18.5,13.3333333 Z" id="椭圆形" fill="#007CFF"></path>
                    <path d="M36.6617241,0.399300141 C37.6104677,-0.288561002 38.9289395,-0.065512349 39.6066135,0.897493251 C40.2321587,1.7864215 40.0930389,2.99512033 39.3217219,3.71683549 L39.1157986,3.88665191 L24.3382759,14.6006999 C23.3895323,15.288561 22.0710605,15.0655123 21.3933865,14.1025067 C20.7678413,13.2135785 20.9069611,12.0048797 21.6782781,11.2831645 L21.8842014,11.1133481 L36.6617241,0.399300141 Z" id="路径-6" fill="#007CFF"></path>
                </g>
            </g>
        </g>
    </g>
</svg>