<?xml version="1.0" encoding="UTF-8"?>
<svg width="60px" height="60px" viewBox="0 0 60 60" version="1.1" xmlns="http://www.w3.org/2000/svg" xmlns:xlink="http://www.w3.org/1999/xlink">
    <title>编组 17</title>
    <g id="页面-1" stroke="none" stroke-width="1" fill="none" fill-rule="evenodd">
        <g id="画板备份" transform="translate(-321.000000, -193.000000)">
            <g id="编组-17" transform="translate(321.000000, 193.000000)">
                <rect id="矩形" fill="#FFFFFF" x="0" y="0" width="60" height="60"></rect>
                <g id="人工智能" transform="translate(3.000000, 5.000000)">
                    <path d="M32.6326531,12 C42.2243739,12 50,20.5065898 50,31 L50,43.8378378 C50,47.241106 47.4781753,50 44.3673469,50 L9.63265306,50 C6.52182467,50 4,47.241106 4,43.8378378 L4,31 C4,20.5065898 11.7756261,12 21.3673469,12 L32.6326531,12 Z M32.5609756,16 L21.4390244,16 C14.1145163,16 8.15858162,22.5401617 8.00311459,30.6738157 L8,31 L8,43.9310345 C8,45.0217536 8.75617942,45.9153432 9.71531783,45.9943251 L9.85365854,46 L44.1463415,46 C45.1235548,46 45.924153,45.1559885 45.9949157,44.0854438 L46,43.9310345 L46,31 C46,22.8247323 40.1404405,16.1770013 32.8532155,16.0034764 L32.5609756,16 Z" id="矩形" fill="#565664" fill-rule="nonzero"></path>
                    <rect id="矩形" fill="#565663" x="14" y="33" width="26" height="4"></rect>
                    <circle id="椭圆形" fill="#565663" cx="8" cy="4" r="4"></circle>
                    <circle id="椭圆形备份-32" fill="#565663" transform="translate(46.000000, 4.000000) rotate(-360.000000) translate(-46.000000, -4.000000) " cx="46" cy="4" r="4"></circle>
                    <polygon id="矩形" fill="#565663" transform="translate(11.232051, 9.062178) rotate(-30.000000) translate(-11.232051, -9.062178) " points="9.25118897 2.06736124 13.2320508 2.06217783 13.2129126 16.0569944 9.23205081 16.0621778"></polygon>
                    <polygon id="矩形备份-10" fill="#565663" transform="translate(43.232051, 9.062178) rotate(-330.000000) translate(-43.232051, -9.062178) " points="41.2320508 2.06217783 45.2129126 2.06736124 45.2320508 16.0621778 41.251189 16.0569944"></polygon>
                    <path d="M3,31 L4,31 L4,31 L4,41 L3,41 C1.34314575,41 2.02906125e-16,39.6568542 0,38 L0,34 C-2.02906125e-16,32.3431458 1.34314575,31 3,31 Z" id="矩形" fill="#9E9EA6"></path>
                    <path d="M53,31 L54,31 L54,31 L54,41 L53,41 C51.3431458,41 50,39.6568542 50,38 L50,34 C50,32.3431458 51.3431458,31 53,31 Z" id="矩形备份-37" fill="#9E9EA6" transform="translate(52.000000, 36.000000) scale(-1, 1) translate(-52.000000, -36.000000) "></path>
                    <path d="M30.5702758,0.819352646 C30.7769469,0.171016375 31.3999713,-0.161240746 31.9618398,0.0772355961 C32.2350317,0.193187632 32.4546126,0.430175689 32.5739484,0.732244851 L32.6188189,0.865524487 L34.0114472,5.82512332 L37.0966725,5.82512332 C37.5599312,5.82512332 37.9417418,6.22750981 37.9939227,6.74590757 L38,6.86746685 C38,7.40201796 37.6512793,7.84258668 37.2020196,7.90279777 L37.0966725,7.90981037 L33.4863388,7.90981037 C33.0555838,7.90981037 32.6697959,7.61624585 32.4968982,7.17000691 L32.4551487,7.04462591 L31.5444598,3.80193453 L29.8757986,9.03675976 C29.7740688,9.35589061 29.5649161,9.61141934 29.2988507,9.74789857 L29.1814854,9.79893927 C28.6481126,9.99108088 28.0830072,9.68360429 27.8649765,9.10562344 L27.823706,8.97771353 L27.2265543,6.76948655 L25.8576503,9.39391301 C25.74396,9.61185494 25.5759829,9.78355075 25.3771146,9.88774862 L25.2542739,9.94199758 C24.7212738,10.1355115 24.1555754,9.82949014 23.936428,9.2520719 L23.8949104,9.12426852 L22.5446078,4.17196649 L21.810422,7.01616713 C21.6849233,7.50218641 21.3194484,7.8480789 20.8901066,7.90235252 L20.7715622,7.90981037 L16.9033275,7.90981037 C16.4044335,7.90981037 16,7.44313728 16,6.86746685 C16,6.33291573 16.3487207,5.89234701 16.7979804,5.83213593 L16.9033275,5.82512332 L20.2320894,5.82512332 L21.4870002,0.968072607 C21.6465543,0.350166621 22.1830779,-0.0192453838 22.7203823,0.0946247929 L22.8353939,0.126508285 C23.1420483,0.231938736 23.3906038,0.487396014 23.5179336,0.821141661 L23.5598766,0.949825932 L25.1362544,6.73300453 L26.5081216,4.10463347 C26.7962821,3.5522358 27.3957308,3.34903602 27.8913994,3.61404786 L27.9958743,3.67804599 C28.1853444,3.80964555 28.3344656,4.00426804 28.4246761,4.23464307 L28.4715847,4.37694023 L28.9139701,6.01274515 L30.5702758,0.819352646 Z" id="路径-2" fill="#9E9EA6" fill-rule="nonzero"></path>
                </g>
            </g>
        </g>
    </g>
</svg>