<?xml version="1.0" encoding="UTF-8"?>
<svg width="40px" height="40px" viewBox="0 0 40 40" version="1.1" xmlns="http://www.w3.org/2000/svg" xmlns:xlink="http://www.w3.org/1999/xlink">
    <title>编组 3</title>
    <g id="频道+优秀创作者+我的订阅" stroke="none" stroke-width="1" fill="none" fill-rule="evenodd">
        <g id="画板备份" transform="translate(-1620.000000, -224.000000)">
            <g id="编组-3" transform="translate(1620.000000, 224.000000)">
                <rect id="矩形" fill="#FFFFFF" x="0" y="0" width="40" height="40"></rect>
                <path d="M12.8329824,11.5 L7,11.5 C6.03350169,11.5 5.15850169,11.8917508 4.52512627,12.5251263 C3.89175084,13.1585017 3.5,14.0335017 3.5,15 L3.5,31 C3.5,31.9664983 3.89175084,32.8414983 4.52512627,33.4748737 C5.15850169,34.1082492 6.03350169,34.5 7,34.5 L33,34.5 C33.9664983,34.5 34.8414983,34.1082492 35.4748737,33.4748737 C36.1082492,32.8414983 36.5,31.9664983 36.5,31 L36.5,15 C36.5,14.0335017 36.1082492,13.1585017 35.4748737,12.5251263 C34.8414983,11.8917508 33.9664983,11.5 33,11.5 L27.1482006,11.5 L26.6419932,13.4045255 C26.4964249,13.9522032 26.1757433,14.4166574 25.7497804,14.7441922 C25.3238176,15.071727 24.7925735,15.2623423 24.2258805,15.2623423 L15.7553025,15.2623423 C15.1886094,15.2623423 14.6573654,15.071727 14.2314025,14.7441922 C13.8054397,14.4166574 13.484758,13.9522032 13.3391897,13.4045255 L12.8329824,11.5 Z" id="矩形" stroke="#565663" stroke-width="3"></path>
                <rect id="矩形" fill="#565663" x="15" y="7" width="10" height="3"></rect>
                <rect id="矩形备份-3" fill="#9E9EA6" x="15" y="23" width="10" height="3"></rect>
                <rect id="矩形备份-4" fill="#9E9EA6" transform="translate(20.000000, 24.500000) rotate(-270.000000) translate(-20.000000, -24.500000) " x="15" y="23" width="10" height="3"></rect>
            </g>
        </g>
    </g>
</svg>