<?xml version="1.0" encoding="UTF-8"?>
<svg width="40px" height="40px" viewBox="0 0 40 40" version="1.1" xmlns="http://www.w3.org/2000/svg" xmlns:xlink="http://www.w3.org/1999/xlink">
    <title>编组 14</title>
    <g id="频道+优秀创作者+我的订阅" stroke="none" stroke-width="1" fill="none" fill-rule="evenodd">
        <g id="画板备份" transform="translate(-1408.000000, -224.000000)">
            <g id="编组-14" transform="translate(1408.000000, 224.000000)">
                <rect id="矩形备份-2" fill="#FFFFFF" x="0" y="0" width="40" height="40"></rect>
                <g id="编组-10" transform="translate(3.000000, 0.612193)">
                    <path d="M27,23.887807 L6.5,24.387807 L6.5,33.387807 C6.5,34.3543053 6.89175084,35.2293053 7.52512627,35.8626807 C8.15850169,36.4960561 9.03350169,36.887807 10,36.887807 L24,36.887807 C24.9664983,36.887807 25.8414983,36.4960561 26.4748737,35.8626807 C27.1082492,35.2293053 27.5,34.3543053 27.5,33.387807 L27,23.887807 Z" id="矩形" stroke="#565663" stroke-width="3"></path>
                    <rect id="矩形" fill="#9E9EA6" x="16" y="14.387807" width="3" height="8"></rect>
                    <path d="M23.4770294,5.23958577 C23.1079056,5.23958577 21.9640416,6.35761157 21.1131889,7.60420351 C20.4705112,8.54579626 19.9664004,9.72270835 19.9664004,11.0807028 C19.9664004,12.5141222 20.523428,13.9164159 21.2127946,15.1077124 C22.0476982,16.5505118 23.1400436,18.2395858 23.4770294,18.2395858 C23.819417,18.2395858 25.1007952,16.8592524 26.0486652,15.4475443 C26.7391417,14.4191846 27.2937785,13.1784083 27.2937785,11.8210971 C27.2937785,10.4276927 26.726125,9.13578107 26.0207044,8.06353467 C25.092724,6.65299524 23.8570595,5.23958577 23.4770294,5.23958577 Z" id="椭圆形" stroke="#9E9EA6" stroke-width="3" transform="translate(23.630089, 11.739586) rotate(46.000000) translate(-23.630089, -11.739586) "></path>
                    <path d="M10.2893729,3.49915184 C10.136023,3.49191827 10.0209002,3.81944347 9.86687184,3.97815412 C9.36008378,4.50034794 8.83424935,5.24954371 8.36842836,6.12270077 C7.58447765,7.59217534 6.96640041,9.41695189 6.96640041,11.1737077 C6.96640041,12.7267905 7.68647013,14.2655897 8.56539181,15.5388515 C9.57260496,16.9979645 10.8523463,18.4887418 11.4782101,18.4652739 C12.092378,18.4422446 13.1660407,16.8061149 14.0580795,15.2827741 C14.9072401,13.8326566 15.5979031,12.1048365 15.5979031,10.4634142 C15.5979031,8.98639557 14.8437318,7.59200745 13.9254501,6.43866577 C12.6661726,4.85704069 11.022977,3.53375625 10.2893729,3.49915184 Z" id="椭圆形备份-2" stroke="#9E9EA6" stroke-width="3" transform="translate(11.282152, 10.982345) rotate(-50.000000) translate(-11.282152, -10.982345) "></path>
                </g>
            </g>
        </g>
    </g>
</svg>