<?xml version="1.0" encoding="UTF-8"?>
<svg width="60px" height="60px" viewBox="0 0 60 60" version="1.1" xmlns="http://www.w3.org/2000/svg" xmlns:xlink="http://www.w3.org/1999/xlink">
    <title>编组 3备份</title>
    <g id="页面-1" stroke="none" stroke-width="1" fill="none" fill-rule="evenodd">
        <g id="画板备份" transform="translate(-886.000000, -193.000000)">
            <g id="编组-3备份" transform="translate(886.000000, 193.000000)">
                <rect id="矩形" fill="#FFFFFF" x="0" y="0" width="60" height="60"></rect>
                <path d="M44.1531771,5 L9,5 C7.8954305,5 6.8954305,5.44771525 6.17157288,6.17157288 C5.44771525,6.8954305 5,7.8954305 5,9 L5,51 C5,52.1045695 5.44771525,53.1045695 6.17157288,53.8284271 C6.8954305,54.5522847 7.8954305,55 9,55 L51,55 C52.1045695,55 53.1045695,54.5522847 53.8284271,53.8284271 C54.5522847,53.1045695 55,52.1045695 55,51 L55,15.7744023 L49.7343842,10.5457525 L44.1531771,5 Z" id="矩形" stroke="#565664" stroke-width="4"></path>
                <path d="M40,5 L21,5 L21,20 C21,20.5522847 21.2238576,21.0522847 21.5857864,21.4142136 C21.9477153,21.7761424 22.4477153,22 23,22 L38,22 C38.5522847,22 39.0522847,21.7761424 39.4142136,21.4142136 C39.7761424,21.0522847 40,20.5522847 40,20 L40,5 Z" id="矩形" stroke="#565664" stroke-width="4"></path>
                <path d="M41.9069453,29 L18.8834099,29 L16.051898,31.739983 L13,34.8992822 L13,55 L47,55 L47,34.9279261 L44.5228041,32.1085124 L41.9069453,29 Z" id="矩形" stroke="#565664" stroke-width="4"></path>
                <rect id="矩形" fill="#9E9EA6" x="32" y="10" width="4" height="8"></rect>
                <rect id="矩形" fill="#9E9EA6" x="21" y="37" width="19" height="4"></rect>
                <rect id="矩形备份" fill="#9E9EA6" x="21" y="45" width="19" height="4"></rect>
            </g>
        </g>
    </g>
</svg>